<svg width="101" height="133" viewBox="0 0 101 133" fill="none" xmlns="http://www.w3.org/2000/svg">
<path d="M6.79739 39.8496V36.3607H3.9551V39.8496H6.79739ZM9.91037 35.8795V31.0521H11.0834V43.5792H9.91037V36.887H7.95536V40.8572H2.78209V32.0897H3.9551V35.3682H6.79739V32.0897H7.95536V35.8795H9.91037ZM12.5872 30.7513H13.7602V44.2409H12.5872V30.7513ZM26.9629 38.03V39.0225H17.6992V31.9243H26.8276V32.9169H18.9474V34.917H26.5268V35.8945H18.9474V38.03H26.9629ZM16.1201 41.4888H28.3615V42.4964H16.1201V41.4888ZM37.8346 35.7441L37.985 36.7517C35.7142 37.2029 33.699 37.3532 31.6839 37.3532H30.6312V31.4281H31.8493V36.3156C33.7592 36.3005 35.6841 36.1652 37.8346 35.7441ZM33.1426 40.1053V43.0529H39.2332V40.1053H33.1426ZM31.9395 44.0454V39.1128H40.4363V44.0454H31.9395ZM42.4364 33.8493V34.8719H40.4363V38.3759H39.2031V30.7513H40.4363V33.8493H42.4364ZM54.942 34.4809H57.649V30.7664H58.8972V40.6467H57.649V35.4885H54.942V34.4809ZM55.7391 37.654L55.1225 38.6165C53.6186 38.0751 52.4607 36.9472 51.8742 35.5637C51.2877 37.0976 50.0545 38.3458 48.4755 38.9173L47.8288 37.9548C49.8289 37.2329 51.2275 35.4433 51.2275 33.5335V32.8567H48.2198V31.8491H55.4233V32.8567H52.4607V33.5184C52.4607 35.2779 53.7841 36.9622 55.7391 37.654ZM51.5133 42.9326H59.2731V43.9401H50.2651V39.7745H51.5133V42.9326ZM70.4103 33.1575V34.8719C70.4103 37.1577 72.0344 39.4887 74.0195 40.3309L73.3277 41.3234C71.7637 40.6016 70.4403 39.0526 69.7937 37.2029C69.1771 39.1729 67.8537 40.8723 66.3198 41.6543L65.5979 40.6617C67.5379 39.7444 69.1771 37.2029 69.1771 34.8719V33.1575H66.0491V32.1349H73.5834V33.1575H70.4103ZM75.4031 30.7664H76.6362V44.2409H75.4031V30.7664ZM81.5226 40.4512V39.4436H90.5457V44.2559H89.2975V40.4512H81.5226ZM86.4252 35.7592H89.2975V33.729H86.4252C86.5154 34.0448 86.5755 34.3756 86.5755 34.7365C86.5755 35.1125 86.5154 35.4433 86.4252 35.7592ZM83.1016 36.9472C84.425 36.9472 85.4025 36.0299 85.4025 34.7365C85.4025 33.4733 84.425 32.5559 83.1016 32.5559C81.7933 32.5559 80.8158 33.4733 80.8158 34.7365C80.8158 36.0299 81.7933 36.9472 83.1016 36.9472ZM89.2975 30.7664L90.5457 30.7513V38.7067H89.2975V36.7667H85.8838C85.2521 37.5337 84.2746 37.9999 83.1016 37.9999C81.1165 37.9999 79.6428 36.6464 79.6428 34.7365C79.6428 32.8417 81.1165 31.5032 83.1016 31.5032C84.2746 31.5032 85.2672 31.9694 85.8988 32.7364H89.2975V30.7664Z" fill="black"/>
<path d="M6.54671 125.717C6.50674 125.38 6.34461 125.117 6.06032 124.931C5.77604 124.744 5.42734 124.651 5.01424 124.651C4.71219 124.651 4.4479 124.7 4.22136 124.798C3.99704 124.895 3.82158 125.03 3.69499 125.201C3.57061 125.372 3.50843 125.566 3.50843 125.784C3.50843 125.966 3.55173 126.122 3.63835 126.253C3.72719 126.382 3.84046 126.49 3.97816 126.577C4.11586 126.661 4.26022 126.731 4.41125 126.787C4.56228 126.84 4.70109 126.883 4.82768 126.916L5.52063 127.103C5.6983 127.15 5.89597 127.214 6.11362 127.296C6.3335 127.378 6.54338 127.491 6.74327 127.633C6.94538 127.773 7.11195 127.953 7.24299 128.172C7.37403 128.392 7.43954 128.662 7.43954 128.982C7.43954 129.351 7.34293 129.684 7.14971 129.981C6.9587 130.279 6.67886 130.516 6.31018 130.691C5.94372 130.866 5.49842 130.954 4.97427 130.954C4.48565 130.954 4.06256 130.875 3.70498 130.718C3.34963 130.56 3.06978 130.34 2.86545 130.058C2.66335 129.776 2.54897 129.448 2.52231 129.075H3.37517C3.39738 129.333 3.48399 129.546 3.63502 129.715C3.78827 129.881 3.98149 130.006 4.21469 130.088C4.45012 130.168 4.70331 130.208 4.97427 130.208C5.28964 130.208 5.57282 130.157 5.82379 130.055C6.07476 129.95 6.27353 129.806 6.42012 129.622C6.5667 129.435 6.63999 129.217 6.63999 128.969C6.63999 128.742 6.5767 128.558 6.4501 128.416C6.32351 128.273 6.15693 128.158 5.95038 128.069C5.74383 127.98 5.52063 127.903 5.28076 127.836L4.44123 127.596C3.9082 127.443 3.48622 127.224 3.17528 126.94C2.86434 126.655 2.70888 126.283 2.70888 125.824C2.70888 125.442 2.81215 125.109 3.0187 124.824C3.22747 124.538 3.50731 124.316 3.85823 124.158C4.21136 123.998 4.60558 123.918 5.0409 123.918C5.48065 123.918 5.87154 123.997 6.21357 124.155C6.5556 124.31 6.82656 124.523 7.02644 124.794C7.22855 125.065 7.33516 125.373 7.34626 125.717H6.54671ZM8.42482 124.744V124.011H13.5419V124.744H11.3965V130.834H10.5703V124.744H8.42482ZM20.2898 127.423C20.2898 128.142 20.1599 128.764 19.9 129.288C19.6402 129.813 19.2837 130.217 18.8306 130.501C18.3776 130.785 17.8601 130.928 17.2782 130.928C16.6963 130.928 16.1788 130.785 15.7257 130.501C15.2726 130.217 14.9162 129.813 14.6563 129.288C14.3965 128.764 14.2665 128.142 14.2665 127.423C14.2665 126.703 14.3965 126.081 14.6563 125.557C14.9162 125.033 15.2726 124.629 15.7257 124.345C16.1788 124.06 16.6963 123.918 17.2782 123.918C17.8601 123.918 18.3776 124.06 18.8306 124.345C19.2837 124.629 19.6402 125.033 19.9 125.557C20.1599 126.081 20.2898 126.703 20.2898 127.423ZM19.4903 127.423C19.4903 126.832 19.3914 126.333 19.1938 125.927C18.9983 125.521 18.7329 125.213 18.3975 125.004C18.0644 124.795 17.6913 124.691 17.2782 124.691C16.8651 124.691 16.4908 124.795 16.1555 125.004C15.8223 125.213 15.5569 125.521 15.3593 125.927C15.1638 126.333 15.0661 126.832 15.0661 127.423C15.0661 128.014 15.1638 128.512 15.3593 128.919C15.5569 129.325 15.8223 129.633 16.1555 129.841C16.4908 130.05 16.8651 130.155 17.2782 130.155C17.6913 130.155 18.0644 130.05 18.3975 129.841C18.7329 129.633 18.9983 129.325 19.1938 128.919C19.3914 128.512 19.4903 128.014 19.4903 127.423ZM21.679 130.834V124.011H23.9844C24.5174 124.011 24.955 124.102 25.297 124.285C25.639 124.464 25.8922 124.712 26.0566 125.027C26.2209 125.343 26.3031 125.702 26.3031 126.104C26.3031 126.506 26.2209 126.862 26.0566 127.173C25.8922 127.484 25.6401 127.728 25.3003 127.906C24.9605 128.081 24.5263 128.169 23.9977 128.169H22.1321V127.423H23.9711C24.3353 127.423 24.6285 127.37 24.8506 127.263C25.0749 127.156 25.237 127.005 25.337 126.81C25.4391 126.612 25.4902 126.377 25.4902 126.104C25.4902 125.83 25.4391 125.592 25.337 125.387C25.2348 125.183 25.0716 125.025 24.8472 124.914C24.6229 124.801 24.3264 124.744 23.9577 124.744H22.5052V130.834H21.679ZM24.8905 127.769L26.5696 130.834H25.6101L23.9577 127.769H24.8905ZM27.6798 130.834V124.011H31.7975V124.744H28.506V127.05H31.5843V127.783H28.506V130.101H31.8508V130.834H27.6798ZM40.0617 125.44H41.7504V123.123H42.529V129.286H41.7504V126.068H40.0617V125.44ZM40.5589 127.419L40.1743 128.02C39.2362 127.682 38.5138 126.978 38.1479 126.115C37.782 127.072 37.0128 127.851 36.0277 128.207L35.6243 127.607C36.872 127.157 37.7445 126.04 37.7445 124.849V124.427H35.8682V123.798H40.3619V124.427H38.5138V124.84C38.5138 125.937 39.3393 126.988 40.5589 127.419ZM37.9228 130.712H42.7636V131.341H37.1441V128.742H37.9228V130.712ZM44.5453 124.202H47.8288C47.8288 126.369 47.0689 128.376 44.6766 129.727L44.2263 129.174C46.1589 128.095 46.9563 126.575 47.0689 124.83H44.5453V124.202ZM50.6244 123.113H51.3655V131.528H50.6244V127.129H49.4799V131.106H48.7575V123.339H49.4799V126.5H50.6244V123.113ZM61.6492 125.29H59.5477C59.0036 126.641 57.7277 127.626 55.9171 128.151L55.6075 127.541C57.6152 126.941 58.8629 125.825 59.0036 124.37H56.0391V123.751H59.8386C59.8386 124.061 59.801 124.37 59.7447 124.661H61.6492V123.123H62.4278V128.151H61.6492V127.044H59.4445V126.416H61.6492V125.29ZM59.6791 130.891C60.9174 130.891 61.7054 130.506 61.7054 129.868C61.7054 129.239 60.9174 128.855 59.6791 128.855C58.4407 128.855 57.6527 129.239 57.6527 129.868C57.6527 130.506 58.4407 130.891 59.6791 130.891ZM59.6791 128.245C61.3771 128.245 62.4653 128.855 62.4653 129.868C62.4653 130.881 61.3771 131.491 59.6791 131.491C57.981 131.491 56.8928 130.881 56.8928 129.868C56.8928 128.855 57.981 128.245 59.6791 128.245ZM69.0128 123.995V124.614H64.1345V123.995H66.189V123.029H66.9583V123.995H69.0128ZM65.3541 126.547C65.3541 127.091 65.8607 127.466 66.5737 127.466C67.2866 127.466 67.7932 127.091 67.7932 126.547C67.7932 126.003 67.2866 125.628 66.5737 125.628C65.8607 125.628 65.3541 126.003 65.3541 126.547ZM68.5156 126.547C68.5156 127.448 67.7088 128.039 66.5737 128.039C65.4291 128.039 64.6223 127.448 64.6223 126.547C64.6223 125.646 65.4291 125.046 66.5737 125.046C67.7088 125.046 68.5156 125.646 68.5156 126.547ZM66.3391 129.268V130.797H70.3074V129.268H66.3391ZM65.5886 131.416V128.658H71.058V131.416H65.5886ZM70.2793 123.123H71.058V128.207H70.2793V126.303H68.8815V125.674H70.2793V123.123ZM77.0543 125.843V127.391H81.3509V125.843H77.0543ZM79.5872 129.821H83.0208V130.45H75.3938V129.821H78.8086V128.01H76.2944V123.714H77.0543V125.215H81.3509V123.714H82.1015V128.01H79.5872V129.821ZM87.814 124.07C86.5381 124.07 85.6656 124.539 85.6656 125.28C85.6656 126.022 86.5381 126.5 87.814 126.5C89.0992 126.5 89.9717 126.022 89.9717 125.28C89.9717 124.539 89.0992 124.07 87.814 124.07ZM87.814 127.119C86.069 127.119 84.8776 126.406 84.8776 125.28C84.8776 124.155 86.069 123.451 87.814 123.451C89.5683 123.451 90.7597 124.155 90.7597 125.28C90.7597 126.406 89.5683 127.119 87.814 127.119ZM91.6416 127.907V128.536H89.6527V131.528H88.8741V128.536H86.7633V131.528H85.9846V128.536H84.0239V127.907H91.6416Z" fill="black"/>
<path d="M7.87939 115.468L34.3613 63.0969V62.6526H3.73234V54.8028H43.8402V62.9192L17.4472 115.468H7.87939ZM73.4176 116.298C69.1718 116.298 65.4197 115.567 62.1613 114.106C58.9227 112.644 56.3851 110.63 54.5485 108.063C52.712 105.496 51.8036 102.573 51.8233 99.2948C51.8036 96.7275 52.3269 94.3677 53.3933 92.2152C54.4794 90.0429 55.9506 88.236 57.8069 86.7944C59.6632 85.333 61.7367 84.4049 64.0275 84.0099V83.6545C61.0061 82.9238 58.587 81.3045 56.7701 78.7965C54.9533 76.2885 54.0548 73.4053 54.0746 70.1469C54.0548 67.0465 54.8744 64.2818 56.5332 61.8528C58.2117 59.4041 60.5124 57.4787 63.435 56.0766C66.3577 54.6745 69.6852 53.9734 73.4176 53.9734C77.1104 53.9734 80.4083 54.6844 83.3113 56.1062C86.2339 57.5083 88.5346 59.4337 90.2131 61.8825C91.8917 64.3114 92.7409 67.0663 92.7606 70.1469C92.7409 73.4053 91.8127 76.2885 89.9762 78.7965C88.1396 81.3045 85.7501 82.9238 82.8077 83.6545V84.0099C85.0787 84.4049 87.1226 85.333 88.9394 86.7944C90.776 88.236 92.2373 90.0429 93.3234 92.2152C94.4293 94.3677 94.9921 96.7275 95.0119 99.2948C94.9921 102.573 94.064 105.496 92.2274 108.063C90.3909 110.63 87.8434 112.644 84.585 114.106C81.3464 115.567 77.6239 116.298 73.4176 116.298ZM73.4176 108.803C75.9256 108.803 78.0978 108.389 79.9344 107.559C81.7709 106.71 83.1928 105.535 84.1999 104.034C85.2071 102.514 85.7205 100.736 85.7403 98.7023C85.7205 96.5893 85.1676 94.7231 84.0814 93.1038C83.015 91.4845 81.5636 90.2108 79.727 89.2826C77.8905 88.3545 75.7873 87.8904 73.4176 87.8904C71.0281 87.8904 68.9052 88.3545 67.0489 89.2826C65.1926 90.2108 63.7313 91.4845 62.6649 93.1038C61.5985 94.7231 61.0752 96.5893 61.0949 98.7023C61.0752 100.736 61.559 102.514 62.5464 104.034C63.5535 105.535 64.9853 106.71 66.8416 107.559C68.6979 108.389 70.8899 108.803 73.4176 108.803ZM73.4176 80.5738C75.4319 80.5738 77.2191 80.169 78.7791 79.3593C80.3392 78.5496 81.5636 77.424 82.4522 75.9824C83.3606 74.5408 83.8247 72.8524 83.8445 70.9171C83.8247 69.0213 83.3705 67.3625 82.4819 65.9406C81.613 64.5188 80.3985 63.4228 78.8384 62.6526C77.2783 61.8627 75.4714 61.4677 73.4176 61.4677C71.3243 61.4677 69.4878 61.8627 67.9079 62.6526C66.3479 63.4228 65.1334 64.5188 64.2645 65.9406C63.3956 67.3625 62.971 69.0213 62.9907 70.9171C62.971 72.8524 63.4054 74.5408 64.2941 75.9824C65.1827 77.424 66.4071 78.5496 67.9672 79.3593C69.547 80.169 71.3638 80.5738 73.4176 80.5738Z" fill="black"/>
<g clip-path="url(#clip0_0_120)">
<path d="M58.681 9.91169C58.681 16.8498 49.7605 22.7968 49.7605 22.7968C49.7605 22.7968 40.8401 16.8498 40.8401 9.91169C40.8401 7.54583 41.7799 5.27687 43.4528 3.60396C45.1257 1.93104 47.3947 0.991211 49.7605 0.991211C52.1264 0.991211 54.3953 1.93104 56.0683 3.60396C57.7412 5.27687 58.681 7.54583 58.681 9.91169Z" stroke="#93CFF1" stroke-width="1.98233" stroke-linecap="round" stroke-linejoin="round"/>
<path d="M49.7605 12.8852C51.4027 12.8852 52.734 11.5539 52.734 9.91172C52.734 8.26951 51.4027 6.93823 49.7605 6.93823C48.1183 6.93823 46.787 8.26951 46.787 9.91172C46.787 11.5539 48.1183 12.8852 49.7605 12.8852Z" stroke="#93CFF1" stroke-width="1.98233" stroke-linecap="round" stroke-linejoin="round"/>
</g>
<defs>
<clipPath id="clip0_0_120">
<rect width="23.7879" height="23.7879" fill="white" transform="translate(37.8665)"/>
</clipPath>
</defs>
</svg>
