<svg width="91" height="93" viewBox="0 0 91 93" fill="none" xmlns="http://www.w3.org/2000/svg">
<g clip-path="url(#clip0_0_66)">
<path d="M19.1568 92.2432V88.3839H20.419C20.8435 88.3839 21.1786 88.4733 21.4188 88.6464C21.6589 88.8195 21.7818 89.082 21.7818 89.4339C21.7818 89.6015 21.7315 89.7578 21.6366 89.8919C21.5416 90.0259 21.4076 90.132 21.2345 90.2046C21.4802 90.2437 21.6701 90.3499 21.8041 90.523C21.9382 90.6961 22.0052 90.8972 22.0052 91.1318C22.0052 91.4948 21.8879 91.7685 21.6478 91.9584C21.4132 92.1482 21.0837 92.2432 20.6648 92.2432H19.1568ZM19.7991 90.0092H20.4861C20.6871 90.0092 20.8435 89.9589 20.9608 89.8695C21.0781 89.7746 21.1339 89.6406 21.1339 89.4674C21.1339 89.2775 21.0725 89.1323 20.9496 89.0429C20.8268 88.948 20.648 88.9033 20.419 88.9033H19.7991V90.0092ZM19.7991 90.4895V91.7294H20.6704C20.8938 91.7294 21.0669 91.6791 21.1842 91.5786C21.3071 91.478 21.3629 91.3272 21.3629 91.1373C21.3629 90.9419 21.3015 90.7911 21.1842 90.6738C21.0669 90.5565 20.8994 90.4951 20.6871 90.4895H20.6536H19.7991Z" fill="#241A17"/>
<path d="M24.7642 90.5062H23.2562V91.7294H25.0378V92.2432H22.6139V88.3839H25.0211V88.9033H23.2562V89.9924H24.7642V90.5062Z" fill="#241A17"/>
<path d="M27.6237 91.344H26.2553L25.9593 92.2432H25.2947L26.6407 88.3839H27.255L28.5843 92.2432H27.9197L27.6237 91.344ZM26.434 90.8078H27.4505L26.9534 89.2887H26.9367L26.434 90.8078Z" fill="#241A17"/>
<path d="M31.9635 88.3839V90.9251C31.9635 91.3552 31.8239 91.6903 31.539 91.9304C31.2598 92.1762 30.8912 92.2935 30.45 92.2935C30.0087 92.2935 29.6569 92.1706 29.3776 91.9304C29.104 91.6903 28.9643 91.3496 28.9643 90.9251V88.3839H29.6066V90.9251C29.6066 91.1988 29.6848 91.411 29.8356 91.5618C29.992 91.7126 30.193 91.7852 30.4444 91.7852C30.7069 91.7852 30.9135 91.7126 31.0755 91.5618C31.2319 91.411 31.3156 91.1988 31.3156 90.9251V88.3839H31.9635Z" fill="#241A17"/>
<path d="M35.4096 88.9033H34.22V92.2432H33.5777V88.9033H32.4049V88.3839H35.4152V88.9033H35.4096Z" fill="#241A17"/>
<path d="M36.599 92.2432H35.9567V88.3839H36.599V92.2432Z" fill="#241A17"/>
<path d="M39.6594 90.6012H38.1012V92.2488H37.4589V88.3895H39.9275V88.9089H38.1012V90.0874H39.6594V90.6012Z" fill="#241A17"/>
<path d="M43.4127 88.3839V90.9251C43.4127 91.3552 43.273 91.6903 42.9882 91.9304C42.7033 92.1762 42.3403 92.2935 41.8991 92.2935C41.4579 92.2935 41.106 92.1706 40.8268 91.9304C40.5531 91.6903 40.4135 91.3496 40.4135 90.9251V88.3839H41.0558V90.9251C41.0558 91.1988 41.1339 91.411 41.2847 91.5618C41.4411 91.7126 41.6422 91.7852 41.8935 91.7852C42.156 91.7852 42.3627 91.7126 42.5246 91.5618C42.6866 91.411 42.7648 91.1988 42.7648 90.9251V88.3839H43.4127Z" fill="#241A17"/>
<path d="M44.8088 91.7294H46.6184V92.2432H44.1665V88.3839H44.8088V91.7294Z" fill="#241A17"/>
<path d="M51.3377 90.9809L51.3433 90.9977C51.3489 91.3886 51.226 91.7014 50.9635 91.9415C50.701 92.1817 50.3547 92.299 49.9135 92.299C49.4667 92.299 49.0981 92.1482 48.8188 91.8466C48.5396 91.545 48.3999 91.1541 48.3999 90.6849V89.9477C48.3999 89.4785 48.5396 89.0932 48.8132 88.786C49.0869 88.4788 49.4499 88.328 49.8911 88.328C50.3435 88.328 50.701 88.4453 50.9635 88.6743C51.226 88.9033 51.3489 89.2216 51.3433 89.6237L51.3377 89.6405H50.7177C50.7177 89.3836 50.6507 89.1825 50.5055 89.0485C50.3659 88.9089 50.1592 88.8418 49.8911 88.8418C49.6286 88.8418 49.422 88.948 49.2712 89.1546C49.1204 89.3612 49.0422 89.6237 49.0422 89.9421V90.6793C49.0422 90.9977 49.1204 91.2602 49.2768 91.4724C49.4332 91.679 49.6454 91.7852 49.9135 91.7852C50.176 91.7852 50.377 91.7181 50.5111 91.5785C50.6507 91.4389 50.7177 91.2434 50.7177 90.9809H51.3377Z" fill="#241A17"/>
<path d="M54.9068 88.3839V90.9251C54.9068 91.3552 54.7672 91.6903 54.4824 91.9304C54.2031 92.1762 53.8345 92.2935 53.3933 92.2935C52.9521 92.2935 52.6002 92.1706 52.3209 91.9304C52.0473 91.6903 51.9076 91.3496 51.9076 90.9251V88.3839H52.5499V90.9251C52.5499 91.1988 52.6281 91.411 52.7789 91.5618C52.9353 91.7126 53.1364 91.7852 53.3877 91.7852C53.6502 91.7852 53.8624 91.7126 54.0188 91.5618C54.1752 91.411 54.259 91.1988 54.259 90.9251V88.3839H54.9068Z" fill="#241A17"/>
<path d="M56.3085 91.7294H58.1181V92.2432H55.6663V88.3839H56.3085V91.7294Z" fill="#241A17"/>
<path d="M60.8102 88.9033H59.6206V92.2432H58.9783V88.9033H57.8054V88.3839H60.8158V88.9033H60.8102Z" fill="#241A17"/>
<path d="M64.2505 88.3839V90.9251C64.2505 91.3552 64.1109 91.6903 63.8261 91.9304C63.5468 92.1762 63.1782 92.2935 62.737 92.2935C62.3013 92.2935 61.9439 92.1706 61.6646 91.9304C61.391 91.6903 61.2513 91.3496 61.2513 90.9251V88.3839H61.8936V90.9251C61.8936 91.1988 61.9718 91.411 62.1226 91.5618C62.279 91.7126 62.4801 91.7852 62.7314 91.7852C62.9939 91.7852 63.2005 91.7126 63.3625 91.5618C63.5245 91.411 63.6026 91.1988 63.6026 90.9251V88.3839H64.2505Z" fill="#241A17"/>
<path d="M65.6468 90.6459V92.2488H65.0046V88.3895H66.3338C66.7638 88.3895 67.0934 88.4845 67.3279 88.68C67.5625 88.8754 67.6798 89.1491 67.6798 89.5121C67.6798 89.7132 67.6295 89.8807 67.5234 90.026C67.4173 90.1712 67.2721 90.2829 67.071 90.3722C67.2888 90.4393 67.4452 90.551 67.5402 90.7073C67.6351 90.8637 67.6854 91.0536 67.6854 91.2826V91.6009C67.6854 91.7126 67.7021 91.8244 67.7301 91.9305C67.758 92.0366 67.8027 92.1204 67.8697 92.1762V92.2376H67.2051C67.1325 92.1818 67.0878 92.0869 67.071 91.964C67.0487 91.8411 67.0431 91.7182 67.0431 91.5954V91.2882C67.0431 91.0871 66.9873 90.9307 66.87 90.8135C66.7583 90.6962 66.6019 90.6403 66.4064 90.6403H65.6468V90.6459ZM65.6468 90.1265H66.2947C66.5516 90.1265 66.7415 90.0762 66.8588 89.9757C66.9761 89.8752 67.0375 89.7244 67.0375 89.5233C67.0375 89.3278 66.9817 89.177 66.8644 89.0653C66.7471 88.9536 66.5684 88.8978 66.3338 88.8978H65.6524V90.1265H65.6468Z" fill="#241A17"/>
<path d="M70.6063 90.5062H69.0928V91.7294H70.8744V92.2432H68.4505V88.3839H70.8577V88.9033H69.0928V89.9924H70.6063V90.5062Z" fill="#241A17"/>
<path d="M45.0156 13.3986C30.7346 13.3986 19.1567 24.9764 19.1567 39.2575C19.1567 53.5441 30.7346 65.1219 45.0156 65.1219C59.2967 65.1219 70.8801 53.5441 70.8801 39.2575C70.8801 24.9764 59.3022 13.3986 45.0156 13.3986ZM44.9598 57.5821C34.8396 57.5821 26.6407 49.3776 26.6407 39.263C26.6407 29.1429 34.8452 20.944 44.9598 20.944C55.0799 20.944 63.2788 29.1485 63.2788 39.263C63.2788 49.3776 55.0799 57.5821 44.9598 57.5821Z" fill="#96D600"/>
<path d="M53.6334 8.54516C57.3977 4.67471 57.1129 0.00558404 57.1129 0.00558404C57.1129 0.00558404 52.2762 -0.27367 48.4783 3.63588C44.714 7.50634 44.9988 12.1755 44.9988 12.1755C44.9988 12.1755 49.8355 12.4547 53.6334 8.54516Z" fill="#96D600"/>
<path d="M37.4537 84.72C34.879 84.72 32.7846 82.6088 32.7846 80.0062C32.7846 77.4035 34.8734 75.2924 37.4537 75.2924C40.0285 75.2924 42.1173 77.4035 42.1173 80.0062C42.1173 82.6088 40.0285 84.72 37.4537 84.72ZM37.4537 73.9128C34.125 73.9128 31.4274 76.6384 31.4274 80.0062C31.4274 83.374 34.125 86.0995 37.4537 86.0995C40.788 86.0995 43.4856 83.374 43.4856 80.0062C43.4856 76.6384 40.788 73.9128 37.4537 73.9128Z" fill="#241A17"/>
<path d="M0.000160217 74.2203V85.6586H6.8698V84.2511H1.56398V74.2203H0.000160217Z" fill="#241A17"/>
<path d="M10.3046 74.2258H8.73521V85.6641H10.3046V74.2258Z" fill="#241A17"/>
<path d="M19.0843 74.2203L17.0569 84.4522H17.0011L14.9681 74.2203H12.17V85.6586H13.7561V75.1084L15.884 85.6586H18.1683L20.2963 75.1084V85.6586H21.8824V74.2203H19.0843Z" fill="#241A17"/>
<path d="M23.4909 74.2203V85.6586H30.3549V84.2958H25.0547V80.4645H30.3214V79.1017H25.0547V75.5831H30.3549V74.2203H23.4909Z" fill="#241A17"/>
<path d="M46.3115 79.1352H48.7857H49.0259C49.1487 79.1352 49.2828 79.1296 49.4392 79.1129C49.59 79.0961 49.7407 79.0682 49.8971 79.0291C50.0423 78.9956 50.1764 78.9453 50.2825 78.8839C50.3384 78.8504 50.4054 78.8057 50.4947 78.7331C50.5785 78.6661 50.6679 78.5711 50.7517 78.4482C50.8298 78.331 50.9024 78.1857 50.9639 78.0182C51.0197 77.8506 51.0477 77.644 51.0477 77.4094C51.0477 76.9514 50.9583 76.5996 50.7796 76.3538C50.6009 76.1081 50.3942 75.9294 50.154 75.8177C49.9083 75.7004 49.6681 75.6334 49.4112 75.6166C49.1543 75.5943 48.9477 75.5831 48.7913 75.5831H46.3171V79.1352H46.3115ZM44.7924 74.2203H48.8416C48.9868 74.2203 49.1655 74.2259 49.3721 74.2315C49.5844 74.2371 49.8078 74.2538 50.0479 74.2874C50.2881 74.3153 50.5338 74.3711 50.7684 74.4437C51.0086 74.5219 51.2376 74.6225 51.4442 74.7565C51.8742 75.0358 52.1926 75.3764 52.3937 75.7786C52.6003 76.1863 52.7008 76.6219 52.7008 77.0855C52.7008 77.4876 52.6282 77.8618 52.483 78.2081C52.3434 78.5599 52.1479 78.8615 51.8966 79.1129C51.6564 79.3586 51.4219 79.5262 51.1873 79.6267C50.9527 79.7272 50.7461 79.8054 50.5673 79.8557C50.841 79.9339 51.0756 80.0232 51.2711 80.1293C51.4721 80.2355 51.6341 80.3695 51.7737 80.5315C51.9078 80.6934 52.0195 80.9001 52.1032 81.1514C52.187 81.3972 52.2485 81.7043 52.2875 82.0618C52.3322 82.3969 52.3657 82.7152 52.4048 83.0112C52.4383 83.3073 52.483 83.5977 52.5333 83.8825C52.5891 84.1674 52.6506 84.4578 52.712 84.7426C52.779 85.033 52.874 85.3402 52.9913 85.653H51.3157C51.2543 85.4631 51.1985 85.2397 51.1426 84.9828C51.0868 84.7203 51.0421 84.4578 50.9974 84.1785C50.9583 83.9049 50.9192 83.6312 50.8913 83.3631C50.8578 83.0894 50.8243 82.8493 50.7963 82.6259C50.7461 82.2126 50.679 81.8719 50.5953 81.5926C50.5115 81.319 50.3774 81.1011 50.1987 80.9392C50.0256 80.7772 49.7854 80.6599 49.4783 80.5929C49.1767 80.5259 48.7913 80.4868 48.3221 80.4868H46.3506V85.653H44.7924V74.2203Z" fill="#241A17"/>
<path d="M58.1073 75.5663H58.1408L59.9616 81.6652H56.3313L58.1073 75.5663ZM57.264 74.2203L53.6728 85.6586H55.1305L55.9794 82.9331H60.3581L61.1735 85.6586H62.7876L59.0959 74.2203H57.264Z" fill="#241A17"/>
<path d="M70.0593 74.2203V84.011H70.0258L65.6192 74.2203H63.5806V85.6586H64.8708V75.7451H64.8987L69.3668 85.6586H71.3439V74.2203H70.0593Z" fill="#241A17"/>
<path d="M80.1402 77.0685C80.062 76.5324 79.8331 76.1023 79.4477 75.7672C79.0623 75.4433 78.5206 75.2813 77.8168 75.2813C77.3309 75.2813 76.8897 75.3595 76.4932 75.5103C76.1022 75.6611 75.7671 75.9068 75.4879 76.2475C75.2589 76.5212 75.0802 76.8172 74.9349 77.1355C74.7897 77.4539 74.678 77.7667 74.5998 78.0906C74.5161 78.4145 74.4658 78.7329 74.4379 79.0456C74.4099 79.364 74.3932 79.6544 74.3932 79.9169C74.3932 80.1627 74.4044 80.4363 74.4379 80.7491C74.4658 81.0563 74.5105 81.3802 74.5831 81.7041C74.6557 82.0281 74.7506 82.352 74.8623 82.6592C74.9852 82.972 75.136 83.2512 75.3259 83.5081C75.499 83.7204 75.6889 83.8991 75.9012 84.0443C76.1078 84.1951 76.3312 84.3124 76.5602 84.3961C76.7948 84.4799 77.0349 84.5414 77.2918 84.5805C77.5488 84.614 77.8057 84.6363 78.0626 84.6363C78.649 84.6363 79.1293 84.5916 79.5035 84.4967C79.8722 84.4017 80.1402 84.3235 80.3022 84.2733V80.8831H77.9453V79.5706H81.7264V85.206C81.5756 85.2618 81.3801 85.3233 81.1511 85.407C80.9166 85.4852 80.6429 85.5634 80.3301 85.636C80.0118 85.7142 79.6711 85.7701 79.2857 85.8259C78.9059 85.8818 78.4982 85.9097 78.0626 85.9097C77.1075 85.9097 76.3424 85.7757 75.7504 85.5076C75.1639 85.2339 74.6892 84.8988 74.3206 84.4855C73.8068 83.9158 73.4381 83.2512 73.2203 82.4916C72.9969 81.7321 72.8852 80.9446 72.8852 80.1291C72.8852 79.8443 72.9076 79.4757 72.9578 79.0289C73.0025 78.5765 73.103 78.1018 73.2538 77.5991C73.4046 77.102 73.628 76.605 73.9296 76.1191C74.2256 75.6332 74.611 75.2031 75.0969 74.8345C75.3538 74.6446 75.6275 74.4938 75.9068 74.3877C76.186 74.2816 76.4541 74.2034 76.7222 74.1419C76.9847 74.0805 77.2248 74.047 77.4426 74.0358C77.6549 74.0247 77.8392 74.0247 77.9676 74.0247C78.1743 74.0247 78.3921 74.0358 78.649 74.0582C78.9004 74.0749 79.1573 74.1308 79.4253 74.2146C79.6934 74.2983 79.9559 74.4212 80.2296 74.5888C80.4977 74.7563 80.7602 74.9685 81.0003 75.2478C81.1567 75.4265 81.274 75.5997 81.369 75.7672C81.4583 75.9348 81.5253 76.1023 81.57 76.2587C81.6147 76.4207 81.6426 76.5659 81.6538 76.6999C81.665 76.834 81.6817 76.9568 81.6929 77.0629H80.1402V77.0685Z" fill="#241A17"/>
<path d="M83.2064 74.2203V85.6586H90.0314V84.2958H84.7703V80.4645H90.037V79.1017H84.7703V75.5831H90.0091V74.2203H83.2064Z" fill="#241A17"/>
</g>
<defs>
<clipPath id="clip0_0_66">
<rect width="90.037" height="92.2989" fill="white"/>
</clipPath>
</defs>
</svg>
