<svg width="99" height="43" viewBox="0 0 99 43" fill="none" xmlns="http://www.w3.org/2000/svg">
<path d="M16.3425 18L15.11 14.3584H9.97445L8.74191 18H6.5663L11.4311 4.52615H13.6907L18.5555 18H16.3425ZM12.5142 6.76712L10.5067 12.6777H14.5778L12.5702 6.76712H12.5142ZM23.6444 9.62436C22.2344 9.62436 21.2447 10.6982 21.142 12.1828H26.0534C26.0067 10.6795 25.0543 9.62436 23.6444 9.62436ZM26.0441 15.1147H27.9583C27.6781 16.9075 25.9787 18.1867 23.7284 18.1867C20.8432 18.1867 19.0971 16.2352 19.0971 13.1352C19.0971 10.0539 20.8712 7.99966 23.6444 7.99966C26.3709 7.99966 28.0703 9.92316 28.0703 12.9018V13.5928H21.1326V13.7141C21.1326 15.4229 22.1597 16.5527 23.7751 16.5527C24.9236 16.5527 25.7733 15.9738 26.0441 15.1147ZM33.8595 18.1867C31.0489 18.1867 29.2001 16.2539 29.2001 13.0885C29.2001 9.9325 31.0583 7.99966 33.8595 7.99966C36.6607 7.99966 38.5188 9.9325 38.5188 13.0885C38.5188 16.2539 36.67 18.1867 33.8595 18.1867ZM33.8595 16.5247C35.4468 16.5247 36.4646 15.2735 36.4646 13.0885C36.4646 10.9129 35.4375 9.66171 33.8595 9.66171C32.2815 9.66171 31.2544 10.9129 31.2544 13.0885C31.2544 15.2735 32.2815 16.5247 33.8595 16.5247ZM40.0782 18V8.17707H42.0017V9.82045H42.0484C42.5806 8.69996 43.6264 8.00899 45.1391 8.00899C47.3053 8.00899 48.5472 9.39093 48.5472 11.6412V18H46.521V12.0334C46.521 10.5581 45.83 9.74575 44.4294 9.74575C43.0101 9.74575 42.0951 10.7542 42.0951 12.2762V18H40.0782ZM54.3831 18V8.17707H56.3066V9.82978H56.3533C56.7921 8.73731 57.8192 8.00899 59.1451 8.00899C60.5084 8.00899 61.4982 8.7093 61.8903 9.9325H61.937C62.4412 8.73731 63.5991 8.00899 64.9997 8.00899C66.9419 8.00899 68.2117 9.29755 68.2117 11.2491V18H66.1855V11.7346C66.1855 10.4647 65.5039 9.73641 64.3087 9.73641C63.1135 9.73641 62.2825 10.6235 62.2825 11.8653V18H60.303V11.5852C60.303 10.4554 59.584 9.73641 58.4448 9.73641C57.2496 9.73641 56.3999 10.6701 56.3999 11.9307V18H54.3831ZM73.5994 16.5714C75.0094 16.5714 76.1112 15.6003 76.1112 14.3211V13.5461L73.6928 13.6955C72.4883 13.7795 71.8066 14.3117 71.8066 15.1521C71.8066 16.0111 72.5163 16.5714 73.5994 16.5714ZM73.0392 18.1681C71.1157 18.1681 69.7711 16.9729 69.7711 15.2081C69.7711 13.49 71.0877 12.4349 73.422 12.3042L76.1112 12.1455V11.3891C76.1112 10.2967 75.3735 9.64304 74.141 9.64304C72.9738 9.64304 72.2455 10.2033 72.0681 11.081H70.1633C70.2753 9.30689 71.788 7.99966 74.2157 7.99966C76.5967 7.99966 78.1187 9.2602 78.1187 11.2304V18H76.1859V16.3846H76.1392C75.5696 17.4771 74.3277 18.1681 73.0392 18.1681ZM80.1543 18V4.52615H82.1711V18H80.1543ZM84.3187 18V4.52615H86.3356V18H84.3187Z" fill="#8C8C8C"/>
<path d="M16.975 26.9324H20.0538V22.2281H21.641V34.7154H20.0538V28.2136H16.975V26.9324ZM18.4284 30.2789L18.5814 31.5601C17.0515 31.9043 15.7894 31.9426 13.9153 31.9426H13.0357V23.6432H17.7973V24.9053H14.5847V30.6614C16.038 30.6422 17.128 30.5849 18.4284 30.2789ZM12.3281 30.298L12.462 31.5793C10.913 31.9426 9.65093 31.9426 8.56092 31.9426H7.796V23.6432H12.1178V24.9053H9.34496V30.6614C10.1864 30.6231 11.1999 30.5466 12.3281 30.298ZM11.7353 37.6986H22.0617V38.9798H10.1672V33.6637H11.7353V37.6986ZM34.8153 29.1124V24.4464H30.5508V29.1124H34.8153ZM28.9828 29.1124V24.4464H26.4012V23.1651H38.9649V24.4464H36.3833V29.1124H38.9076V30.3936H26.4585V29.1124H28.9828ZM40.4565 32.3824V33.6637H33.4767V39.3623H31.8894V33.6637H24.9096V32.3824H40.4565ZM52.6364 30.4701L51.8523 31.694C49.94 31.0056 48.4676 29.5713 47.7218 27.812C46.976 29.7817 45.4079 31.3498 43.4 32.0765L42.5777 30.8526C45.1211 29.9347 46.8995 27.659 46.8995 25.2304V24.5802H43.0749V23.299H52.2348V24.5802H48.4676V25.2113C48.4676 27.4487 50.1504 29.5905 52.6364 30.4701ZM47.0333 34.333V37.8707H55.1224V34.333H47.0333ZM45.5035 39.1328V33.09H56.6522V39.1328H45.5035ZM55.065 22.209H56.6522V32.2486H55.065V27.812H51.6802V26.5117H55.065V22.209ZM73.0989 26.9515H76.541V22.2281H78.1282V34.7919H76.541V28.2327H73.0989V26.9515ZM74.1124 30.9864L73.3283 32.2103C71.416 31.5219 69.9436 30.0877 69.1978 28.3283C68.452 30.2789 66.8839 31.8661 64.876 32.5928L64.0537 31.3689C66.597 30.451 68.3755 28.1754 68.3755 25.7467V24.8862H64.5509V23.605H73.7108V24.8862H69.9436V25.7276C69.9436 27.965 71.6264 30.1068 74.1124 30.9864ZM68.7388 37.6986H78.6063V38.9798H67.1516V33.6828H68.7388V37.6986ZM94.1326 26.6455H89.8491C88.74 29.3992 86.1392 31.4071 82.4485 32.478L81.8174 31.235C85.9098 30.0112 88.4531 27.7355 88.74 24.7715H82.6971V23.5094H90.4419C90.4419 24.1404 90.3654 24.7715 90.2507 25.3643H94.1326V22.2281H95.7198V32.478H94.1326V30.2215H89.6387V28.9403H94.1326V26.6455ZM90.1168 38.0619C92.641 38.0619 94.2474 37.2779 94.2474 35.9775C94.2474 34.6963 92.641 33.9123 90.1168 33.9123C87.5926 33.9123 85.9862 34.6963 85.9862 35.9775C85.9862 37.2779 87.5926 38.0619 90.1168 38.0619ZM90.1168 32.6693C93.5781 32.6693 95.7963 33.9123 95.7963 35.9775C95.7963 38.0428 93.5781 39.2858 90.1168 39.2858C86.6555 39.2858 84.4373 38.0428 84.4373 35.9775C84.4373 33.9123 86.6555 32.6693 90.1168 32.6693Z" fill="#8C8C8C"/>
<rect y="1.26471" width="1.26471" height="41.7353" fill="#8C8C8C"/>
</svg>
