<svg width="228" height="64" viewBox="0 0 228 64" fill="none" xmlns="http://www.w3.org/2000/svg">
<path fill-rule="evenodd" clip-rule="evenodd" d="M95.4655 11.6495H94.6207H86.3947V14.5841H94.0871C92.8866 17.6967 89.9074 19.9199 86.3503 19.9199C81.7704 19.9199 78.0798 16.2293 78.0798 11.6495C78.0798 7.06963 81.7704 3.37907 86.3503 3.37907C89.1071 3.37907 91.5082 4.713 93.0199 6.75838L95.7323 4.75747C93.598 1.86727 90.2187 -0.000244141 86.3503 -0.000244141C79.9029 -0.000244141 74.7005 5.20212 74.7005 11.6495C74.7005 18.0969 79.9029 23.2992 86.3503 23.2992C91.9528 23.2992 96.6216 19.3419 97.7332 14.095C97.9111 13.2947 98 12.4943 98 11.6939H95.4655V11.6495Z" fill="black"/>
<path d="M61.1834 11.6051L53.4021 0.933594H50.3785V21.7875V22.3211H53.6689V5.69131L61.1834 16.096L68.6534 5.69131V22.3211H71.9438V0.933594H68.9202L61.1834 11.6051Z" fill="black"/>
<path fill-rule="evenodd" clip-rule="evenodd" d="M11.6497 0C5.20236 0 0 5.20236 0 11.6497C0 18.0971 5.20236 23.2995 11.6497 23.2995C18.0971 23.2995 23.2995 18.0971 23.2995 11.6497C23.2995 5.20236 18.0971 0 11.6497 0ZM11.6497 19.8757C7.06988 19.8757 3.37931 16.1851 3.37931 11.6053C3.37931 7.02541 7.06988 3.33485 11.6497 3.33485C16.2296 3.33485 19.9201 7.02541 19.9201 11.6053C19.9201 16.1851 16.2296 19.8757 11.6497 19.8757Z" fill="black"/>
<path fill-rule="evenodd" clip-rule="evenodd" d="M37.528 3.37907C40.2848 3.37907 42.6859 4.713 44.1977 6.75838L46.9101 4.75747C44.7758 1.86727 41.3965 -0.000244141 37.528 -0.000244141C31.0807 -0.000244141 25.8783 5.20212 25.8783 11.6495C25.8783 18.0969 31.0807 23.2992 37.528 23.2992C41.3965 23.2992 44.7758 21.4317 46.9101 18.5415L44.1977 16.5406C42.6859 18.586 40.2848 19.9199 37.528 19.9199C32.9482 19.9199 29.2576 16.2293 29.2576 11.6495C29.2576 7.06963 32.9482 3.37907 37.528 3.37907Z" fill="black"/>
<path d="M12.5049 52.4458V53.1489C12.5049 54.1157 12.3789 54.9829 12.127 55.7505C11.875 56.5181 11.5146 57.1714 11.0459 57.7104C10.583 58.2495 10.0264 58.6626 9.37598 58.9497C8.72559 59.231 8.00488 59.3716 7.21387 59.3716C6.42871 59.3716 5.71094 59.231 5.06055 58.9497C4.41602 58.6626 3.85645 58.2495 3.38184 57.7104C2.90723 57.1714 2.53809 56.5181 2.27441 55.7505C2.0166 54.9829 1.8877 54.1157 1.8877 53.1489V52.4458C1.8877 51.479 2.0166 50.6147 2.27441 49.853C2.53223 49.0854 2.89551 48.4321 3.36426 47.8931C3.83887 47.3481 4.39844 46.9351 5.04297 46.6538C5.69336 46.3667 6.41113 46.2231 7.19629 46.2231C7.9873 46.2231 8.70801 46.3667 9.3584 46.6538C10.0088 46.9351 10.5684 47.3481 11.0371 47.8931C11.5059 48.4321 11.8662 49.0854 12.1182 49.853C12.376 50.6147 12.5049 51.479 12.5049 52.4458ZM10.2988 53.1489V52.4282C10.2988 51.7134 10.2285 51.0835 10.0879 50.5386C9.95312 49.9878 9.75098 49.5278 9.48145 49.1587C9.21777 48.7837 8.89258 48.5024 8.50586 48.3149C8.11914 48.1216 7.68262 48.0249 7.19629 48.0249C6.70996 48.0249 6.27637 48.1216 5.89551 48.3149C5.51465 48.5024 5.18945 48.7837 4.91992 49.1587C4.65625 49.5278 4.4541 49.9878 4.31348 50.5386C4.17285 51.0835 4.10254 51.7134 4.10254 52.4282V53.1489C4.10254 53.8638 4.17285 54.4966 4.31348 55.0474C4.4541 55.5981 4.65918 56.064 4.92871 56.4448C5.2041 56.8198 5.53223 57.104 5.91309 57.2974C6.29395 57.4849 6.72754 57.5786 7.21387 57.5786C7.70605 57.5786 8.14258 57.4849 8.52344 57.2974C8.9043 57.104 9.22656 56.8198 9.49023 56.4448C9.75391 56.064 9.95312 55.5981 10.0879 55.0474C10.2285 54.4966 10.2988 53.8638 10.2988 53.1489ZM16.917 46.3989V59.1958H14.7109V46.3989H16.917ZM24.6074 46.3989L19.4219 52.5601L16.4688 55.689L16.082 53.5005L18.1914 50.8989L21.918 46.3989H24.6074ZM22.2344 59.1958L18.0244 53.1313L19.5449 51.6284L24.8535 59.1958H22.2344ZM38.125 55.0298H40.3223C40.252 55.8677 40.0176 56.6147 39.6191 57.271C39.2207 57.9214 38.6611 58.4341 37.9404 58.8091C37.2197 59.1841 36.3438 59.3716 35.3125 59.3716C34.5215 59.3716 33.8096 59.231 33.1768 58.9497C32.5439 58.6626 32.002 58.2583 31.5508 57.7368C31.0996 57.2095 30.7539 56.5737 30.5137 55.8296C30.2793 55.0854 30.1621 54.2534 30.1621 53.3335V52.27C30.1621 51.3501 30.2822 50.5181 30.5225 49.7739C30.7686 49.0298 31.1201 48.394 31.5771 47.8667C32.0342 47.3335 32.582 46.9263 33.2207 46.645C33.8652 46.3638 34.5889 46.2231 35.3916 46.2231C36.4111 46.2231 37.2725 46.4106 37.9756 46.7856C38.6787 47.1606 39.2236 47.6792 39.6104 48.3413C40.0029 49.0034 40.2432 49.7622 40.3311 50.6177H38.1338C38.0752 50.0669 37.9463 49.5952 37.7471 49.2026C37.5537 48.8101 37.2666 48.5112 36.8857 48.3062C36.5049 48.0952 36.0068 47.9897 35.3916 47.9897C34.8877 47.9897 34.4482 48.0835 34.0732 48.271C33.6982 48.4585 33.3848 48.7339 33.1328 49.0972C32.8809 49.4604 32.6904 49.9087 32.5615 50.4419C32.4385 50.9692 32.377 51.5728 32.377 52.2524V53.3335C32.377 53.978 32.4326 54.564 32.5439 55.0913C32.6611 55.6128 32.8369 56.061 33.0713 56.436C33.3115 56.811 33.6162 57.1011 33.9854 57.3062C34.3545 57.5112 34.7969 57.6138 35.3125 57.6138C35.9395 57.6138 36.4463 57.5142 36.833 57.3149C37.2256 57.1157 37.5215 56.8257 37.7207 56.4448C37.9258 56.0581 38.0605 55.5864 38.125 55.0298ZM49.5068 46.3989H51.7041V54.9507C51.7041 55.9233 51.4932 56.7378 51.0713 57.394C50.6494 58.0503 50.0752 58.5454 49.3486 58.8794C48.6279 59.2075 47.8223 59.3716 46.9316 59.3716C46.0117 59.3716 45.1914 59.2075 44.4707 58.8794C43.75 58.5454 43.1816 58.0503 42.7656 57.394C42.3555 56.7378 42.1504 55.9233 42.1504 54.9507V46.3989H44.3477V54.9507C44.3477 55.5659 44.4531 56.0728 44.6641 56.4712C44.875 56.8638 45.1738 57.1538 45.5605 57.3413C45.9473 57.5288 46.4043 57.6226 46.9316 57.6226C47.459 57.6226 47.9131 57.5288 48.2939 57.3413C48.6807 57.1538 48.9795 56.8638 49.1904 56.4712C49.4014 56.0728 49.5068 55.5659 49.5068 54.9507V46.3989ZM62.1191 57.4468V59.1958H55.6943V57.4468H62.1191ZM56.3096 46.3989V59.1958H54.1035V46.3989H56.3096ZM66.8916 46.3989V59.1958H64.7031V46.3989H66.8916ZM70.9082 46.3989V48.1567H60.7217V46.3989H70.9082ZM79.7764 46.3989H81.9736V54.9507C81.9736 55.9233 81.7627 56.7378 81.3408 57.394C80.9189 58.0503 80.3447 58.5454 79.6182 58.8794C78.8975 59.2075 78.0918 59.3716 77.2012 59.3716C76.2812 59.3716 75.4609 59.2075 74.7402 58.8794C74.0195 58.5454 73.4512 58.0503 73.0352 57.394C72.625 56.7378 72.4199 55.9233 72.4199 54.9507V46.3989H74.6172V54.9507C74.6172 55.5659 74.7227 56.0728 74.9336 56.4712C75.1445 56.8638 75.4434 57.1538 75.8301 57.3413C76.2168 57.5288 76.6738 57.6226 77.2012 57.6226C77.7285 57.6226 78.1826 57.5288 78.5635 57.3413C78.9502 57.1538 79.249 56.8638 79.46 56.4712C79.6709 56.0728 79.7764 55.5659 79.7764 54.9507V46.3989ZM84.373 46.3989H88.8994C89.8721 46.3989 90.7012 46.5454 91.3867 46.8384C92.0723 47.1313 92.5967 47.5649 92.96 48.1392C93.3291 48.7075 93.5137 49.4106 93.5137 50.2485C93.5137 50.8872 93.3965 51.4497 93.1621 51.936C92.9277 52.4224 92.5967 52.8325 92.1689 53.1665C91.7412 53.4946 91.2314 53.7495 90.6396 53.9312L89.9717 54.2563H85.9023L85.8848 52.5073H88.9346C89.4619 52.5073 89.9014 52.4136 90.2529 52.2261C90.6045 52.0386 90.8682 51.7837 91.0439 51.4614C91.2256 51.1333 91.3164 50.7642 91.3164 50.354C91.3164 49.9087 91.2285 49.522 91.0527 49.1938C90.8828 48.8599 90.6191 48.605 90.2617 48.4292C89.9043 48.2476 89.4502 48.1567 88.8994 48.1567H86.5791V59.1958H84.373V46.3989ZM91.6768 59.1958L88.6709 53.4478L90.9824 53.439L94.0322 59.0815V59.1958H91.6768ZM104.087 57.4468V59.1958H97.293V57.4468H104.087ZM97.917 46.3989V59.1958H95.7109V46.3989H97.917ZM103.199 51.7427V53.4653H97.293V51.7427H103.199ZM104.043 46.3989V48.1567H97.293V46.3989H104.043ZM111.268 46.3989H113.236L116.937 56.269L120.628 46.3989H122.597L117.71 59.1958H116.146L111.268 46.3989ZM110.371 46.3989H112.243L112.568 54.9419V59.1958H110.371V46.3989ZM121.621 46.3989H123.502V59.1958H121.296V54.9419L121.621 46.3989ZM134.497 57.4468V59.1958H127.703V57.4468H134.497ZM128.327 46.3989V59.1958H126.121V46.3989H128.327ZM133.609 51.7427V53.4653H127.703V51.7427H133.609ZM134.453 46.3989V48.1567H127.703V46.3989H134.453ZM140.017 59.1958H137.283L137.301 57.4468H140.017C140.808 57.4468 141.47 57.2739 142.003 56.9282C142.542 56.5825 142.946 56.0874 143.216 55.4429C143.491 54.7983 143.629 54.0308 143.629 53.1401V52.4458C143.629 51.7544 143.55 51.1421 143.392 50.6089C143.239 50.0757 143.011 49.6274 142.706 49.2642C142.407 48.9009 142.038 48.6255 141.599 48.438C141.165 48.2505 140.664 48.1567 140.096 48.1567H137.23V46.3989H140.096C140.945 46.3989 141.722 46.5425 142.425 46.8296C143.128 47.1108 143.734 47.5181 144.244 48.0513C144.76 48.5845 145.155 49.2231 145.431 49.9673C145.706 50.7114 145.844 51.5435 145.844 52.4634V53.1401C145.844 54.0601 145.706 54.8921 145.431 55.6362C145.155 56.3804 144.76 57.019 144.244 57.5522C143.729 58.0796 143.113 58.4868 142.398 58.7739C141.689 59.0552 140.896 59.1958 140.017 59.1958ZM138.505 46.3989V59.1958H136.299V46.3989H138.505ZM150.414 46.3989V59.1958H148.208V46.3989H150.414ZM158.298 48.104L154.475 59.1958H152.163L156.979 46.3989H158.456L158.298 48.104ZM161.497 59.1958L157.665 48.104L157.498 46.3989H158.983L163.817 59.1958H161.497ZM161.312 54.4497V56.1987H154.352V54.4497H161.312ZM179.559 52.6567V57.5435C179.377 57.7837 179.093 58.0474 178.706 58.3345C178.325 58.6157 177.818 58.8589 177.186 59.064C176.553 59.269 175.765 59.3716 174.821 59.3716C174.019 59.3716 173.283 59.2368 172.615 58.9673C171.947 58.6919 171.37 58.2905 170.884 57.7632C170.403 57.2358 170.031 56.5942 169.768 55.8384C169.504 55.0767 169.372 54.2095 169.372 53.2368V52.3491C169.372 51.3823 169.492 50.521 169.732 49.7651C169.979 49.0034 170.33 48.3589 170.787 47.8315C171.244 47.3042 171.795 46.9058 172.439 46.6362C173.09 46.3608 173.825 46.2231 174.646 46.2231C175.694 46.2231 176.562 46.3989 177.247 46.7505C177.938 47.0962 178.472 47.5767 178.847 48.1919C179.222 48.8071 179.459 49.5103 179.559 50.3013H177.396C177.326 49.856 177.188 49.4575 176.983 49.106C176.784 48.7544 176.497 48.479 176.122 48.2798C175.753 48.0747 175.272 47.9722 174.681 47.9722C174.171 47.9722 173.723 48.0688 173.336 48.2622C172.949 48.4556 172.627 48.7397 172.369 49.1147C172.117 49.4897 171.927 49.9468 171.798 50.4858C171.669 51.0249 171.604 51.6401 171.604 52.3315V53.2368C171.604 53.9399 171.678 54.564 171.824 55.1089C171.977 55.6538 172.193 56.1138 172.475 56.4888C172.762 56.8638 173.11 57.1479 173.521 57.3413C173.931 57.5288 174.394 57.6226 174.909 57.6226C175.413 57.6226 175.826 57.5815 176.148 57.4995C176.471 57.4116 176.726 57.3091 176.913 57.1919C177.106 57.0688 177.256 56.9517 177.361 56.8403V54.3003H174.698V52.6567H179.559ZM182.002 46.3989H186.528C187.501 46.3989 188.33 46.5454 189.016 46.8384C189.701 47.1313 190.226 47.5649 190.589 48.1392C190.958 48.7075 191.143 49.4106 191.143 50.2485C191.143 50.8872 191.025 51.4497 190.791 51.936C190.557 52.4224 190.226 52.8325 189.798 53.1665C189.37 53.4946 188.86 53.7495 188.269 53.9312L187.601 54.2563H183.531L183.514 52.5073H186.563C187.091 52.5073 187.53 52.4136 187.882 52.2261C188.233 52.0386 188.497 51.7837 188.673 51.4614C188.854 51.1333 188.945 50.7642 188.945 50.354C188.945 49.9087 188.857 49.522 188.682 49.1938C188.512 48.8599 188.248 48.605 187.891 48.4292C187.533 48.2476 187.079 48.1567 186.528 48.1567H184.208V59.1958H182.002V46.3989ZM189.306 59.1958L186.3 53.4478L188.611 53.439L191.661 59.0815V59.1958H189.306ZM203.544 52.4458V53.1489C203.544 54.1157 203.418 54.9829 203.166 55.7505C202.914 56.5181 202.554 57.1714 202.085 57.7104C201.622 58.2495 201.065 58.6626 200.415 58.9497C199.765 59.231 199.044 59.3716 198.253 59.3716C197.468 59.3716 196.75 59.231 196.1 58.9497C195.455 58.6626 194.896 58.2495 194.421 57.7104C193.946 57.1714 193.577 56.5181 193.313 55.7505C193.056 54.9829 192.927 54.1157 192.927 53.1489V52.4458C192.927 51.479 193.056 50.6147 193.313 49.853C193.571 49.0854 193.935 48.4321 194.403 47.8931C194.878 47.3481 195.438 46.9351 196.082 46.6538C196.732 46.3667 197.45 46.2231 198.235 46.2231C199.026 46.2231 199.747 46.3667 200.397 46.6538C201.048 46.9351 201.607 47.3481 202.076 47.8931C202.545 48.4321 202.905 49.0854 203.157 49.853C203.415 50.6147 203.544 51.479 203.544 52.4458ZM201.338 53.1489V52.4282C201.338 51.7134 201.268 51.0835 201.127 50.5386C200.992 49.9878 200.79 49.5278 200.521 49.1587C200.257 48.7837 199.932 48.5024 199.545 48.3149C199.158 48.1216 198.722 48.0249 198.235 48.0249C197.749 48.0249 197.315 48.1216 196.935 48.3149C196.554 48.5024 196.229 48.7837 195.959 49.1587C195.695 49.5278 195.493 49.9878 195.353 50.5386C195.212 51.0835 195.142 51.7134 195.142 52.4282V53.1489C195.142 53.8638 195.212 54.4966 195.353 55.0474C195.493 55.5981 195.698 56.064 195.968 56.4448C196.243 56.8198 196.571 57.104 196.952 57.2974C197.333 57.4849 197.767 57.5786 198.253 57.5786C198.745 57.5786 199.182 57.4849 199.562 57.2974C199.943 57.104 200.266 56.8198 200.529 56.4448C200.793 56.064 200.992 55.5981 201.127 55.0474C201.268 54.4966 201.338 53.8638 201.338 53.1489ZM212.931 46.3989H215.128V54.9507C215.128 55.9233 214.917 56.7378 214.495 57.394C214.073 58.0503 213.499 58.5454 212.772 58.8794C212.052 59.2075 211.246 59.3716 210.355 59.3716C209.436 59.3716 208.615 59.2075 207.895 58.8794C207.174 58.5454 206.605 58.0503 206.189 57.394C205.779 56.7378 205.574 55.9233 205.574 54.9507V46.3989H207.771V54.9507C207.771 55.5659 207.877 56.0728 208.088 56.4712C208.299 56.8638 208.598 57.1538 208.984 57.3413C209.371 57.5288 209.828 57.6226 210.355 57.6226C210.883 57.6226 211.337 57.5288 211.718 57.3413C212.104 57.1538 212.403 56.8638 212.614 56.4712C212.825 56.0728 212.931 55.5659 212.931 54.9507V46.3989ZM222.388 54.4233H219.057V52.6743H222.388C222.968 52.6743 223.437 52.5806 223.794 52.3931C224.151 52.2056 224.412 51.9478 224.576 51.6196C224.746 51.2856 224.831 50.9048 224.831 50.4771C224.831 50.0728 224.746 49.6948 224.576 49.3433C224.412 48.9858 224.151 48.6987 223.794 48.4819C223.437 48.2651 222.968 48.1567 222.388 48.1567H219.733V59.1958H217.527V46.3989H222.388C223.378 46.3989 224.219 46.5747 224.91 46.9263C225.607 47.272 226.138 47.7524 226.501 48.3677C226.864 48.9771 227.046 49.6743 227.046 50.4595C227.046 51.2856 226.864 51.9946 226.501 52.5864C226.138 53.1782 225.607 53.6323 224.91 53.9487C224.219 54.2651 223.378 54.4233 222.388 54.4233Z" fill="#5B5B5B"/>
</svg>
