<svg width="303" height="17" viewBox="0 0 303 17" fill="none" xmlns="http://www.w3.org/2000/svg">
<path d="M10.091 13.9178V16H2.44238V13.9178H10.091ZM3.17481 0.765623V16H0.548549V0.765623H3.17481ZM14.9249 0.765623V16H12.2987V0.765623H14.9249ZM19.2567 0.765623H21.6004L26.0054 12.5158L30.4 0.765623H32.7437L26.9262 16H25.0638L19.2567 0.765623ZM18.1895 0.765623H20.4181L20.8052 10.9358V16H18.1895V0.765623ZM31.5823 0.765623H33.8214V16H31.1952V10.9358L31.5823 0.765623ZM46.9109 13.9178V16H38.8228V13.9178H46.9109ZM39.5657 0.765623V16H36.9395V0.765623H39.5657ZM45.8541 7.12723V9.17801H38.8228V7.12723H45.8541ZM46.8585 0.765623V2.85826H38.8228V0.765623H46.8585ZM61.2035 7.96428V8.80134C61.2035 9.95229 61.0536 10.9847 60.7536 11.8984C60.4537 12.8122 60.0247 13.59 59.4667 14.2317C58.9156 14.8735 58.2529 15.3652 57.4787 15.707C56.7044 16.0419 55.8464 16.2093 54.9047 16.2093C53.97 16.2093 53.1155 16.0419 52.3412 15.707C51.5739 15.3652 50.9078 14.8735 50.3428 14.2317C49.7778 13.59 49.3383 12.8122 49.0244 11.8984C48.7175 10.9847 48.564 9.95229 48.564 8.80134V7.96428C48.564 6.81334 48.7175 5.78446 49.0244 4.87765C49.3313 3.96387 49.7638 3.1861 50.3219 2.54436C50.8869 1.89565 51.553 1.40388 52.3203 1.06906C53.0946 0.727258 53.9491 0.55636 54.8838 0.55636C55.8255 0.55636 56.6835 0.727258 57.4577 1.06906C58.232 1.40388 58.8982 1.89565 59.4562 2.54436C60.0142 3.1861 60.4432 3.96387 60.7432 4.87765C61.0501 5.78446 61.2035 6.81334 61.2035 7.96428ZM58.5773 8.80134V7.94336C58.5773 7.09235 58.4936 6.34249 58.3262 5.69378C58.1657 5.03808 57.9251 4.49051 57.6042 4.05106C57.2903 3.60463 56.9032 3.26981 56.4428 3.04659C55.9824 2.8164 55.4628 2.70131 54.8838 2.70131C54.3048 2.70131 53.7886 2.8164 53.3352 3.04659C52.8818 3.26981 52.4947 3.60463 52.1738 4.05106C51.8599 4.49051 51.6193 5.03808 51.4519 5.69378C51.2845 6.34249 51.2008 7.09235 51.2008 7.94336V8.80134C51.2008 9.65234 51.2845 10.4057 51.4519 11.0614C51.6193 11.7171 51.8634 12.2716 52.1843 12.725C52.5121 13.1715 52.9028 13.5098 53.3562 13.74C53.8096 13.9632 54.3258 14.0748 54.9047 14.0748C55.4907 14.0748 56.0103 13.9632 56.4637 13.74C56.9171 13.5098 57.3008 13.1715 57.6147 12.725C57.9286 12.2716 58.1657 11.7171 58.3262 11.0614C58.4936 10.4057 58.5773 9.65234 58.5773 8.80134ZM63.8298 0.765623H69.2183C70.3763 0.765623 71.3633 0.94001 72.1794 1.28878C72.9955 1.63755 73.6198 2.15374 74.0523 2.83733C74.4918 3.51395 74.7115 4.351 74.7115 5.34849C74.7115 6.10882 74.572 6.77846 74.293 7.35742C74.014 7.93638 73.6198 8.42466 73.1106 8.82226C72.6014 9.21289 71.9946 9.51632 71.29 9.73256L70.4948 10.1197H65.6504L65.6295 8.03753H69.2602C69.888 8.03753 70.4111 7.92592 70.8297 7.70271C71.2482 7.47949 71.5621 7.17606 71.7714 6.79241C71.9876 6.40178 72.0957 5.96233 72.0957 5.47405C72.0957 4.94392 71.9911 4.48354 71.7818 4.09291C71.5795 3.69531 71.2656 3.39188 70.8401 3.18262C70.4146 2.96638 69.874 2.85826 69.2183 2.85826H66.4561V16H63.8298V0.765623ZM72.5247 16L68.9463 9.15709L71.6981 9.14662L75.3288 15.864V16H72.5247ZM83.2599 2.79548L78.7084 16H75.9566L81.6904 0.765623H83.4483L83.2599 2.79548ZM87.0685 16L82.5066 2.79548L82.3078 0.765623H84.076L89.8308 16H87.0685ZM86.8488 10.3499V12.4321H78.562V10.3499H86.8488ZM103.621 0.765623V16H100.995L94.1625 5.08691V16H91.5363V0.765623H94.1625L101.016 11.6996V0.765623H103.621ZM118.448 8.2154V14.0329C118.231 14.3189 117.893 14.6328 117.433 14.9746C116.979 15.3094 116.376 15.5989 115.623 15.8431C114.869 16.0872 113.931 16.2093 112.808 16.2093C111.852 16.2093 110.977 16.0488 110.182 15.728C109.386 15.4001 108.699 14.9223 108.12 14.2945C107.548 13.6667 107.105 12.9029 106.792 12.0031C106.478 11.0963 106.321 10.0639 106.321 8.90597V7.84919C106.321 6.69824 106.464 5.67285 106.75 4.77302C107.043 3.86621 107.461 3.09891 108.005 2.47112C108.549 1.84333 109.205 1.369 109.972 1.04813C110.747 0.720283 111.622 0.55636 112.599 0.55636C113.847 0.55636 114.88 0.765623 115.696 1.18415C116.519 1.5957 117.154 2.16769 117.6 2.90011C118.046 3.63253 118.329 4.46959 118.448 5.41127H115.874C115.79 4.88114 115.626 4.40681 115.382 3.98828C115.145 3.56975 114.803 3.24191 114.356 3.00474C113.917 2.7606 113.345 2.63853 112.641 2.63853C112.034 2.63853 111.5 2.75363 111.04 2.98382C110.579 3.21401 110.196 3.55231 109.889 3.99874C109.589 4.44517 109.362 4.98926 109.209 5.631C109.055 6.27274 108.978 7.00516 108.978 7.82826V8.90597C108.978 9.74302 109.066 10.4859 109.24 11.1346C109.421 11.7833 109.679 12.3309 110.014 12.7773C110.356 13.2238 110.771 13.5621 111.259 13.7923C111.748 14.0155 112.299 14.1271 112.913 14.1271C113.512 14.1271 114.004 14.0783 114.388 13.9806C114.772 13.876 115.075 13.7539 115.298 13.6144C115.528 13.4679 115.706 13.3284 115.832 13.1959V10.172H112.661V8.2154H118.448ZM131.328 13.9178V16H123.24V13.9178H131.328ZM123.983 0.765623V16H121.356V0.765623H123.983ZM130.271 7.12723V9.17801H123.24V7.12723H130.271ZM131.275 0.765623V2.85826H123.24V0.765623H131.275ZM147.807 11.0405H150.423C150.339 12.0379 150.06 12.9273 149.586 13.7086C149.112 14.4828 148.445 15.0932 147.587 15.5396C146.73 15.986 145.687 16.2093 144.459 16.2093C143.517 16.2093 142.67 16.0419 141.916 15.707C141.163 15.3652 140.518 14.8839 139.981 14.2631C139.444 13.6353 139.032 12.8785 138.746 11.9926C138.467 11.1067 138.328 10.1162 138.328 9.02107V7.75502C138.328 6.65988 138.471 5.66936 138.757 4.78348C139.05 3.8976 139.468 3.14076 140.012 2.51297C140.556 1.87821 141.208 1.39341 141.969 1.05859C142.736 0.723771 143.598 0.55636 144.553 0.55636C145.767 0.55636 146.792 0.779574 147.629 1.226C148.466 1.67243 149.115 2.28976 149.575 3.07798C150.043 3.86621 150.329 4.76953 150.433 5.78795H147.818C147.748 5.13225 147.594 4.57073 147.357 4.10337C147.127 3.63602 146.785 3.28027 146.332 3.03613C145.879 2.78502 145.286 2.65946 144.553 2.65946C143.953 2.65946 143.43 2.77106 142.984 2.99428C142.537 3.21749 142.164 3.54534 141.864 3.97782C141.564 4.41029 141.337 4.94392 141.184 5.57868C141.038 6.20647 140.964 6.92494 140.964 7.7341V9.02107C140.964 9.78836 141.031 10.4859 141.163 11.1137C141.303 11.7345 141.512 12.2681 141.791 12.7146C142.077 13.161 142.44 13.5063 142.879 13.7504C143.319 13.9946 143.845 14.1166 144.459 14.1166C145.205 14.1166 145.809 13.998 146.269 13.7609C146.736 13.5237 147.089 13.1784 147.326 12.725C147.57 12.2646 147.73 11.7031 147.807 11.0405ZM164.506 8.2154V14.0329C164.29 14.3189 163.952 14.6328 163.492 14.9746C163.038 15.3094 162.435 15.5989 161.681 15.8431C160.928 16.0872 159.99 16.2093 158.867 16.2093C157.911 16.2093 157.036 16.0488 156.241 15.728C155.445 15.4001 154.758 14.9223 154.179 14.2945C153.607 13.6667 153.164 12.9029 152.85 12.0031C152.537 11.0963 152.38 10.0639 152.38 8.90597V7.84919C152.38 6.69824 152.523 5.67285 152.809 4.77302C153.102 3.86621 153.52 3.09891 154.064 2.47112C154.608 1.84333 155.264 1.369 156.031 1.04813C156.806 0.720283 157.681 0.55636 158.658 0.55636C159.906 0.55636 160.938 0.765623 161.755 1.18415C162.578 1.5957 163.212 2.16769 163.659 2.90011C164.105 3.63253 164.388 4.46959 164.506 5.41127H161.932C161.849 4.88114 161.685 4.40681 161.441 3.98828C161.204 3.56975 160.862 3.24191 160.415 3.00474C159.976 2.7606 159.404 2.63853 158.699 2.63853C158.093 2.63853 157.559 2.75363 157.099 2.98382C156.638 3.21401 156.254 3.55231 155.948 3.99874C155.648 4.44517 155.421 4.98926 155.267 5.631C155.114 6.27274 155.037 7.00516 155.037 7.82826V8.90597C155.037 9.74302 155.124 10.4859 155.299 11.1346C155.48 11.7833 155.738 12.3309 156.073 12.7773C156.415 13.2238 156.83 13.5621 157.318 13.7923C157.807 14.0155 158.358 14.1271 158.971 14.1271C159.571 14.1271 160.063 14.0783 160.447 13.9806C160.83 13.876 161.134 13.7539 161.357 13.6144C161.587 13.4679 161.765 13.3284 161.891 13.1959V10.172H158.72V8.2154H164.506ZM181.75 11.0405H184.366C184.282 12.0379 184.003 12.9273 183.528 13.7086C183.054 14.4828 182.388 15.0932 181.53 15.5396C180.672 15.986 179.629 16.2093 178.402 16.2093C177.46 16.2093 176.612 16.0419 175.859 15.707C175.106 15.3652 174.46 14.8839 173.923 14.2631C173.386 13.6353 172.975 12.8785 172.689 11.9926C172.41 11.1067 172.27 10.1162 172.27 9.02107V7.75502C172.27 6.65988 172.413 5.66936 172.699 4.78348C172.992 3.8976 173.411 3.14076 173.955 2.51297C174.499 1.87821 175.151 1.39341 175.911 1.05859C176.679 0.723771 177.54 0.55636 178.496 0.55636C179.709 0.55636 180.735 0.779574 181.572 1.226C182.409 1.67243 183.058 2.28976 183.518 3.07798C183.985 3.86621 184.271 4.76953 184.376 5.78795H181.76C181.69 5.13225 181.537 4.57073 181.3 4.10337C181.07 3.63602 180.728 3.28027 180.274 3.03613C179.821 2.78502 179.228 2.65946 178.496 2.65946C177.896 2.65946 177.373 2.77106 176.926 2.99428C176.48 3.21749 176.107 3.54534 175.807 3.97782C175.507 4.41029 175.28 4.94392 175.127 5.57868C174.98 6.20647 174.907 6.92494 174.907 7.7341V9.02107C174.907 9.78836 174.973 10.4859 175.106 11.1137C175.245 11.7345 175.454 12.2681 175.733 12.7146C176.019 13.161 176.382 13.5063 176.822 13.7504C177.261 13.9946 177.788 14.1166 178.402 14.1166C179.148 14.1166 179.751 13.998 180.212 13.7609C180.679 13.5237 181.031 13.1784 181.268 12.725C181.513 12.2646 181.673 11.7031 181.75 11.0405ZM198.899 7.96428V8.80134C198.899 9.95229 198.749 10.9847 198.449 11.8984C198.149 12.8122 197.72 13.59 197.162 14.2317C196.611 14.8735 195.948 15.3652 195.174 15.707C194.4 16.0419 193.542 16.2093 192.6 16.2093C191.665 16.2093 190.811 16.0419 190.037 15.707C189.269 15.3652 188.603 14.8735 188.038 14.2317C187.473 13.59 187.034 12.8122 186.72 11.8984C186.413 10.9847 186.259 9.95229 186.259 8.80134V7.96428C186.259 6.81334 186.413 5.78446 186.72 4.87765C187.027 3.96387 187.459 3.1861 188.017 2.54436C188.582 1.89565 189.248 1.40388 190.016 1.06906C190.79 0.727258 191.644 0.55636 192.579 0.55636C193.521 0.55636 194.379 0.727258 195.153 1.06906C195.927 1.40388 196.593 1.89565 197.152 2.54436C197.71 3.1861 198.139 3.96387 198.439 4.87765C198.745 5.78446 198.899 6.81334 198.899 7.96428ZM196.273 8.80134V7.94336C196.273 7.09235 196.189 6.34249 196.022 5.69378C195.861 5.03808 195.62 4.49051 195.3 4.05106C194.986 3.60463 194.599 3.26981 194.138 3.04659C193.678 2.8164 193.158 2.70131 192.579 2.70131C192 2.70131 191.484 2.8164 191.031 3.04659C190.577 3.26981 190.19 3.60463 189.869 4.05106C189.555 4.49051 189.315 5.03808 189.147 5.69378C188.98 6.34249 188.896 7.09235 188.896 7.94336V8.80134C188.896 9.65234 188.98 10.4057 189.147 11.0614C189.315 11.7171 189.559 12.2716 189.88 12.725C190.207 13.1715 190.598 13.5098 191.052 13.74C191.505 13.9632 192.021 14.0748 192.6 14.0748C193.186 14.0748 193.706 13.9632 194.159 13.74C194.612 13.5098 194.996 13.1715 195.31 12.725C195.624 12.2716 195.861 11.7171 196.022 11.0614C196.189 10.4057 196.273 9.65234 196.273 8.80134ZM207.311 10.3185H203.346V8.23633H207.311C208.002 8.23633 208.56 8.12472 208.985 7.90151C209.411 7.67829 209.721 7.37137 209.917 6.98075C210.119 6.58315 210.22 6.12974 210.22 5.62053C210.22 5.13923 210.119 4.68931 209.917 4.27079C209.721 3.84528 209.411 3.50349 208.985 3.24539C208.56 2.9873 208.002 2.85826 207.311 2.85826H204.151V16H201.525V0.765623H207.311C208.49 0.765623 209.491 0.974887 210.314 1.39341C211.144 1.80497 211.776 2.37695 212.208 3.10937C212.641 3.83482 212.857 4.6649 212.857 5.59961C212.857 6.58315 212.641 7.42718 212.208 8.1317C211.776 8.83622 211.144 9.37681 210.314 9.75349C209.491 10.1302 208.49 10.3185 207.311 10.3185ZM227.359 7.96428V8.80134C227.359 9.95229 227.209 10.9847 226.909 11.8984C226.609 12.8122 226.18 13.59 225.622 14.2317C225.071 14.8735 224.408 15.3652 223.634 15.707C222.86 16.0419 222.002 16.2093 221.06 16.2093C220.125 16.2093 219.271 16.0419 218.496 15.707C217.729 15.3652 217.063 14.8735 216.498 14.2317C215.933 13.59 215.493 12.8122 215.18 11.8984C214.873 10.9847 214.719 9.95229 214.719 8.80134V7.96428C214.719 6.81334 214.873 5.78446 215.18 4.87765C215.486 3.96387 215.919 3.1861 216.477 2.54436C217.042 1.89565 217.708 1.40388 218.475 1.06906C219.25 0.727258 220.104 0.55636 221.039 0.55636C221.981 0.55636 222.839 0.727258 223.613 1.06906C224.387 1.40388 225.053 1.89565 225.611 2.54436C226.169 3.1861 226.598 3.96387 226.898 4.87765C227.205 5.78446 227.359 6.81334 227.359 7.96428ZM224.732 8.80134V7.94336C224.732 7.09235 224.649 6.34249 224.481 5.69378C224.321 5.03808 224.08 4.49051 223.759 4.05106C223.445 3.60463 223.058 3.26981 222.598 3.04659C222.138 2.8164 221.618 2.70131 221.039 2.70131C220.46 2.70131 219.944 2.8164 219.49 3.04659C219.037 3.26981 218.65 3.60463 218.329 4.05106C218.015 4.49051 217.774 5.03808 217.607 5.69378C217.44 6.34249 217.356 7.09235 217.356 7.94336V8.80134C217.356 9.65234 217.44 10.4057 217.607 11.0614C217.774 11.7171 218.019 12.2716 218.339 12.725C218.667 13.1715 219.058 13.5098 219.511 13.74C219.965 13.9632 220.481 14.0748 221.06 14.0748C221.646 14.0748 222.165 13.9632 222.619 13.74C223.072 13.5098 223.456 13.1715 223.77 12.725C224.084 12.2716 224.321 11.7171 224.481 11.0614C224.649 10.4057 224.732 9.65234 224.732 8.80134ZM229.985 0.765623H235.373C236.531 0.765623 237.518 0.94001 238.335 1.28878C239.151 1.63755 239.775 2.15374 240.207 2.83733C240.647 3.51395 240.867 4.351 240.867 5.34849C240.867 6.10882 240.727 6.77846 240.448 7.35742C240.169 7.93638 239.775 8.42466 239.266 8.82226C238.757 9.21289 238.15 9.51632 237.445 9.73256L236.65 10.1197H231.806L231.785 8.03753H235.415C236.043 8.03753 236.566 7.92592 236.985 7.70271C237.403 7.47949 237.717 7.17606 237.926 6.79241C238.143 6.40178 238.251 5.96233 238.251 5.47405C238.251 4.94392 238.146 4.48354 237.937 4.09291C237.735 3.69531 237.421 3.39188 236.995 3.18262C236.57 2.96638 236.029 2.85826 235.373 2.85826H232.611V16H229.985V0.765623ZM238.68 16L235.101 9.15709L237.853 9.14662L241.484 15.864V16H238.68ZM249.415 2.79548L244.864 16H242.112L247.846 0.765623H249.603L249.415 2.79548ZM253.224 16L248.662 2.79548L248.463 0.765623H250.231L255.986 16H253.224ZM253.004 10.3499V12.4321H244.717V10.3499H253.004ZM262.641 0.765623V16H260.035V0.765623H262.641ZM267.422 0.765623V2.85826H255.295V0.765623H267.422ZM272.235 0.765623V16H269.609V0.765623H272.235ZM287.647 7.96428V8.80134C287.647 9.95229 287.498 10.9847 287.198 11.8984C286.898 12.8122 286.469 13.59 285.911 14.2317C285.36 14.8735 284.697 15.3652 283.923 15.707C283.148 16.0419 282.29 16.2093 281.349 16.2093C280.414 16.2093 279.559 16.0419 278.785 15.707C278.018 15.3652 277.352 14.8735 276.787 14.2317C276.222 13.59 275.782 12.8122 275.468 11.8984C275.161 10.9847 275.008 9.95229 275.008 8.80134V7.96428C275.008 6.81334 275.161 5.78446 275.468 4.87765C275.775 3.96387 276.208 3.1861 276.766 2.54436C277.331 1.89565 277.997 1.40388 278.764 1.06906C279.539 0.727258 280.393 0.55636 281.328 0.55636C282.269 0.55636 283.127 0.727258 283.902 1.06906C284.676 1.40388 285.342 1.89565 285.9 2.54436C286.458 3.1861 286.887 3.96387 287.187 4.87765C287.494 5.78446 287.647 6.81334 287.647 7.96428ZM285.021 8.80134V7.94336C285.021 7.09235 284.938 6.34249 284.77 5.69378C284.61 5.03808 284.369 4.49051 284.048 4.05106C283.734 3.60463 283.347 3.26981 282.887 3.04659C282.426 2.8164 281.907 2.70131 281.328 2.70131C280.749 2.70131 280.233 2.8164 279.779 3.04659C279.326 3.26981 278.939 3.60463 278.618 4.05106C278.304 4.49051 278.063 5.03808 277.896 5.69378C277.728 6.34249 277.645 7.09235 277.645 7.94336V8.80134C277.645 9.65234 277.728 10.4057 277.896 11.0614C278.063 11.7171 278.307 12.2716 278.628 12.725C278.956 13.1715 279.347 13.5098 279.8 13.74C280.254 13.9632 280.77 14.0748 281.349 14.0748C281.935 14.0748 282.454 13.9632 282.908 13.74C283.361 13.5098 283.745 13.1715 284.059 12.725C284.373 12.2716 284.61 11.7171 284.77 11.0614C284.938 10.4057 285.021 9.65234 285.021 8.80134ZM302.359 0.765623V16H299.732L292.9 5.08691V16H290.274V0.765623H292.9L299.753 11.6996V0.765623H302.359Z" fill="black"/>
</svg>
