<svg width="316" height="17" viewBox="0 0 316 17" fill="none" xmlns="http://www.w3.org/2000/svg">
<path d="M10.091 13.9178V16H2.44238V13.9178H10.091ZM3.17481 0.765623V16H0.548549V0.765623H3.17481ZM14.9249 0.765623V16H12.2987V0.765623H14.9249ZM19.2567 0.765623H21.6004L26.0054 12.5158L30.4 0.765623H32.7437L26.9262 16H25.0638L19.2567 0.765623ZM18.1895 0.765623H20.4181L20.8052 10.9358V16H18.1895V0.765623ZM31.5823 0.765623H33.8214V16H31.1952V10.9358L31.5823 0.765623ZM46.9109 13.9178V16H38.8228V13.9178H46.9109ZM39.5657 0.765623V16H36.9395V0.765623H39.5657ZM45.8541 7.12723V9.17801H38.8228V7.12723H45.8541ZM46.8585 0.765623V2.85826H38.8228V0.765623H46.8585ZM61.2035 7.96428V8.80134C61.2035 9.95229 61.0536 10.9847 60.7536 11.8984C60.4537 12.8122 60.0247 13.59 59.4667 14.2317C58.9156 14.8735 58.2529 15.3652 57.4787 15.707C56.7044 16.0419 55.8464 16.2093 54.9047 16.2093C53.97 16.2093 53.1155 16.0419 52.3412 15.707C51.5739 15.3652 50.9078 14.8735 50.3428 14.2317C49.7778 13.59 49.3383 12.8122 49.0244 11.8984C48.7175 10.9847 48.564 9.95229 48.564 8.80134V7.96428C48.564 6.81334 48.7175 5.78446 49.0244 4.87765C49.3313 3.96387 49.7638 3.1861 50.3219 2.54436C50.8869 1.89565 51.553 1.40388 52.3203 1.06906C53.0946 0.727258 53.9491 0.55636 54.8838 0.55636C55.8255 0.55636 56.6835 0.727258 57.4577 1.06906C58.232 1.40388 58.8982 1.89565 59.4562 2.54436C60.0142 3.1861 60.4432 3.96387 60.7432 4.87765C61.0501 5.78446 61.2035 6.81334 61.2035 7.96428ZM58.5773 8.80134V7.94336C58.5773 7.09235 58.4936 6.34249 58.3262 5.69378C58.1657 5.03808 57.9251 4.49051 57.6042 4.05106C57.2903 3.60463 56.9032 3.26981 56.4428 3.04659C55.9824 2.8164 55.4628 2.70131 54.8838 2.70131C54.3048 2.70131 53.7886 2.8164 53.3352 3.04659C52.8818 3.26981 52.4947 3.60463 52.1738 4.05106C51.8599 4.49051 51.6193 5.03808 51.4519 5.69378C51.2845 6.34249 51.2008 7.09235 51.2008 7.94336V8.80134C51.2008 9.65234 51.2845 10.4057 51.4519 11.0614C51.6193 11.7171 51.8634 12.2716 52.1843 12.725C52.5121 13.1715 52.9028 13.5098 53.3562 13.74C53.8096 13.9632 54.3258 14.0748 54.9047 14.0748C55.4907 14.0748 56.0103 13.9632 56.4637 13.74C56.9171 13.5098 57.3008 13.1715 57.6147 12.725C57.9286 12.2716 58.1657 11.7171 58.3262 11.0614C58.4936 10.4057 58.5773 9.65234 58.5773 8.80134ZM63.8298 0.765623H69.2183C70.3763 0.765623 71.3633 0.94001 72.1794 1.28878C72.9955 1.63755 73.6198 2.15374 74.0523 2.83733C74.4918 3.51395 74.7115 4.351 74.7115 5.34849C74.7115 6.10882 74.572 6.77846 74.293 7.35742C74.014 7.93638 73.6198 8.42466 73.1106 8.82226C72.6014 9.21289 71.9946 9.51632 71.29 9.73256L70.4948 10.1197H65.6504L65.6295 8.03753H69.2602C69.888 8.03753 70.4111 7.92592 70.8297 7.70271C71.2482 7.47949 71.5621 7.17606 71.7714 6.79241C71.9876 6.40178 72.0957 5.96233 72.0957 5.47405C72.0957 4.94392 71.9911 4.48354 71.7818 4.09291C71.5795 3.69531 71.2656 3.39188 70.8401 3.18262C70.4146 2.96638 69.874 2.85826 69.2183 2.85826H66.4561V16H63.8298V0.765623ZM72.5247 16L68.9463 9.15709L71.6981 9.14662L75.3288 15.864V16H72.5247ZM83.2599 2.79548L78.7084 16H75.9566L81.6904 0.765623H83.4483L83.2599 2.79548ZM87.0685 16L82.5066 2.79548L82.3078 0.765623H84.076L89.8308 16H87.0685ZM86.8488 10.3499V12.4321H78.562V10.3499H86.8488ZM103.621 0.765623V16H100.995L94.1625 5.08691V16H91.5363V0.765623H94.1625L101.016 11.6996V0.765623H103.621ZM118.448 8.2154V14.0329C118.231 14.3189 117.893 14.6328 117.433 14.9746C116.979 15.3094 116.376 15.5989 115.623 15.8431C114.869 16.0872 113.931 16.2093 112.808 16.2093C111.852 16.2093 110.977 16.0488 110.182 15.728C109.386 15.4001 108.699 14.9223 108.12 14.2945C107.548 13.6667 107.105 12.9029 106.792 12.0031C106.478 11.0963 106.321 10.0639 106.321 8.90597V7.84919C106.321 6.69824 106.464 5.67285 106.75 4.77302C107.043 3.86621 107.461 3.09891 108.005 2.47112C108.549 1.84333 109.205 1.369 109.972 1.04813C110.747 0.720283 111.622 0.55636 112.599 0.55636C113.847 0.55636 114.88 0.765623 115.696 1.18415C116.519 1.5957 117.154 2.16769 117.6 2.90011C118.046 3.63253 118.329 4.46959 118.448 5.41127H115.874C115.79 4.88114 115.626 4.40681 115.382 3.98828C115.145 3.56975 114.803 3.24191 114.356 3.00474C113.917 2.7606 113.345 2.63853 112.641 2.63853C112.034 2.63853 111.5 2.75363 111.04 2.98382C110.579 3.21401 110.196 3.55231 109.889 3.99874C109.589 4.44517 109.362 4.98926 109.209 5.631C109.055 6.27274 108.978 7.00516 108.978 7.82826V8.90597C108.978 9.74302 109.066 10.4859 109.24 11.1346C109.421 11.7833 109.679 12.3309 110.014 12.7773C110.356 13.2238 110.771 13.5621 111.259 13.7923C111.748 14.0155 112.299 14.1271 112.913 14.1271C113.512 14.1271 114.004 14.0783 114.388 13.9806C114.772 13.876 115.075 13.7539 115.298 13.6144C115.528 13.4679 115.706 13.3284 115.832 13.1959V10.172H112.661V8.2154H118.448ZM131.328 13.9178V16H123.24V13.9178H131.328ZM123.983 0.765623V16H121.356V0.765623H123.983ZM130.271 7.12723V9.17801H123.24V7.12723H130.271ZM131.275 0.765623V2.85826H123.24V0.765623H131.275ZM147.807 11.0405H150.423C150.339 12.0379 150.06 12.9273 149.586 13.7086C149.112 14.4828 148.445 15.0932 147.587 15.5396C146.73 15.986 145.687 16.2093 144.459 16.2093C143.517 16.2093 142.67 16.0419 141.916 15.707C141.163 15.3652 140.518 14.8839 139.981 14.2631C139.444 13.6353 139.032 12.8785 138.746 11.9926C138.467 11.1067 138.328 10.1162 138.328 9.02107V7.75502C138.328 6.65988 138.471 5.66936 138.757 4.78348C139.05 3.8976 139.468 3.14076 140.012 2.51297C140.556 1.87821 141.208 1.39341 141.969 1.05859C142.736 0.723771 143.598 0.55636 144.553 0.55636C145.767 0.55636 146.792 0.779574 147.629 1.226C148.466 1.67243 149.115 2.28976 149.575 3.07798C150.043 3.86621 150.329 4.76953 150.433 5.78795H147.818C147.748 5.13225 147.594 4.57073 147.357 4.10337C147.127 3.63602 146.785 3.28027 146.332 3.03613C145.879 2.78502 145.286 2.65946 144.553 2.65946C143.953 2.65946 143.43 2.77106 142.984 2.99428C142.537 3.21749 142.164 3.54534 141.864 3.97782C141.564 4.41029 141.337 4.94392 141.184 5.57868C141.038 6.20647 140.964 6.92494 140.964 7.7341V9.02107C140.964 9.78836 141.031 10.4859 141.163 11.1137C141.303 11.7345 141.512 12.2681 141.791 12.7146C142.077 13.161 142.44 13.5063 142.879 13.7504C143.319 13.9946 143.845 14.1166 144.459 14.1166C145.205 14.1166 145.809 13.998 146.269 13.7609C146.736 13.5237 147.089 13.1784 147.326 12.725C147.57 12.2646 147.73 11.7031 147.807 11.0405ZM164.506 8.2154V14.0329C164.29 14.3189 163.952 14.6328 163.492 14.9746C163.038 15.3094 162.435 15.5989 161.681 15.8431C160.928 16.0872 159.99 16.2093 158.867 16.2093C157.911 16.2093 157.036 16.0488 156.241 15.728C155.445 15.4001 154.758 14.9223 154.179 14.2945C153.607 13.6667 153.164 12.9029 152.85 12.0031C152.537 11.0963 152.38 10.0639 152.38 8.90597V7.84919C152.38 6.69824 152.523 5.67285 152.809 4.77302C153.102 3.86621 153.52 3.09891 154.064 2.47112C154.608 1.84333 155.264 1.369 156.031 1.04813C156.806 0.720283 157.681 0.55636 158.658 0.55636C159.906 0.55636 160.938 0.765623 161.755 1.18415C162.578 1.5957 163.212 2.16769 163.659 2.90011C164.105 3.63253 164.388 4.46959 164.506 5.41127H161.932C161.849 4.88114 161.685 4.40681 161.441 3.98828C161.204 3.56975 160.862 3.24191 160.415 3.00474C159.976 2.7606 159.404 2.63853 158.699 2.63853C158.093 2.63853 157.559 2.75363 157.099 2.98382C156.638 3.21401 156.254 3.55231 155.948 3.99874C155.648 4.44517 155.421 4.98926 155.267 5.631C155.114 6.27274 155.037 7.00516 155.037 7.82826V8.90597C155.037 9.74302 155.124 10.4859 155.299 11.1346C155.48 11.7833 155.738 12.3309 156.073 12.7773C156.415 13.2238 156.83 13.5621 157.318 13.7923C157.807 14.0155 158.358 14.1271 158.971 14.1271C159.571 14.1271 160.063 14.0783 160.447 13.9806C160.83 13.876 161.134 13.7539 161.357 13.6144C161.587 13.4679 161.765 13.3284 161.891 13.1959V10.172H158.72V8.2154H164.506ZM181.75 11.0405H184.366C184.282 12.0379 184.003 12.9273 183.528 13.7086C183.054 14.4828 182.388 15.0932 181.53 15.5396C180.672 15.986 179.629 16.2093 178.402 16.2093C177.46 16.2093 176.612 16.0419 175.859 15.707C175.106 15.3652 174.46 14.8839 173.923 14.2631C173.386 13.6353 172.975 12.8785 172.689 11.9926C172.41 11.1067 172.27 10.1162 172.27 9.02107V7.75502C172.27 6.65988 172.413 5.66936 172.699 4.78348C172.992 3.8976 173.411 3.14076 173.955 2.51297C174.499 1.87821 175.151 1.39341 175.911 1.05859C176.679 0.723771 177.54 0.55636 178.496 0.55636C179.709 0.55636 180.735 0.779574 181.572 1.226C182.409 1.67243 183.058 2.28976 183.518 3.07798C183.985 3.86621 184.271 4.76953 184.376 5.78795H181.76C181.69 5.13225 181.537 4.57073 181.3 4.10337C181.07 3.63602 180.728 3.28027 180.274 3.03613C179.821 2.78502 179.228 2.65946 178.496 2.65946C177.896 2.65946 177.373 2.77106 176.926 2.99428C176.48 3.21749 176.107 3.54534 175.807 3.97782C175.507 4.41029 175.28 4.94392 175.127 5.57868C174.98 6.20647 174.907 6.92494 174.907 7.7341V9.02107C174.907 9.78836 174.973 10.4859 175.106 11.1137C175.245 11.7345 175.454 12.2681 175.733 12.7146C176.019 13.161 176.382 13.5063 176.822 13.7504C177.261 13.9946 177.788 14.1166 178.402 14.1166C179.148 14.1166 179.751 13.998 180.212 13.7609C180.679 13.5237 181.031 13.1784 181.268 12.725C181.513 12.2646 181.673 11.7031 181.75 11.0405ZM198.899 7.96428V8.80134C198.899 9.95229 198.749 10.9847 198.449 11.8984C198.149 12.8122 197.72 13.59 197.162 14.2317C196.611 14.8735 195.948 15.3652 195.174 15.707C194.4 16.0419 193.542 16.2093 192.6 16.2093C191.665 16.2093 190.811 16.0419 190.037 15.707C189.269 15.3652 188.603 14.8735 188.038 14.2317C187.473 13.59 187.034 12.8122 186.72 11.8984C186.413 10.9847 186.259 9.95229 186.259 8.80134V7.96428C186.259 6.81334 186.413 5.78446 186.72 4.87765C187.027 3.96387 187.459 3.1861 188.017 2.54436C188.582 1.89565 189.248 1.40388 190.016 1.06906C190.79 0.727258 191.644 0.55636 192.579 0.55636C193.521 0.55636 194.379 0.727258 195.153 1.06906C195.927 1.40388 196.593 1.89565 197.152 2.54436C197.71 3.1861 198.139 3.96387 198.439 4.87765C198.745 5.78446 198.899 6.81334 198.899 7.96428ZM196.273 8.80134V7.94336C196.273 7.09235 196.189 6.34249 196.022 5.69378C195.861 5.03808 195.62 4.49051 195.3 4.05106C194.986 3.60463 194.599 3.26981 194.138 3.04659C193.678 2.8164 193.158 2.70131 192.579 2.70131C192 2.70131 191.484 2.8164 191.031 3.04659C190.577 3.26981 190.19 3.60463 189.869 4.05106C189.555 4.49051 189.315 5.03808 189.147 5.69378C188.98 6.34249 188.896 7.09235 188.896 7.94336V8.80134C188.896 9.65234 188.98 10.4057 189.147 11.0614C189.315 11.7171 189.559 12.2716 189.88 12.725C190.207 13.1715 190.598 13.5098 191.052 13.74C191.505 13.9632 192.021 14.0748 192.6 14.0748C193.186 14.0748 193.706 13.9632 194.159 13.74C194.612 13.5098 194.996 13.1715 195.31 12.725C195.624 12.2716 195.861 11.7171 196.022 11.0614C196.189 10.4057 196.273 9.65234 196.273 8.80134ZM201.525 0.765623H206.914C208.072 0.765623 209.059 0.94001 209.875 1.28878C210.691 1.63755 211.315 2.15374 211.748 2.83733C212.187 3.51395 212.407 4.351 212.407 5.34849C212.407 6.10882 212.267 6.77846 211.988 7.35742C211.709 7.93638 211.315 8.42466 210.806 8.82226C210.297 9.21289 209.69 9.51632 208.985 9.73256L208.19 10.1197H203.346L203.325 8.03753H206.956C207.583 8.03753 208.106 7.92592 208.525 7.70271C208.944 7.47949 209.257 7.17606 209.467 6.79241C209.683 6.40178 209.791 5.96233 209.791 5.47405C209.791 4.94392 209.686 4.48354 209.477 4.09291C209.275 3.69531 208.961 3.39188 208.535 3.18262C208.11 2.96638 207.569 2.85826 206.914 2.85826H204.151V16H201.525V0.765623ZM210.22 16L206.642 9.15709L209.393 9.14662L213.024 15.864V16H210.22ZM220.809 10.3185H216.843V8.23633H220.809C221.499 8.23633 222.057 8.12472 222.483 7.90151C222.908 7.67829 223.219 7.37137 223.414 6.98075C223.616 6.58315 223.718 6.12974 223.718 5.62053C223.718 5.13923 223.616 4.68931 223.414 4.27079C223.219 3.84528 222.908 3.50349 222.483 3.24539C222.057 2.9873 221.499 2.85826 220.809 2.85826H217.649V16H215.023V0.765623H220.809C221.988 0.765623 222.989 0.974887 223.812 1.39341C224.642 1.80497 225.273 2.37695 225.706 3.10937C226.138 3.83482 226.354 4.6649 226.354 5.59961C226.354 6.58315 226.138 7.42718 225.706 8.1317C225.273 8.83622 224.642 9.37681 223.812 9.75349C222.989 10.1302 221.988 10.3185 220.809 10.3185ZM240.856 7.96428V8.80134C240.856 9.95229 240.706 10.9847 240.406 11.8984C240.106 12.8122 239.677 13.59 239.119 14.2317C238.568 14.8735 237.906 15.3652 237.131 15.707C236.357 16.0419 235.499 16.2093 234.557 16.2093C233.623 16.2093 232.768 16.0419 231.994 15.707C231.227 15.3652 230.56 14.8735 229.995 14.2317C229.43 13.59 228.991 12.8122 228.677 11.8984C228.37 10.9847 228.217 9.95229 228.217 8.80134V7.96428C228.217 6.81334 228.37 5.78446 228.677 4.87765C228.984 3.96387 229.416 3.1861 229.974 2.54436C230.54 1.89565 231.206 1.40388 231.973 1.06906C232.747 0.727258 233.602 0.55636 234.536 0.55636C235.478 0.55636 236.336 0.727258 237.11 1.06906C237.885 1.40388 238.551 1.89565 239.109 2.54436C239.667 3.1861 240.096 3.96387 240.396 4.87765C240.703 5.78446 240.856 6.81334 240.856 7.96428ZM238.23 8.80134V7.94336C238.23 7.09235 238.146 6.34249 237.979 5.69378C237.818 5.03808 237.578 4.49051 237.257 4.05106C236.943 3.60463 236.556 3.26981 236.095 3.04659C235.635 2.8164 235.115 2.70131 234.536 2.70131C233.957 2.70131 233.441 2.8164 232.988 3.04659C232.534 3.26981 232.147 3.60463 231.826 4.05106C231.513 4.49051 231.272 5.03808 231.105 5.69378C230.937 6.34249 230.853 7.09235 230.853 7.94336V8.80134C230.853 9.65234 230.937 10.4057 231.105 11.0614C231.272 11.7171 231.516 12.2716 231.837 12.725C232.165 13.1715 232.555 13.5098 233.009 13.74C233.462 13.9632 233.978 14.0748 234.557 14.0748C235.143 14.0748 235.663 13.9632 236.116 13.74C236.57 13.5098 236.953 13.1715 237.267 12.725C237.581 12.2716 237.818 11.7171 237.979 11.0614C238.146 10.4057 238.23 9.65234 238.23 8.80134ZM243.482 0.765623H248.871C250.029 0.765623 251.016 0.94001 251.832 1.28878C252.648 1.63755 253.272 2.15374 253.705 2.83733C254.144 3.51395 254.364 4.351 254.364 5.34849C254.364 6.10882 254.225 6.77846 253.946 7.35742C253.667 7.93638 253.272 8.42466 252.763 8.82226C252.254 9.21289 251.647 9.51632 250.943 9.73256L250.147 10.1197H245.303L245.282 8.03753H248.913C249.541 8.03753 250.064 7.92592 250.482 7.70271C250.901 7.47949 251.215 7.17606 251.424 6.79241C251.64 6.40178 251.748 5.96233 251.748 5.47405C251.748 4.94392 251.644 4.48354 251.434 4.09291C251.232 3.69531 250.918 3.39188 250.493 3.18262C250.067 2.96638 249.527 2.85826 248.871 2.85826H246.109V16H243.482V0.765623ZM252.177 16L248.599 9.15709L251.351 9.14662L254.981 15.864V16H252.177ZM262.913 2.79548L258.361 16H255.609L261.343 0.765623H263.101L262.913 2.79548ZM266.721 16L262.159 2.79548L261.96 0.765623H263.729L269.483 16H266.721ZM266.501 10.3499V12.4321H258.215V10.3499H266.501ZM276.138 0.765623V16H273.533V0.765623H276.138ZM280.92 0.765623V2.85826H268.793V0.765623H280.92ZM285.733 0.765623V16H283.106V0.765623H285.733ZM301.145 7.96428V8.80134C301.145 9.95229 300.995 10.9847 300.695 11.8984C300.395 12.8122 299.966 13.59 299.408 14.2317C298.857 14.8735 298.194 15.3652 297.42 15.707C296.646 16.0419 295.788 16.2093 294.846 16.2093C293.911 16.2093 293.057 16.0419 292.283 15.707C291.515 15.3652 290.849 14.8735 290.284 14.2317C289.719 13.59 289.28 12.8122 288.966 11.8984C288.659 10.9847 288.505 9.95229 288.505 8.80134V7.96428C288.505 6.81334 288.659 5.78446 288.966 4.87765C289.273 3.96387 289.705 3.1861 290.263 2.54436C290.828 1.89565 291.494 1.40388 292.262 1.06906C293.036 0.727258 293.891 0.55636 294.825 0.55636C295.767 0.55636 296.625 0.727258 297.399 1.06906C298.173 1.40388 298.84 1.89565 299.398 2.54436C299.956 3.1861 300.385 3.96387 300.685 4.87765C300.992 5.78446 301.145 6.81334 301.145 7.96428ZM298.519 8.80134V7.94336C298.519 7.09235 298.435 6.34249 298.268 5.69378C298.107 5.03808 297.867 4.49051 297.546 4.05106C297.232 3.60463 296.845 3.26981 296.384 3.04659C295.924 2.8164 295.404 2.70131 294.825 2.70131C294.246 2.70131 293.73 2.8164 293.277 3.04659C292.823 3.26981 292.436 3.60463 292.115 4.05106C291.801 4.49051 291.561 5.03808 291.393 5.69378C291.226 6.34249 291.142 7.09235 291.142 7.94336V8.80134C291.142 9.65234 291.226 10.4057 291.393 11.0614C291.561 11.7171 291.805 12.2716 292.126 12.725C292.454 13.1715 292.844 13.5098 293.298 13.74C293.751 13.9632 294.267 14.0748 294.846 14.0748C295.432 14.0748 295.952 13.9632 296.405 13.74C296.859 13.5098 297.242 13.1715 297.556 12.725C297.87 12.2716 298.107 11.7171 298.268 11.0614C298.435 10.4057 298.519 9.65234 298.519 8.80134ZM315.856 0.765623V16H313.23L306.397 5.08691V16H303.771V0.765623H306.397L313.251 11.6996V0.765623H315.856Z" fill="black"/>
</svg>
