<svg width="21" height="26" viewBox="0 0 21 26" fill="none" xmlns="http://www.w3.org/2000/svg">
<path d="M3.32184 10.4871H18.079" stroke="black" stroke-width="1.71098" stroke-linecap="round" stroke-linejoin="round"/>
<path d="M3.32184 5.56787H18.079" stroke="black" stroke-width="1.71098" stroke-linecap="round" stroke-linejoin="round"/>
<path d="M3.32184 15.406H18.079" stroke="black" stroke-width="1.71098" stroke-linecap="round" stroke-linejoin="round"/>
<path d="M3.30327 20.3569H3.95826L5.18927 23.6406L6.41737 20.3569H7.07235L5.44659 24.6143H4.92611L3.30327 20.3569ZM3.00502 20.3569H3.62784L3.73603 23.199V24.6143H3.00502V20.3569ZM6.74778 20.3569H7.37353V24.6143H6.63959V23.199L6.74778 20.3569ZM11.0315 24.0324V24.6143H8.77121V24.0324H11.0315ZM8.97882 20.3569V24.6143H8.24489V20.3569H8.97882ZM10.7362 22.1347V22.7078H8.77121V22.1347H10.7362ZM11.0169 20.3569V20.9417H8.77121V20.3569H11.0169ZM15.0082 20.3569V24.6143H14.2742L12.3649 21.5645V24.6143H11.6309V20.3569H12.3649L14.2801 23.4125V20.3569H15.0082ZM18.2714 20.3569H19.0024V23.202C19.0024 23.5255 18.9322 23.7965 18.7919 24.0148C18.6515 24.2332 18.4605 24.3979 18.2188 24.509C17.979 24.6182 17.711 24.6727 17.4147 24.6727C17.1086 24.6727 16.8357 24.6182 16.5959 24.509C16.3562 24.3979 16.1671 24.2332 16.0287 24.0148C15.8922 23.7965 15.824 23.5255 15.824 23.202V20.3569H16.555V23.202C16.555 23.4066 16.5901 23.5753 16.6603 23.7078C16.7304 23.8384 16.8298 23.9349 16.9585 23.9973C17.0872 24.0597 17.2392 24.0909 17.4147 24.0909C17.5901 24.0909 17.7412 24.0597 17.8679 23.9973C17.9965 23.9349 18.096 23.8384 18.1661 23.7078C18.2363 23.5753 18.2714 23.4066 18.2714 23.202V20.3569Z" fill="black"/>
</svg>
