<svg width="23" height="23" viewBox="0 0 23 23" fill="none" xmlns="http://www.w3.org/2000/svg">
<path fill-rule="evenodd" clip-rule="evenodd" d="M11.7183 3.80249C7.9503 3.80249 4.89575 6.85704 4.89575 10.625C4.89575 14.393 7.9503 17.4475 11.7183 17.4475C15.4862 17.4475 18.5408 14.393 18.5408 10.625C18.5408 6.85704 15.4862 3.80249 11.7183 3.80249ZM3.98608 10.625C3.98608 6.35464 7.4479 2.89282 11.7183 2.89282C15.9886 2.89282 19.4505 6.35464 19.4505 10.625C19.4505 14.8954 15.9886 18.3572 11.7183 18.3572C7.4479 18.3572 3.98608 14.8954 3.98608 10.625Z" fill="black"/>
<path fill-rule="evenodd" clip-rule="evenodd" d="M16.5355 15.4423C16.7131 15.2647 17.0011 15.2647 17.1787 15.4423L21.1358 19.3994C21.3134 19.577 21.3134 19.865 21.1358 20.0426C20.9582 20.2202 20.6702 20.2202 20.4926 20.0426L16.5355 16.0855C16.3579 15.9079 16.3579 15.6199 16.5355 15.4423Z" fill="black"/>
</svg>
