<svg width="22" height="23" viewBox="0 0 22 23" fill="none" xmlns="http://www.w3.org/2000/svg">
<path fill-rule="evenodd" clip-rule="evenodd" d="M6.08753 2.16484C6.17343 2.05031 6.30823 1.98291 6.4514 1.98291H17.3674C17.5106 1.98291 17.6454 2.05031 17.7313 2.16484L20.4603 5.80352C20.5194 5.88225 20.5513 5.97801 20.5513 6.07642V18.8118C20.5513 19.4149 20.3117 19.9934 19.8852 20.4199C19.4587 20.8464 18.8802 21.086 18.2771 21.086H5.54173C4.93858 21.086 4.36013 20.8464 3.93364 20.4199C3.50715 19.9934 3.26756 19.4149 3.26756 18.8118V6.07642C3.26756 5.97801 3.29947 5.88225 3.35852 5.80352L6.08753 2.16484ZM6.67881 2.89258L4.17722 6.22803V18.8118C4.17722 19.1737 4.32098 19.5207 4.57688 19.7766C4.83277 20.0325 5.17984 20.1763 5.54173 20.1763H18.2771C18.639 20.1763 18.9861 20.0325 19.2419 19.7766C19.4978 19.5207 19.6416 19.1737 19.6416 18.8118V6.22803L17.14 2.89258H6.67881Z" fill="black"/>
<path fill-rule="evenodd" clip-rule="evenodd" d="M3.26756 6.07666C3.26756 5.82546 3.47119 5.62183 3.72239 5.62183H20.0964C20.3476 5.62183 20.5513 5.82546 20.5513 6.07666C20.5513 6.32786 20.3476 6.5315 20.0964 6.5315H3.72239C3.47119 6.5315 3.26756 6.32786 3.26756 6.07666Z" fill="black"/>
<path fill-rule="evenodd" clip-rule="evenodd" d="M8.26944 9.26074C8.52064 9.26074 8.72427 9.46438 8.72427 9.71558C8.72427 10.56 9.05971 11.3698 9.6568 11.9669C10.2539 12.564 11.0637 12.8994 11.9081 12.8994C12.7525 12.8994 13.5623 12.564 14.1594 11.9669C14.7565 11.3698 15.092 10.56 15.092 9.71558C15.092 9.46438 15.2956 9.26074 15.5468 9.26074C15.798 9.26074 16.0016 9.46438 16.0016 9.71558C16.0016 10.8012 15.5703 11.8424 14.8027 12.6101C14.035 13.3778 12.9938 13.8091 11.9081 13.8091C10.8225 13.8091 9.78125 13.3778 9.01357 12.6101C8.24588 11.8424 7.81461 10.8012 7.81461 9.71558C7.81461 9.46438 8.01824 9.26074 8.26944 9.26074Z" fill="black"/>
</svg>
