<svg width="230" height="236" viewBox="0 0 230 236" fill="none" xmlns="http://www.w3.org/2000/svg">
<g clip-path="url(#clip0_801_526)">
<path d="M48.9282 235.597V225.74H52.1521C53.2362 225.74 54.0921 225.969 54.7055 226.411C55.3188 226.853 55.6327 227.524 55.6327 228.422C55.6327 228.85 55.5043 229.25 55.2618 229.592C55.0193 229.934 54.6769 230.205 54.2347 230.391C54.8624 230.491 55.3474 230.762 55.6897 231.204C56.0321 231.646 56.2033 232.16 56.2033 232.759C56.2033 233.686 55.9037 234.385 55.2903 234.87C54.6912 235.355 53.8496 235.597 52.7797 235.597H48.9282ZM50.5687 229.892H52.3232C52.8368 229.892 53.2362 229.763 53.5358 229.535C53.8353 229.292 53.978 228.95 53.978 228.508C53.978 228.023 53.821 227.652 53.5072 227.424C53.1934 227.181 52.7369 227.067 52.1521 227.067H50.5687V229.892ZM50.5687 231.118V234.285H52.794C53.3646 234.285 53.8068 234.157 54.1063 233.9C54.4202 233.643 54.5628 233.258 54.5628 232.773C54.5628 232.274 54.4059 231.889 54.1063 231.589C53.8068 231.289 53.3788 231.133 52.8368 231.118H52.7512H50.5687Z" fill="#241A17"/>
<path d="M63.2502 231.161H59.3987V234.285H63.9492V235.597H57.7583V225.74H63.9064V227.067H59.3987V229.849H63.2502V231.161Z" fill="#241A17"/>
<path d="M70.5539 233.301H67.059L66.303 235.597H64.6055L68.0433 225.74H69.6124L73.0074 235.597H71.3099L70.5539 233.301ZM67.5155 231.931H70.1117L68.8421 228.051H68.7993L67.5155 231.931Z" fill="#241A17"/>
<path d="M81.6377 225.74V232.231C81.6377 233.329 81.2811 234.185 80.5536 234.799C79.8404 235.426 78.8989 235.726 77.772 235.726C76.6451 235.726 75.7464 235.412 75.0331 234.799C74.3342 234.185 73.9775 233.315 73.9775 232.231V225.74H75.618V232.231C75.618 232.93 75.8177 233.472 76.2028 233.857C76.6023 234.242 77.1158 234.428 77.7577 234.428C78.4282 234.428 78.956 234.242 79.3696 233.857C79.769 233.472 79.983 232.93 79.983 232.231V225.74H81.6377Z" fill="#241A17"/>
<path d="M90.4396 227.067H87.4012V235.597H85.7607V227.067H82.7651V225.74H90.4539V227.067H90.4396Z" fill="#241A17"/>
<path d="M93.4774 235.597H91.8369V225.74H93.4774V235.597Z" fill="#241A17"/>
<path d="M101.294 231.404H97.3138V235.612H95.6733V225.755H101.978V227.081H97.3138V230.091H101.294V231.404Z" fill="#241A17"/>
<path d="M110.88 225.74V232.231C110.88 233.329 110.523 234.185 109.796 234.799C109.068 235.426 108.141 235.726 107.014 235.726C105.887 235.726 104.989 235.412 104.275 234.799C103.576 234.185 103.22 233.315 103.22 232.231V225.74H104.86V232.231C104.86 232.93 105.06 233.472 105.445 233.857C105.844 234.242 106.358 234.428 107 234.428C107.67 234.428 108.198 234.242 108.612 233.857C109.025 233.472 109.225 232.93 109.225 232.231V225.74H110.88Z" fill="#241A17"/>
<path d="M114.446 234.285H119.068V235.597H112.806V225.74H114.446V234.285Z" fill="#241A17"/>
<path d="M131.121 232.373L131.136 232.416C131.15 233.415 130.836 234.214 130.166 234.827C129.495 235.44 128.611 235.74 127.484 235.74C126.343 235.74 125.401 235.355 124.688 234.584C123.975 233.814 123.618 232.816 123.618 231.617V229.734C123.618 228.536 123.975 227.552 124.674 226.767C125.373 225.983 126.3 225.598 127.427 225.598C128.582 225.598 129.495 225.897 130.166 226.482C130.836 227.067 131.15 227.88 131.136 228.907L131.121 228.95H129.538C129.538 228.294 129.367 227.78 128.996 227.438C128.639 227.081 128.112 226.91 127.427 226.91C126.756 226.91 126.229 227.181 125.843 227.709C125.458 228.237 125.259 228.907 125.259 229.72V231.603C125.259 232.416 125.458 233.087 125.858 233.629C126.257 234.157 126.799 234.428 127.484 234.428C128.154 234.428 128.668 234.256 129.01 233.9C129.367 233.543 129.538 233.044 129.538 232.373H131.121Z" fill="#241A17"/>
<path d="M140.237 225.74V232.231C140.237 233.329 139.881 234.185 139.153 234.799C138.44 235.426 137.498 235.726 136.372 235.726C135.245 235.726 134.346 235.412 133.633 234.799C132.934 234.185 132.577 233.315 132.577 232.231V225.74H134.218V232.231C134.218 232.93 134.417 233.472 134.802 233.857C135.202 234.242 135.715 234.428 136.357 234.428C137.028 234.428 137.57 234.242 137.969 233.857C138.369 233.472 138.583 232.93 138.583 232.231V225.74H140.237Z" fill="#241A17"/>
<path d="M143.817 234.285H148.439V235.597H142.177V225.74H143.817V234.285Z" fill="#241A17"/>
<path d="M155.315 227.067H152.277V235.597H150.636V227.067H147.641V225.74H155.329V227.067H155.315Z" fill="#241A17"/>
<path d="M164.102 225.74V232.231C164.102 233.329 163.745 234.185 163.018 234.799C162.305 235.426 161.363 235.726 160.236 235.726C159.124 235.726 158.211 235.412 157.497 234.799C156.799 234.185 156.442 233.315 156.442 232.231V225.74H158.082V232.231C158.082 232.93 158.282 233.472 158.667 233.857C159.067 234.242 159.58 234.428 160.222 234.428C160.893 234.428 161.42 234.242 161.834 233.857C162.248 233.472 162.447 232.93 162.447 232.231V225.74H164.102Z" fill="#241A17"/>
<path d="M167.668 231.518V235.612H166.028V225.755H169.423C170.521 225.755 171.363 225.997 171.962 226.496C172.561 226.996 172.861 227.695 172.861 228.622C172.861 229.135 172.732 229.563 172.461 229.934C172.19 230.305 171.819 230.59 171.306 230.819C171.862 230.99 172.262 231.275 172.504 231.675C172.747 232.074 172.875 232.559 172.875 233.144V233.957C172.875 234.242 172.918 234.528 172.989 234.799C173.06 235.07 173.174 235.284 173.346 235.426V235.583H171.648C171.463 235.44 171.349 235.198 171.306 234.884C171.249 234.57 171.234 234.256 171.234 233.943V233.158C171.234 232.645 171.092 232.245 170.792 231.946C170.507 231.646 170.108 231.503 169.608 231.503H167.668V231.518ZM167.668 230.191H169.323C169.979 230.191 170.464 230.063 170.764 229.806C171.063 229.549 171.22 229.164 171.22 228.65C171.22 228.151 171.078 227.766 170.778 227.481C170.478 227.195 170.022 227.053 169.423 227.053H167.683V230.191H167.668Z" fill="#241A17"/>
<path d="M180.335 231.161H176.47V234.285H181.02V235.597H174.829V225.74H180.977V227.067H176.47V229.849H180.335V231.161Z" fill="#241A17"/>
<path d="M114.974 34.2212C78.4991 34.2212 48.9282 63.7921 48.9282 100.267C48.9282 136.757 78.4991 166.327 114.974 166.327C151.449 166.327 181.034 136.757 181.034 100.267C181.034 63.7921 151.464 34.2212 114.974 34.2212ZM114.832 147.07C88.9838 147.07 68.043 126.115 68.043 100.281C68.043 74.4337 88.998 53.4929 114.832 53.4929C140.679 53.4929 161.62 74.4479 161.62 100.281C161.62 126.115 140.679 147.07 114.832 147.07Z" fill="#96D600"/>
<path d="M136.985 21.8252C146.599 11.9397 145.872 0.0143182 145.872 0.0143182C145.872 0.0143182 133.519 -0.698921 123.818 9.28643C114.204 19.1719 114.932 31.0973 114.932 31.0973C114.932 31.0973 127.285 31.8105 136.985 21.8252Z" fill="#96D600"/>
<path d="M95.6598 216.383C89.0837 216.383 83.7344 210.991 83.7344 204.343C83.7344 197.696 89.0694 192.304 95.6598 192.304C102.236 192.304 107.571 197.696 107.571 204.343C107.571 210.991 102.236 216.383 95.6598 216.383ZM95.6598 188.78C87.158 188.78 80.2681 195.741 80.2681 204.343C80.2681 212.945 87.158 219.906 95.6598 219.906C104.176 219.906 111.066 212.945 111.066 204.343C111.066 195.741 104.176 188.78 95.6598 188.78Z" fill="#241A17"/>
<path d="M0 189.565V218.779H17.5457V215.185H3.99414V189.565H0Z" fill="#241A17"/>
<path d="M26.319 189.58H22.3105V218.794H26.319V189.58Z" fill="#241A17"/>
<path d="M48.7433 189.565L43.5652 215.698H43.4225L38.2302 189.565H31.0835V218.779H35.1347V191.833L40.5696 218.779H46.4039L51.8388 191.833V218.779H55.89V189.565H48.7433Z" fill="#241A17"/>
<path d="M59.9976 189.565V218.779H77.529V215.299H63.9917V205.513H77.4434V202.033H63.9917V193.046H77.529V189.565H59.9976Z" fill="#241A17"/>
<path d="M118.284 202.118H124.603H125.217C125.53 202.118 125.873 202.104 126.272 202.061C126.657 202.018 127.042 201.947 127.442 201.847C127.813 201.762 128.155 201.633 128.426 201.476C128.569 201.391 128.74 201.277 128.968 201.091C129.182 200.92 129.41 200.677 129.624 200.364C129.824 200.064 130.009 199.693 130.166 199.265C130.309 198.837 130.38 198.31 130.38 197.71C130.38 196.541 130.152 195.642 129.696 195.014C129.239 194.387 128.711 193.93 128.098 193.645C127.47 193.345 126.857 193.174 126.201 193.131C125.545 193.074 125.017 193.046 124.617 193.046H118.298V202.118H118.284ZM114.404 189.565H124.746C125.117 189.565 125.573 189.579 126.101 189.594C126.643 189.608 127.214 189.651 127.827 189.736C128.44 189.808 129.068 189.95 129.667 190.136C130.281 190.335 130.865 190.592 131.393 190.935C132.492 191.648 133.305 192.518 133.818 193.545C134.346 194.586 134.603 195.699 134.603 196.883C134.603 197.91 134.417 198.866 134.046 199.75C133.69 200.649 133.191 201.419 132.549 202.061C131.935 202.689 131.336 203.117 130.737 203.374C130.138 203.63 129.61 203.83 129.154 203.958C129.853 204.158 130.452 204.386 130.951 204.657C131.465 204.928 131.878 205.271 132.235 205.684C132.577 206.098 132.862 206.626 133.076 207.268C133.29 207.895 133.447 208.68 133.547 209.593C133.661 210.449 133.747 211.262 133.847 212.018C133.932 212.774 134.046 213.516 134.175 214.243C134.317 214.971 134.474 215.713 134.631 216.44C134.802 217.182 135.045 217.966 135.345 218.765H131.065C130.908 218.28 130.766 217.71 130.623 217.053C130.48 216.383 130.366 215.713 130.252 214.999C130.152 214.3 130.052 213.601 129.981 212.917C129.895 212.218 129.81 211.604 129.738 211.034C129.61 209.978 129.439 209.108 129.225 208.395C129.011 207.696 128.669 207.139 128.212 206.726C127.77 206.312 127.157 206.012 126.372 205.841C125.602 205.67 124.617 205.57 123.419 205.57H118.384V218.765H114.404V189.565Z" fill="#241A17"/>
<path d="M148.411 193.003H148.497L153.147 208.58H143.875L148.411 193.003ZM146.257 189.565L137.085 218.779H140.808L142.976 211.818H154.16L156.243 218.779H160.365L150.936 189.565H146.257Z" fill="#241A17"/>
<path d="M178.937 189.565V214.571H178.852L167.597 189.565H162.39V218.779H165.685V193.459H165.757L177.168 218.779H182.218V189.565H178.937Z" fill="#241A17"/>
<path d="M204.685 196.84C204.486 195.471 203.901 194.372 202.916 193.516C201.932 192.689 200.548 192.275 198.751 192.275C197.51 192.275 196.383 192.475 195.37 192.86C194.372 193.245 193.516 193.873 192.803 194.743C192.218 195.442 191.761 196.198 191.39 197.011C191.02 197.824 190.734 198.623 190.535 199.45C190.321 200.278 190.192 201.091 190.121 201.89C190.05 202.703 190.007 203.445 190.007 204.115C190.007 204.743 190.035 205.442 190.121 206.24C190.192 207.025 190.306 207.852 190.492 208.68C190.677 209.507 190.92 210.334 191.205 211.119C191.519 211.918 191.904 212.631 192.389 213.287C192.831 213.829 193.316 214.286 193.858 214.657C194.386 215.042 194.957 215.341 195.542 215.555C196.141 215.769 196.754 215.926 197.41 216.026C198.066 216.112 198.723 216.169 199.379 216.169C200.877 216.169 202.103 216.055 203.059 215.812C204.001 215.57 204.685 215.37 205.099 215.242V206.583H199.079V203.231H208.736V217.624C208.351 217.766 207.852 217.923 207.267 218.137C206.668 218.337 205.969 218.537 205.17 218.722C204.357 218.922 203.487 219.065 202.503 219.207C201.533 219.35 200.491 219.421 199.379 219.421C196.939 219.421 194.985 219.079 193.473 218.394C191.975 217.695 190.763 216.839 189.821 215.784C188.509 214.329 187.567 212.631 187.011 210.691C186.441 208.751 186.155 206.74 186.155 204.657C186.155 203.93 186.212 202.988 186.341 201.847C186.455 200.691 186.712 199.479 187.097 198.195C187.482 196.926 188.052 195.656 188.823 194.415C189.579 193.174 190.563 192.076 191.804 191.134C192.46 190.649 193.159 190.264 193.873 189.993C194.586 189.722 195.27 189.522 195.955 189.365C196.626 189.208 197.239 189.123 197.795 189.094C198.337 189.066 198.808 189.066 199.136 189.066C199.664 189.066 200.22 189.094 200.877 189.151C201.518 189.194 202.175 189.337 202.859 189.551C203.544 189.765 204.214 190.078 204.913 190.506C205.598 190.934 206.269 191.476 206.882 192.19C207.281 192.646 207.581 193.088 207.823 193.516C208.052 193.944 208.223 194.372 208.337 194.772C208.451 195.185 208.522 195.556 208.551 195.899C208.58 196.241 208.622 196.555 208.651 196.826H204.685V196.84Z" fill="#241A17"/>
<path d="M212.517 189.565V218.779H229.949V215.299H216.511V205.513H229.963V202.033H216.511V193.046H229.892V189.565H212.517Z" fill="#241A17"/>
</g>
<defs>
<clipPath id="clip0_801_526">
<rect width="229.963" height="235.74" fill="white"/>
</clipPath>
</defs>
</svg>
