<svg width="228" height="67" viewBox="0 0 228 67" fill="none" xmlns="http://www.w3.org/2000/svg">
<path fill-rule="evenodd" clip-rule="evenodd" d="M126.638 15.4537H125.517H114.605V19.3466H124.809C123.217 23.4755 119.265 26.4247 114.546 26.4247C108.471 26.4247 103.575 21.529 103.575 15.4537C103.575 9.37841 108.471 4.48276 114.546 4.48276C118.203 4.48276 121.388 6.25227 123.394 8.96552L126.992 6.31125C124.161 2.47731 119.678 0 114.546 0C105.994 0 99.0925 6.9011 99.0925 15.4537C99.0925 24.0064 105.994 30.9074 114.546 30.9074C121.978 30.9074 128.171 25.6579 129.646 18.6978C129.882 17.6361 130 16.5744 130 15.5127H126.638V15.4537Z" fill="black"/>
<path d="M81.1615 15.3948L70.8394 1.23877H66.8285V28.9021V29.6099H71.1933V7.55002L81.1615 21.3522L91.0708 7.55002V29.6099H95.4356V1.23877H91.4247L81.1615 15.3948Z" fill="black"/>
<path fill-rule="evenodd" clip-rule="evenodd" d="M15.4537 0C6.9011 0 0 6.9011 0 15.4537C0 24.0064 6.9011 30.9074 15.4537 30.9074C24.0064 30.9074 30.9074 24.0064 30.9074 15.4537C30.9074 6.9011 24.0064 0 15.4537 0ZM15.4537 26.3657C9.37841 26.3657 4.48276 21.4701 4.48276 15.3947C4.48276 9.31942 9.37841 4.42377 15.4537 4.42377C21.529 4.42377 26.4247 9.31942 26.4247 15.3947C26.4247 21.4701 21.529 26.3657 15.4537 26.3657Z" fill="black"/>
<path fill-rule="evenodd" clip-rule="evenodd" d="M49.7822 4.48276C53.4392 4.48276 56.6243 6.25227 58.6298 8.96552L62.2278 6.31125C59.3965 2.47731 54.9138 0 49.7822 0C41.2296 0 34.3285 6.9011 34.3285 15.4537C34.3285 24.0064 41.2296 30.9074 49.7822 30.9074C54.9138 30.9074 59.3965 28.4301 62.2278 24.5962L58.6298 21.9419C56.6243 24.6552 53.4392 26.4247 49.7822 26.4247C43.7069 26.4247 38.8112 21.529 38.8112 15.4537C38.8112 9.37841 43.7069 4.48276 49.7822 4.48276Z" fill="black"/>
<path d="M12.5049 56.25V56.9531C12.5049 57.9199 12.3789 58.7871 12.127 59.5547C11.875 60.3223 11.5146 60.9756 11.0459 61.5146C10.583 62.0537 10.0264 62.4668 9.37598 62.7539C8.72559 63.0352 8.00488 63.1758 7.21387 63.1758C6.42871 63.1758 5.71094 63.0352 5.06055 62.7539C4.41602 62.4668 3.85645 62.0537 3.38184 61.5146C2.90723 60.9756 2.53809 60.3223 2.27441 59.5547C2.0166 58.7871 1.8877 57.9199 1.8877 56.9531V56.25C1.8877 55.2832 2.0166 54.4189 2.27441 53.6572C2.53223 52.8896 2.89551 52.2363 3.36426 51.6973C3.83887 51.1523 4.39844 50.7393 5.04297 50.458C5.69336 50.1709 6.41113 50.0273 7.19629 50.0273C7.9873 50.0273 8.70801 50.1709 9.3584 50.458C10.0088 50.7393 10.5684 51.1523 11.0371 51.6973C11.5059 52.2363 11.8662 52.8896 12.1182 53.6572C12.376 54.4189 12.5049 55.2832 12.5049 56.25ZM10.2988 56.9531V56.2324C10.2988 55.5176 10.2285 54.8877 10.0879 54.3428C9.95312 53.792 9.75098 53.332 9.48145 52.9629C9.21777 52.5879 8.89258 52.3066 8.50586 52.1191C8.11914 51.9258 7.68262 51.8291 7.19629 51.8291C6.70996 51.8291 6.27637 51.9258 5.89551 52.1191C5.51465 52.3066 5.18945 52.5879 4.91992 52.9629C4.65625 53.332 4.4541 53.792 4.31348 54.3428C4.17285 54.8877 4.10254 55.5176 4.10254 56.2324V56.9531C4.10254 57.668 4.17285 58.3008 4.31348 58.8516C4.4541 59.4023 4.65918 59.8682 4.92871 60.249C5.2041 60.624 5.53223 60.9082 5.91309 61.1016C6.29395 61.2891 6.72754 61.3828 7.21387 61.3828C7.70605 61.3828 8.14258 61.2891 8.52344 61.1016C8.9043 60.9082 9.22656 60.624 9.49023 60.249C9.75391 59.8682 9.95312 59.4023 10.0879 58.8516C10.2285 58.3008 10.2988 57.668 10.2988 56.9531ZM16.917 50.2031V63H14.7109V50.2031H16.917ZM24.6074 50.2031L19.4219 56.3643L16.4688 59.4932L16.082 57.3047L18.1914 54.7031L21.918 50.2031H24.6074ZM22.2344 63L18.0244 56.9355L19.5449 55.4326L24.8535 63H22.2344ZM38.125 58.834H40.3223C40.252 59.6719 40.0176 60.4189 39.6191 61.0752C39.2207 61.7256 38.6611 62.2383 37.9404 62.6133C37.2197 62.9883 36.3438 63.1758 35.3125 63.1758C34.5215 63.1758 33.8096 63.0352 33.1768 62.7539C32.5439 62.4668 32.002 62.0625 31.5508 61.541C31.0996 61.0137 30.7539 60.3779 30.5137 59.6338C30.2793 58.8896 30.1621 58.0576 30.1621 57.1377V56.0742C30.1621 55.1543 30.2822 54.3223 30.5225 53.5781C30.7686 52.834 31.1201 52.1982 31.5771 51.6709C32.0342 51.1377 32.582 50.7305 33.2207 50.4492C33.8652 50.168 34.5889 50.0273 35.3916 50.0273C36.4111 50.0273 37.2725 50.2148 37.9756 50.5898C38.6787 50.9648 39.2236 51.4834 39.6104 52.1455C40.0029 52.8076 40.2432 53.5664 40.3311 54.4219H38.1338C38.0752 53.8711 37.9463 53.3994 37.7471 53.0068C37.5537 52.6143 37.2666 52.3154 36.8857 52.1104C36.5049 51.8994 36.0068 51.7939 35.3916 51.7939C34.8877 51.7939 34.4482 51.8877 34.0732 52.0752C33.6982 52.2627 33.3848 52.5381 33.1328 52.9014C32.8809 53.2646 32.6904 53.7129 32.5615 54.2461C32.4385 54.7734 32.377 55.377 32.377 56.0566V57.1377C32.377 57.7822 32.4326 58.3682 32.5439 58.8955C32.6611 59.417 32.8369 59.8652 33.0713 60.2402C33.3115 60.6152 33.6162 60.9053 33.9854 61.1104C34.3545 61.3154 34.7969 61.418 35.3125 61.418C35.9395 61.418 36.4463 61.3184 36.833 61.1191C37.2256 60.9199 37.5215 60.6299 37.7207 60.249C37.9258 59.8623 38.0605 59.3906 38.125 58.834ZM49.5068 50.2031H51.7041V58.7549C51.7041 59.7275 51.4932 60.542 51.0713 61.1982C50.6494 61.8545 50.0752 62.3496 49.3486 62.6836C48.6279 63.0117 47.8223 63.1758 46.9316 63.1758C46.0117 63.1758 45.1914 63.0117 44.4707 62.6836C43.75 62.3496 43.1816 61.8545 42.7656 61.1982C42.3555 60.542 42.1504 59.7275 42.1504 58.7549V50.2031H44.3477V58.7549C44.3477 59.3701 44.4531 59.877 44.6641 60.2754C44.875 60.668 45.1738 60.958 45.5605 61.1455C45.9473 61.333 46.4043 61.4268 46.9316 61.4268C47.459 61.4268 47.9131 61.333 48.2939 61.1455C48.6807 60.958 48.9795 60.668 49.1904 60.2754C49.4014 59.877 49.5068 59.3701 49.5068 58.7549V50.2031ZM62.1191 61.251V63H55.6943V61.251H62.1191ZM56.3096 50.2031V63H54.1035V50.2031H56.3096ZM66.8916 50.2031V63H64.7031V50.2031H66.8916ZM70.9082 50.2031V51.9609H60.7217V50.2031H70.9082ZM79.7764 50.2031H81.9736V58.7549C81.9736 59.7275 81.7627 60.542 81.3408 61.1982C80.9189 61.8545 80.3447 62.3496 79.6182 62.6836C78.8975 63.0117 78.0918 63.1758 77.2012 63.1758C76.2812 63.1758 75.4609 63.0117 74.7402 62.6836C74.0195 62.3496 73.4512 61.8545 73.0352 61.1982C72.625 60.542 72.4199 59.7275 72.4199 58.7549V50.2031H74.6172V58.7549C74.6172 59.3701 74.7227 59.877 74.9336 60.2754C75.1445 60.668 75.4434 60.958 75.8301 61.1455C76.2168 61.333 76.6738 61.4268 77.2012 61.4268C77.7285 61.4268 78.1826 61.333 78.5635 61.1455C78.9502 60.958 79.249 60.668 79.46 60.2754C79.6709 59.877 79.7764 59.3701 79.7764 58.7549V50.2031ZM84.373 50.2031H88.8994C89.8721 50.2031 90.7012 50.3496 91.3867 50.6426C92.0723 50.9355 92.5967 51.3691 92.96 51.9434C93.3291 52.5117 93.5137 53.2148 93.5137 54.0527C93.5137 54.6914 93.3965 55.2539 93.1621 55.7402C92.9277 56.2266 92.5967 56.6367 92.1689 56.9707C91.7412 57.2988 91.2314 57.5537 90.6396 57.7354L89.9717 58.0605H85.9023L85.8848 56.3115H88.9346C89.4619 56.3115 89.9014 56.2178 90.2529 56.0303C90.6045 55.8428 90.8682 55.5879 91.0439 55.2656C91.2256 54.9375 91.3164 54.5684 91.3164 54.1582C91.3164 53.7129 91.2285 53.3262 91.0527 52.998C90.8828 52.6641 90.6191 52.4092 90.2617 52.2334C89.9043 52.0518 89.4502 51.9609 88.8994 51.9609H86.5791V63H84.373V50.2031ZM91.6768 63L88.6709 57.252L90.9824 57.2432L94.0322 62.8857V63H91.6768ZM104.087 61.251V63H97.293V61.251H104.087ZM97.917 50.2031V63H95.7109V50.2031H97.917ZM103.199 55.5469V57.2695H97.293V55.5469H103.199ZM104.043 50.2031V51.9609H97.293V50.2031H104.043ZM111.268 50.2031H113.236L116.937 60.0732L120.628 50.2031H122.597L117.71 63H116.146L111.268 50.2031ZM110.371 50.2031H112.243L112.568 58.7461V63H110.371V50.2031ZM121.621 50.2031H123.502V63H121.296V58.7461L121.621 50.2031ZM134.497 61.251V63H127.703V61.251H134.497ZM128.327 50.2031V63H126.121V50.2031H128.327ZM133.609 55.5469V57.2695H127.703V55.5469H133.609ZM134.453 50.2031V51.9609H127.703V50.2031H134.453ZM140.017 63H137.283L137.301 61.251H140.017C140.808 61.251 141.47 61.0781 142.003 60.7324C142.542 60.3867 142.946 59.8916 143.216 59.2471C143.491 58.6025 143.629 57.835 143.629 56.9443V56.25C143.629 55.5586 143.55 54.9463 143.392 54.4131C143.239 53.8799 143.011 53.4316 142.706 53.0684C142.407 52.7051 142.038 52.4297 141.599 52.2422C141.165 52.0547 140.664 51.9609 140.096 51.9609H137.23V50.2031H140.096C140.945 50.2031 141.722 50.3467 142.425 50.6338C143.128 50.915 143.734 51.3223 144.244 51.8555C144.76 52.3887 145.155 53.0273 145.431 53.7715C145.706 54.5156 145.844 55.3477 145.844 56.2676V56.9443C145.844 57.8643 145.706 58.6963 145.431 59.4404C145.155 60.1846 144.76 60.8232 144.244 61.3564C143.729 61.8838 143.113 62.291 142.398 62.5781C141.689 62.8594 140.896 63 140.017 63ZM138.505 50.2031V63H136.299V50.2031H138.505ZM150.414 50.2031V63H148.208V50.2031H150.414ZM158.298 51.9082L154.475 63H152.163L156.979 50.2031H158.456L158.298 51.9082ZM161.497 63L157.665 51.9082L157.498 50.2031H158.983L163.817 63H161.497ZM161.312 58.2539V60.0029H154.352V58.2539H161.312ZM179.559 56.4609V61.3477C179.377 61.5879 179.093 61.8516 178.706 62.1387C178.325 62.4199 177.818 62.6631 177.186 62.8682C176.553 63.0732 175.765 63.1758 174.821 63.1758C174.019 63.1758 173.283 63.041 172.615 62.7715C171.947 62.4961 171.37 62.0947 170.884 61.5674C170.403 61.04 170.031 60.3984 169.768 59.6426C169.504 58.8809 169.372 58.0137 169.372 57.041V56.1533C169.372 55.1865 169.492 54.3252 169.732 53.5693C169.979 52.8076 170.33 52.1631 170.787 51.6357C171.244 51.1084 171.795 50.71 172.439 50.4404C173.09 50.165 173.825 50.0273 174.646 50.0273C175.694 50.0273 176.562 50.2031 177.247 50.5547C177.938 50.9004 178.472 51.3809 178.847 51.9961C179.222 52.6113 179.459 53.3145 179.559 54.1055H177.396C177.326 53.6602 177.188 53.2617 176.983 52.9102C176.784 52.5586 176.497 52.2832 176.122 52.084C175.753 51.8789 175.272 51.7764 174.681 51.7764C174.171 51.7764 173.723 51.873 173.336 52.0664C172.949 52.2598 172.627 52.5439 172.369 52.9189C172.117 53.2939 171.927 53.751 171.798 54.29C171.669 54.8291 171.604 55.4443 171.604 56.1357V57.041C171.604 57.7441 171.678 58.3682 171.824 58.9131C171.977 59.458 172.193 59.918 172.475 60.293C172.762 60.668 173.11 60.9521 173.521 61.1455C173.931 61.333 174.394 61.4268 174.909 61.4268C175.413 61.4268 175.826 61.3857 176.148 61.3037C176.471 61.2158 176.726 61.1133 176.913 60.9961C177.106 60.873 177.256 60.7559 177.361 60.6445V58.1045H174.698V56.4609H179.559ZM182.002 50.2031H186.528C187.501 50.2031 188.33 50.3496 189.016 50.6426C189.701 50.9355 190.226 51.3691 190.589 51.9434C190.958 52.5117 191.143 53.2148 191.143 54.0527C191.143 54.6914 191.025 55.2539 190.791 55.7402C190.557 56.2266 190.226 56.6367 189.798 56.9707C189.37 57.2988 188.86 57.5537 188.269 57.7354L187.601 58.0605H183.531L183.514 56.3115H186.563C187.091 56.3115 187.53 56.2178 187.882 56.0303C188.233 55.8428 188.497 55.5879 188.673 55.2656C188.854 54.9375 188.945 54.5684 188.945 54.1582C188.945 53.7129 188.857 53.3262 188.682 52.998C188.512 52.6641 188.248 52.4092 187.891 52.2334C187.533 52.0518 187.079 51.9609 186.528 51.9609H184.208V63H182.002V50.2031ZM189.306 63L186.3 57.252L188.611 57.2432L191.661 62.8857V63H189.306ZM203.544 56.25V56.9531C203.544 57.9199 203.418 58.7871 203.166 59.5547C202.914 60.3223 202.554 60.9756 202.085 61.5146C201.622 62.0537 201.065 62.4668 200.415 62.7539C199.765 63.0352 199.044 63.1758 198.253 63.1758C197.468 63.1758 196.75 63.0352 196.1 62.7539C195.455 62.4668 194.896 62.0537 194.421 61.5146C193.946 60.9756 193.577 60.3223 193.313 59.5547C193.056 58.7871 192.927 57.9199 192.927 56.9531V56.25C192.927 55.2832 193.056 54.4189 193.313 53.6572C193.571 52.8896 193.935 52.2363 194.403 51.6973C194.878 51.1523 195.438 50.7393 196.082 50.458C196.732 50.1709 197.45 50.0273 198.235 50.0273C199.026 50.0273 199.747 50.1709 200.397 50.458C201.048 50.7393 201.607 51.1523 202.076 51.6973C202.545 52.2363 202.905 52.8896 203.157 53.6572C203.415 54.4189 203.544 55.2832 203.544 56.25ZM201.338 56.9531V56.2324C201.338 55.5176 201.268 54.8877 201.127 54.3428C200.992 53.792 200.79 53.332 200.521 52.9629C200.257 52.5879 199.932 52.3066 199.545 52.1191C199.158 51.9258 198.722 51.8291 198.235 51.8291C197.749 51.8291 197.315 51.9258 196.935 52.1191C196.554 52.3066 196.229 52.5879 195.959 52.9629C195.695 53.332 195.493 53.792 195.353 54.3428C195.212 54.8877 195.142 55.5176 195.142 56.2324V56.9531C195.142 57.668 195.212 58.3008 195.353 58.8516C195.493 59.4023 195.698 59.8682 195.968 60.249C196.243 60.624 196.571 60.9082 196.952 61.1016C197.333 61.2891 197.767 61.3828 198.253 61.3828C198.745 61.3828 199.182 61.2891 199.562 61.1016C199.943 60.9082 200.266 60.624 200.529 60.249C200.793 59.8682 200.992 59.4023 201.127 58.8516C201.268 58.3008 201.338 57.668 201.338 56.9531ZM212.931 50.2031H215.128V58.7549C215.128 59.7275 214.917 60.542 214.495 61.1982C214.073 61.8545 213.499 62.3496 212.772 62.6836C212.052 63.0117 211.246 63.1758 210.355 63.1758C209.436 63.1758 208.615 63.0117 207.895 62.6836C207.174 62.3496 206.605 61.8545 206.189 61.1982C205.779 60.542 205.574 59.7275 205.574 58.7549V50.2031H207.771V58.7549C207.771 59.3701 207.877 59.877 208.088 60.2754C208.299 60.668 208.598 60.958 208.984 61.1455C209.371 61.333 209.828 61.4268 210.355 61.4268C210.883 61.4268 211.337 61.333 211.718 61.1455C212.104 60.958 212.403 60.668 212.614 60.2754C212.825 59.877 212.931 59.3701 212.931 58.7549V50.2031ZM222.388 58.2275H219.057V56.4785H222.388C222.968 56.4785 223.437 56.3848 223.794 56.1973C224.151 56.0098 224.412 55.752 224.576 55.4238C224.746 55.0898 224.831 54.709 224.831 54.2812C224.831 53.877 224.746 53.499 224.576 53.1475C224.412 52.79 224.151 52.5029 223.794 52.2861C223.437 52.0693 222.968 51.9609 222.388 51.9609H219.733V63H217.527V50.2031H222.388C223.378 50.2031 224.219 50.3789 224.91 50.7305C225.607 51.0762 226.138 51.5566 226.501 52.1719C226.864 52.7812 227.046 53.4785 227.046 54.2637C227.046 55.0898 226.864 55.7988 226.501 56.3906C226.138 56.9824 225.607 57.4365 224.91 57.7529C224.219 58.0693 223.378 58.2275 222.388 58.2275Z" fill="#5B5B5B"/>
</svg>
