<svg width="367" height="19" viewBox="0 0 367 19" fill="none" xmlns="http://www.w3.org/2000/svg">
<path d="M11.8655 15.5847V18H2.99316V15.5847H11.8655ZM3.84277 0.328125V18H0.796317V0.328125H3.84277ZM17.4729 0.328125V18H14.4265V0.328125H17.4729ZM22.4978 0.328125H25.2165L30.3263 13.9583L35.424 0.328125H38.1427L31.3944 18H29.234L22.4978 0.328125ZM21.2598 0.328125H23.845L24.2941 12.1256V18H21.2598V0.328125ZM36.7955 0.328125H39.3929V18H36.3464V12.1256L36.7955 0.328125ZM54.5766 15.5847V18H45.1945V15.5847H54.5766ZM46.0562 0.328125V18H43.0098V0.328125H46.0562ZM53.3507 7.70759V10.0865H45.1945V7.70759H53.3507ZM54.5159 0.328125V2.75558H45.1945V0.328125H54.5159ZM71.1561 8.67857V9.64955C71.1561 10.9847 70.9821 12.1822 70.6342 13.2422C70.2863 14.3022 69.7886 15.2044 69.1413 15.9488C68.5021 16.6932 67.7334 17.2637 66.8352 17.6602C65.9371 18.0485 64.9418 18.2427 63.8495 18.2427C62.7652 18.2427 61.774 18.0485 60.8758 17.6602C59.9858 17.2637 59.213 16.6932 58.5576 15.9488C57.9022 15.2044 57.3924 14.3022 57.0283 13.2422C56.6723 12.1822 56.4943 10.9847 56.4943 9.64955V8.67857C56.4943 7.34347 56.6723 6.14997 57.0283 5.09807C57.3843 4.03809 57.886 3.13588 58.5333 2.39146C59.1888 1.63895 59.9615 1.0685 60.8516 0.680106C61.7497 0.283621 62.7409 0.0853791 63.8252 0.0853791C64.9176 0.0853791 65.9128 0.283621 66.811 0.680106C67.7091 1.0685 68.4819 1.63895 69.1292 2.39146C69.7765 3.13588 70.2741 4.03809 70.6221 5.09807C70.9781 6.14997 71.1561 7.34347 71.1561 8.67857ZM68.1097 9.64955V8.6543C68.1097 7.66713 68.0126 6.79729 67.8184 6.04478C67.6323 5.28418 67.3531 4.649 66.9809 4.13923C66.6168 3.62137 66.1677 3.23298 65.6337 2.97405C65.0996 2.70703 64.4968 2.57352 63.8252 2.57352C63.1536 2.57352 62.5548 2.70703 62.0289 2.97405C61.5029 3.23298 61.0539 3.62137 60.6816 4.13923C60.3175 4.649 60.0384 5.28418 59.8442 6.04478C59.65 6.79729 59.5529 7.66713 59.5529 8.6543V9.64955C59.5529 10.6367 59.65 11.5106 59.8442 12.2712C60.0384 13.0318 60.3216 13.6751 60.6938 14.201C61.0741 14.7189 61.5272 15.1113 62.0532 15.3783C62.5791 15.6373 63.1779 15.7667 63.8495 15.7667C64.5292 15.7667 65.132 15.6373 65.6579 15.3783C66.1839 15.1113 66.6289 14.7189 66.993 14.201C67.3571 13.6751 67.6323 13.0318 67.8184 12.2712C68.0126 11.5106 68.1097 10.6367 68.1097 9.64955ZM74.2026 0.328125H80.4533C81.7965 0.328125 82.9414 0.530413 83.8881 0.934988C84.8348 1.33956 85.559 1.93834 86.0607 2.73131C86.5705 3.51618 86.8253 4.48716 86.8253 5.64425C86.8253 6.52623 86.6635 7.30301 86.3398 7.97461C86.0162 8.64621 85.559 9.21261 84.9683 9.67383C84.3777 10.127 83.6737 10.4789 82.8564 10.7298L81.934 11.1789H76.3145L76.2902 8.76353H80.5018C81.2301 8.76353 81.8369 8.63407 82.3224 8.37514C82.8079 8.11621 83.172 7.76423 83.4148 7.3192C83.6656 6.86607 83.791 6.35631 83.791 5.7899C83.791 5.17494 83.6696 4.6409 83.4269 4.18778C83.1922 3.72656 82.8281 3.37458 82.3345 3.13184C81.841 2.881 81.2139 2.75558 80.4533 2.75558H77.249V18H74.2026V0.328125ZM84.2886 18L80.1377 10.0622L83.3298 10.0501L87.5414 17.8422V18H84.2886ZM96.7415 2.68276L91.4618 18H88.2697L94.9209 0.328125H96.96L96.7415 2.68276ZM101.159 18L95.8676 2.68276L95.637 0.328125H97.6882L104.364 18H101.159ZM100.905 11.4459V13.8612H91.2919V11.4459H100.905ZM120.361 0.328125V18H117.314L109.389 5.34082V18H106.342V0.328125H109.389L117.338 13.0116V0.328125H120.361ZM137.559 8.96987V15.7182C137.308 16.0499 136.916 16.4141 136.382 16.8105C135.856 17.1989 135.156 17.5347 134.282 17.8179C133.408 18.1011 132.32 18.2427 131.017 18.2427C129.909 18.2427 128.893 18.0566 127.971 17.6844C127.048 17.3041 126.251 16.7499 125.58 16.0216C124.916 15.2934 124.402 14.4074 124.038 13.3636C123.674 12.3117 123.492 11.1141 123.492 9.77093V8.54506C123.492 7.20996 123.658 6.02051 123.99 4.9767C124.33 3.9248 124.815 3.03474 125.446 2.3065C126.077 1.57826 126.838 1.02804 127.728 0.655831C128.626 0.27553 129.642 0.0853791 130.774 0.0853791C132.223 0.0853791 133.42 0.328125 134.367 0.813616C135.322 1.29102 136.058 1.95452 136.576 2.80413C137.094 3.65374 137.422 4.62472 137.559 5.71708H134.573C134.476 5.10212 134.286 4.5519 134.003 4.06641C133.728 3.58091 133.331 3.20061 132.813 2.9255C132.304 2.6423 131.64 2.5007 130.823 2.5007C130.119 2.5007 129.5 2.63421 128.966 2.90123C128.432 3.16825 127.987 3.56069 127.631 4.07854C127.283 4.5964 127.02 5.22754 126.842 5.97196C126.664 6.71638 126.575 7.56599 126.575 8.52079V9.77093C126.575 10.7419 126.676 11.6037 126.878 12.3562C127.089 13.1087 127.388 13.7439 127.777 14.2617C128.173 14.7796 128.654 15.172 129.221 15.439C129.787 15.698 130.426 15.8274 131.139 15.8274C131.834 15.8274 132.405 15.7708 132.85 15.6575C133.295 15.5361 133.647 15.3945 133.906 15.2327C134.173 15.0628 134.379 14.9009 134.525 14.7472V11.2395H130.847V8.96987H137.559ZM152.5 15.5847V18H143.118V15.5847H152.5ZM143.98 0.328125V18H140.933V0.328125H143.98ZM151.274 7.70759V10.0865H143.118V7.70759H151.274ZM152.439 0.328125V2.75558H143.118V0.328125H152.439ZM171.616 12.2469H174.651C174.554 13.404 174.23 14.4357 173.68 15.3419C173.129 16.2401 172.357 16.9481 171.361 17.466C170.366 17.9838 169.157 18.2427 167.732 18.2427C166.64 18.2427 165.657 18.0485 164.783 17.6602C163.909 17.2637 163.161 16.7054 162.538 15.9852C161.915 15.257 161.437 14.379 161.105 13.3514C160.782 12.3238 160.62 11.1748 160.62 9.90444V8.43583C160.62 7.16546 160.786 6.01646 161.118 4.98884C161.457 3.96122 161.943 3.08329 162.574 2.35505C163.205 1.61872 163.962 1.05636 164.844 0.667968C165.734 0.279576 166.733 0.0853791 167.842 0.0853791C169.25 0.0853791 170.439 0.344308 171.41 0.862165C172.381 1.38002 173.134 2.09612 173.668 3.01046C174.21 3.9248 174.541 4.97266 174.663 6.15402H171.628C171.548 5.39341 171.37 4.74205 171.094 4.19992C170.827 3.65778 170.431 3.24512 169.905 2.96191C169.379 2.67062 168.691 2.52497 167.842 2.52497C167.146 2.52497 166.539 2.65444 166.021 2.91336C165.503 3.17229 165.07 3.55259 164.722 4.05427C164.374 4.55594 164.111 5.17494 163.933 5.91127C163.764 6.63951 163.679 7.47294 163.679 8.41155V9.90444C163.679 10.7945 163.755 11.6037 163.909 12.3319C164.071 13.052 164.314 13.671 164.637 14.1889C164.969 14.7068 165.39 15.1073 165.9 15.3905C166.409 15.6737 167.02 15.8153 167.732 15.8153C168.598 15.8153 169.298 15.6777 169.832 15.4026C170.374 15.1275 170.783 14.727 171.058 14.201C171.341 13.667 171.527 13.0156 171.616 12.2469ZM190.987 8.96987V15.7182C190.737 16.0499 190.344 16.4141 189.81 16.8105C189.284 17.1989 188.584 17.5347 187.71 17.8179C186.837 18.1011 185.748 18.2427 184.445 18.2427C183.337 18.2427 182.321 18.0566 181.399 17.6844C180.477 17.3041 179.68 16.7499 179.008 16.0216C178.344 15.2934 177.831 14.4074 177.467 13.3636C177.102 12.3117 176.92 11.1141 176.92 9.77093V8.54506C176.92 7.20996 177.086 6.02051 177.418 4.9767C177.758 3.9248 178.243 3.03474 178.874 2.3065C179.506 1.57826 180.266 1.02804 181.156 0.655831C182.054 0.27553 183.07 0.0853791 184.203 0.0853791C185.651 0.0853791 186.849 0.328125 187.795 0.813616C188.75 1.29102 189.486 1.95452 190.004 2.80413C190.522 3.65374 190.85 4.62472 190.987 5.71708H188.002C187.905 5.10212 187.714 4.5519 187.431 4.06641C187.156 3.58091 186.76 3.20061 186.242 2.9255C185.732 2.6423 185.069 2.5007 184.251 2.5007C183.547 2.5007 182.928 2.63421 182.394 2.90123C181.86 3.16825 181.415 3.56069 181.059 4.07854C180.711 4.5964 180.448 5.22754 180.27 5.97196C180.092 6.71638 180.003 7.56599 180.003 8.52079V9.77093C180.003 10.7419 180.104 11.6037 180.307 12.3562C180.517 13.1087 180.816 13.7439 181.205 14.2617C181.601 14.7796 182.083 15.172 182.649 15.439C183.216 15.698 183.855 15.8274 184.567 15.8274C185.263 15.8274 185.833 15.7708 186.278 15.6575C186.723 15.5361 187.075 15.3945 187.334 15.2327C187.601 15.0628 187.807 14.9009 187.953 14.7472V11.2395H184.276V8.96987H190.987ZM210.99 12.2469H214.024C213.927 13.404 213.603 14.4357 213.053 15.3419C212.503 16.2401 211.73 16.9481 210.735 17.466C209.74 17.9838 208.53 18.2427 207.106 18.2427C206.013 18.2427 205.03 18.0485 204.156 17.6602C203.283 17.2637 202.534 16.7054 201.911 15.9852C201.288 15.257 200.811 14.379 200.479 13.3514C200.155 12.3238 199.993 11.1748 199.993 9.90444V8.43583C199.993 7.16546 200.159 6.01646 200.491 4.98884C200.831 3.96122 201.316 3.08329 201.947 2.35505C202.579 1.61872 203.335 1.05636 204.217 0.667968C205.107 0.279576 206.106 0.0853791 207.215 0.0853791C208.623 0.0853791 209.812 0.344308 210.783 0.862165C211.754 1.38002 212.507 2.09612 213.041 3.01046C213.583 3.9248 213.915 4.97266 214.036 6.15402H211.002C210.921 5.39341 210.743 4.74205 210.468 4.19992C210.201 3.65778 209.804 3.24512 209.278 2.96191C208.752 2.67062 208.065 2.52497 207.215 2.52497C206.519 2.52497 205.912 2.65444 205.394 2.91336C204.877 3.17229 204.444 3.55259 204.096 4.05427C203.748 4.55594 203.485 5.17494 203.307 5.91127C203.137 6.63951 203.052 7.47294 203.052 8.41155V9.90444C203.052 10.7945 203.129 11.6037 203.283 12.3319C203.444 13.052 203.687 13.671 204.011 14.1889C204.343 14.7068 204.763 15.1073 205.273 15.3905C205.783 15.6737 206.394 15.8153 207.106 15.8153C207.972 15.8153 208.671 15.6777 209.206 15.4026C209.748 15.1275 210.156 14.727 210.431 14.201C210.715 13.667 210.901 13.0156 210.99 12.2469ZM230.883 8.67857V9.64955C230.883 10.9847 230.709 12.1822 230.361 13.2422C230.013 14.3022 229.515 15.2044 228.868 15.9488C228.229 16.6932 227.46 17.2637 226.562 17.6602C225.664 18.0485 224.668 18.2427 223.576 18.2427C222.492 18.2427 221.501 18.0485 220.602 17.6602C219.712 17.2637 218.94 16.6932 218.284 15.9488C217.629 15.2044 217.119 14.3022 216.755 13.2422C216.399 12.1822 216.221 10.9847 216.221 9.64955V8.67857C216.221 7.34347 216.399 6.14997 216.755 5.09807C217.111 4.03809 217.613 3.13588 218.26 2.39146C218.915 1.63895 219.688 1.0685 220.578 0.680106C221.476 0.283621 222.467 0.0853791 223.552 0.0853791C224.644 0.0853791 225.639 0.283621 226.538 0.680106C227.436 1.0685 228.208 1.63895 228.856 2.39146C229.503 3.13588 230.001 4.03809 230.349 5.09807C230.705 6.14997 230.883 7.34347 230.883 8.67857ZM227.836 9.64955V8.6543C227.836 7.66713 227.739 6.79729 227.545 6.04478C227.359 5.28418 227.08 4.649 226.707 4.13923C226.343 3.62137 225.894 3.23298 225.36 2.97405C224.826 2.70703 224.223 2.57352 223.552 2.57352C222.88 2.57352 222.281 2.70703 221.755 2.97405C221.229 3.23298 220.78 3.62137 220.408 4.13923C220.044 4.649 219.765 5.28418 219.571 6.04478C219.377 6.79729 219.279 7.66713 219.279 8.6543V9.64955C219.279 10.6367 219.377 11.5106 219.571 12.2712C219.765 13.0318 220.048 13.6751 220.42 14.201C220.801 14.7189 221.254 15.1113 221.78 15.3783C222.306 15.6373 222.904 15.7667 223.576 15.7667C224.256 15.7667 224.859 15.6373 225.384 15.3783C225.91 15.1113 226.355 14.7189 226.72 14.201C227.084 13.6751 227.359 13.0318 227.545 12.2712C227.739 11.5106 227.836 10.6367 227.836 9.64955ZM233.929 0.328125H240.18C241.523 0.328125 242.668 0.530413 243.615 0.934988C244.561 1.33956 245.286 1.93834 245.787 2.73131C246.297 3.51618 246.552 4.48716 246.552 5.64425C246.552 6.52623 246.39 7.30301 246.066 7.97461C245.743 8.64621 245.286 9.21261 244.695 9.67383C244.104 10.127 243.4 10.4789 242.583 10.7298L241.661 11.1789H236.041L236.017 8.76353H240.228C240.957 8.76353 241.563 8.63407 242.049 8.37514C242.534 8.11621 242.899 7.76423 243.141 7.3192C243.392 6.86607 243.518 6.35631 243.518 5.7899C243.518 5.17494 243.396 4.6409 243.153 4.18778C242.919 3.72656 242.555 3.37458 242.061 3.13184C241.568 2.881 240.94 2.75558 240.18 2.75558H236.976V18H233.929V0.328125ZM244.015 18L239.864 10.0622L243.056 10.0501L247.268 17.8422V18H244.015ZM256.298 11.4095H251.698V8.99414H256.298C257.099 8.99414 257.747 8.86468 258.24 8.60575C258.734 8.34682 259.094 7.99079 259.32 7.53767C259.555 7.07645 259.672 6.5505 259.672 5.95982C259.672 5.40151 259.555 4.8796 259.32 4.39411C259.094 3.90053 258.734 3.50405 258.24 3.20466C257.747 2.90527 257.099 2.75558 256.298 2.75558H252.633V18H249.586V0.328125H256.298C257.666 0.328125 258.827 0.57087 259.782 1.05636C260.744 1.53376 261.477 2.19727 261.978 3.04687C262.48 3.88839 262.731 4.85128 262.731 5.93555C262.731 7.07645 262.48 8.05552 261.978 8.87277C261.477 9.69001 260.744 10.3171 259.782 10.754C258.827 11.191 257.666 11.4095 256.298 11.4095ZM279.553 8.67857V9.64955C279.553 10.9847 279.379 12.1822 279.031 13.2422C278.683 14.3022 278.186 15.2044 277.538 15.9488C276.899 16.6932 276.13 17.2637 275.232 17.6602C274.334 18.0485 273.339 18.2427 272.247 18.2427C271.162 18.2427 270.171 18.0485 269.273 17.6602C268.383 17.2637 267.61 16.6932 266.955 15.9488C266.299 15.2044 265.789 14.3022 265.425 13.2422C265.069 12.1822 264.891 10.9847 264.891 9.64955V8.67857C264.891 7.34347 265.069 6.14997 265.425 5.09807C265.781 4.03809 266.283 3.13588 266.93 2.39146C267.586 1.63895 268.359 1.0685 269.249 0.680106C270.147 0.283621 271.138 0.0853791 272.222 0.0853791C273.315 0.0853791 274.31 0.283621 275.208 0.680106C276.106 1.0685 276.879 1.63895 277.526 2.39146C278.174 3.13588 278.671 4.03809 279.019 5.09807C279.375 6.14997 279.553 7.34347 279.553 8.67857ZM276.507 9.64955V8.6543C276.507 7.66713 276.41 6.79729 276.215 6.04478C276.029 5.28418 275.75 4.649 275.378 4.13923C275.014 3.62137 274.565 3.23298 274.031 2.97405C273.497 2.70703 272.894 2.57352 272.222 2.57352C271.551 2.57352 270.952 2.70703 270.426 2.97405C269.9 3.23298 269.451 3.62137 269.079 4.13923C268.715 4.649 268.435 5.28418 268.241 6.04478C268.047 6.79729 267.95 7.66713 267.95 8.6543V9.64955C267.95 10.6367 268.047 11.5106 268.241 12.2712C268.435 13.0318 268.719 13.6751 269.091 14.201C269.471 14.7189 269.924 15.1113 270.45 15.3783C270.976 15.6373 271.575 15.7667 272.247 15.7667C272.926 15.7667 273.529 15.6373 274.055 15.3783C274.581 15.1113 275.026 14.7189 275.39 14.201C275.754 13.6751 276.029 13.0318 276.215 12.2712C276.41 11.5106 276.507 10.6367 276.507 9.64955ZM282.6 0.328125H288.85C290.193 0.328125 291.338 0.530413 292.285 0.934988C293.232 1.33956 293.956 1.93834 294.458 2.73131C294.967 3.51618 295.222 4.48716 295.222 5.64425C295.222 6.52623 295.061 7.30301 294.737 7.97461C294.413 8.64621 293.956 9.21261 293.365 9.67383C292.775 10.127 292.071 10.4789 291.253 10.7298L290.331 11.1789H284.711L284.687 8.76353H288.899C289.627 8.76353 290.234 8.63407 290.719 8.37514C291.205 8.11621 291.569 7.76423 291.812 7.3192C292.063 6.86607 292.188 6.35631 292.188 5.7899C292.188 5.17494 292.067 4.6409 291.824 4.18778C291.589 3.72656 291.225 3.37458 290.732 3.13184C290.238 2.881 289.611 2.75558 288.85 2.75558H285.646V18H282.6V0.328125ZM292.686 18L288.535 10.0622L291.727 10.0501L295.938 17.8422V18H292.686ZM305.139 2.68276L299.859 18H296.667L303.318 0.328125H305.357L305.139 2.68276ZM309.557 18L304.265 2.68276L304.034 0.328125H306.085L312.761 18H309.557ZM309.302 11.4459V13.8612H299.689V11.4459H309.302ZM320.48 0.328125V18H317.458V0.328125H320.48ZM326.027 0.328125V2.75558H311.96V0.328125H326.027ZM331.61 0.328125V18H328.563V0.328125H331.61ZM349.488 8.67857V9.64955C349.488 10.9847 349.314 12.1822 348.966 13.2422C348.618 14.3022 348.121 15.2044 347.473 15.9488C346.834 16.6932 346.065 17.2637 345.167 17.6602C344.269 18.0485 343.274 18.2427 342.182 18.2427C341.097 18.2427 340.106 18.0485 339.208 17.6602C338.318 17.2637 337.545 16.6932 336.89 15.9488C336.234 15.2044 335.724 14.3022 335.36 13.2422C335.004 12.1822 334.826 10.9847 334.826 9.64955V8.67857C334.826 7.34347 335.004 6.14997 335.36 5.09807C335.716 4.03809 336.218 3.13588 336.865 2.39146C337.521 1.63895 338.294 1.0685 339.184 0.680106C340.082 0.283621 341.073 0.0853791 342.157 0.0853791C343.25 0.0853791 344.245 0.283621 345.143 0.680106C346.041 1.0685 346.814 1.63895 347.461 2.39146C348.109 3.13588 348.606 4.03809 348.954 5.09807C349.31 6.14997 349.488 7.34347 349.488 8.67857ZM346.442 9.64955V8.6543C346.442 7.66713 346.345 6.79729 346.15 6.04478C345.964 5.28418 345.685 4.649 345.313 4.13923C344.949 3.62137 344.5 3.23298 343.966 2.97405C343.432 2.70703 342.829 2.57352 342.157 2.57352C341.486 2.57352 340.887 2.70703 340.361 2.97405C339.835 3.23298 339.386 3.62137 339.014 4.13923C338.65 4.649 338.37 5.28418 338.176 6.04478C337.982 6.79729 337.885 7.66713 337.885 8.6543V9.64955C337.885 10.6367 337.982 11.5106 338.176 12.2712C338.37 13.0318 338.654 13.6751 339.026 14.201C339.406 14.7189 339.859 15.1113 340.385 15.3783C340.911 15.6373 341.51 15.7667 342.182 15.7667C342.861 15.7667 343.464 15.6373 343.99 15.3783C344.516 15.1113 344.961 14.7189 345.325 14.201C345.689 13.6751 345.964 13.0318 346.15 12.2712C346.345 11.5106 346.442 10.6367 346.442 9.64955ZM366.553 0.328125V18H363.507L355.581 5.34082V18H352.535V0.328125H355.581L363.531 13.0116V0.328125H366.553Z" fill="black"/>
</svg>
