<svg width="351" height="19" viewBox="0 0 351 19" fill="none" xmlns="http://www.w3.org/2000/svg">
<path d="M11.8655 15.5847V18H2.99316V15.5847H11.8655ZM3.84277 0.328125V18H0.796317V0.328125H3.84277ZM17.4729 0.328125V18H14.4265V0.328125H17.4729ZM22.4978 0.328125H25.2165L30.3263 13.9583L35.424 0.328125H38.1427L31.3944 18H29.234L22.4978 0.328125ZM21.2598 0.328125H23.845L24.2941 12.1256V18H21.2598V0.328125ZM36.7955 0.328125H39.3929V18H36.3464V12.1256L36.7955 0.328125ZM54.5766 15.5847V18H45.1945V15.5847H54.5766ZM46.0562 0.328125V18H43.0098V0.328125H46.0562ZM53.3507 7.70759V10.0865H45.1945V7.70759H53.3507ZM54.5159 0.328125V2.75558H45.1945V0.328125H54.5159ZM71.1561 8.67857V9.64955C71.1561 10.9847 70.9821 12.1822 70.6342 13.2422C70.2863 14.3022 69.7886 15.2044 69.1413 15.9488C68.5021 16.6932 67.7334 17.2637 66.8352 17.6602C65.9371 18.0485 64.9418 18.2427 63.8495 18.2427C62.7652 18.2427 61.774 18.0485 60.8758 17.6602C59.9858 17.2637 59.213 16.6932 58.5576 15.9488C57.9022 15.2044 57.3924 14.3022 57.0283 13.2422C56.6723 12.1822 56.4943 10.9847 56.4943 9.64955V8.67857C56.4943 7.34347 56.6723 6.14997 57.0283 5.09807C57.3843 4.03809 57.886 3.13588 58.5333 2.39146C59.1888 1.63895 59.9615 1.0685 60.8516 0.680106C61.7497 0.283621 62.7409 0.0853791 63.8252 0.0853791C64.9176 0.0853791 65.9128 0.283621 66.811 0.680106C67.7091 1.0685 68.4819 1.63895 69.1292 2.39146C69.7765 3.13588 70.2741 4.03809 70.6221 5.09807C70.9781 6.14997 71.1561 7.34347 71.1561 8.67857ZM68.1097 9.64955V8.6543C68.1097 7.66713 68.0126 6.79729 67.8184 6.04478C67.6323 5.28418 67.3531 4.649 66.9809 4.13923C66.6168 3.62137 66.1677 3.23298 65.6337 2.97405C65.0996 2.70703 64.4968 2.57352 63.8252 2.57352C63.1536 2.57352 62.5548 2.70703 62.0289 2.97405C61.5029 3.23298 61.0539 3.62137 60.6816 4.13923C60.3175 4.649 60.0384 5.28418 59.8442 6.04478C59.65 6.79729 59.5529 7.66713 59.5529 8.6543V9.64955C59.5529 10.6367 59.65 11.5106 59.8442 12.2712C60.0384 13.0318 60.3216 13.6751 60.6938 14.201C61.0741 14.7189 61.5272 15.1113 62.0532 15.3783C62.5791 15.6373 63.1779 15.7667 63.8495 15.7667C64.5292 15.7667 65.132 15.6373 65.6579 15.3783C66.1839 15.1113 66.6289 14.7189 66.993 14.201C67.3571 13.6751 67.6323 13.0318 67.8184 12.2712C68.0126 11.5106 68.1097 10.6367 68.1097 9.64955ZM74.2026 0.328125H80.4533C81.7965 0.328125 82.9414 0.530413 83.8881 0.934988C84.8348 1.33956 85.559 1.93834 86.0607 2.73131C86.5705 3.51618 86.8253 4.48716 86.8253 5.64425C86.8253 6.52623 86.6635 7.30301 86.3398 7.97461C86.0162 8.64621 85.559 9.21261 84.9683 9.67383C84.3777 10.127 83.6737 10.4789 82.8564 10.7298L81.934 11.1789H76.3145L76.2902 8.76353H80.5018C81.2301 8.76353 81.8369 8.63407 82.3224 8.37514C82.8079 8.11621 83.172 7.76423 83.4148 7.3192C83.6656 6.86607 83.791 6.35631 83.791 5.7899C83.791 5.17494 83.6696 4.6409 83.4269 4.18778C83.1922 3.72656 82.8281 3.37458 82.3345 3.13184C81.841 2.881 81.2139 2.75558 80.4533 2.75558H77.249V18H74.2026V0.328125ZM84.2886 18L80.1377 10.0622L83.3298 10.0501L87.5414 17.8422V18H84.2886ZM96.7415 2.68276L91.4618 18H88.2697L94.9209 0.328125H96.96L96.7415 2.68276ZM101.159 18L95.8676 2.68276L95.637 0.328125H97.6882L104.364 18H101.159ZM100.905 11.4459V13.8612H91.2919V11.4459H100.905ZM120.361 0.328125V18H117.314L109.389 5.34082V18H106.342V0.328125H109.389L117.338 13.0116V0.328125H120.361ZM137.559 8.96987V15.7182C137.308 16.0499 136.916 16.4141 136.382 16.8105C135.856 17.1989 135.156 17.5347 134.282 17.8179C133.408 18.1011 132.32 18.2427 131.017 18.2427C129.909 18.2427 128.893 18.0566 127.971 17.6844C127.048 17.3041 126.251 16.7499 125.58 16.0216C124.916 15.2934 124.402 14.4074 124.038 13.3636C123.674 12.3117 123.492 11.1141 123.492 9.77093V8.54506C123.492 7.20996 123.658 6.02051 123.99 4.9767C124.33 3.9248 124.815 3.03474 125.446 2.3065C126.077 1.57826 126.838 1.02804 127.728 0.655831C128.626 0.27553 129.642 0.0853791 130.774 0.0853791C132.223 0.0853791 133.42 0.328125 134.367 0.813616C135.322 1.29102 136.058 1.95452 136.576 2.80413C137.094 3.65374 137.422 4.62472 137.559 5.71708H134.573C134.476 5.10212 134.286 4.5519 134.003 4.06641C133.728 3.58091 133.331 3.20061 132.813 2.9255C132.304 2.6423 131.64 2.5007 130.823 2.5007C130.119 2.5007 129.5 2.63421 128.966 2.90123C128.432 3.16825 127.987 3.56069 127.631 4.07854C127.283 4.5964 127.02 5.22754 126.842 5.97196C126.664 6.71638 126.575 7.56599 126.575 8.52079V9.77093C126.575 10.7419 126.676 11.6037 126.878 12.3562C127.089 13.1087 127.388 13.7439 127.777 14.2617C128.173 14.7796 128.654 15.172 129.221 15.439C129.787 15.698 130.426 15.8274 131.139 15.8274C131.834 15.8274 132.405 15.7708 132.85 15.6575C133.295 15.5361 133.647 15.3945 133.906 15.2327C134.173 15.0628 134.379 14.9009 134.525 14.7472V11.2395H130.847V8.96987H137.559ZM152.5 15.5847V18H143.118V15.5847H152.5ZM143.98 0.328125V18H140.933V0.328125H143.98ZM151.274 7.70759V10.0865H143.118V7.70759H151.274ZM152.439 0.328125V2.75558H143.118V0.328125H152.439ZM171.616 12.2469H174.651C174.554 13.404 174.23 14.4357 173.68 15.3419C173.129 16.2401 172.357 16.9481 171.361 17.466C170.366 17.9838 169.157 18.2427 167.732 18.2427C166.64 18.2427 165.657 18.0485 164.783 17.6602C163.909 17.2637 163.161 16.7054 162.538 15.9852C161.915 15.257 161.437 14.379 161.105 13.3514C160.782 12.3238 160.62 11.1748 160.62 9.90444V8.43583C160.62 7.16546 160.786 6.01646 161.118 4.98884C161.457 3.96122 161.943 3.08329 162.574 2.35505C163.205 1.61872 163.962 1.05636 164.844 0.667968C165.734 0.279576 166.733 0.0853791 167.842 0.0853791C169.25 0.0853791 170.439 0.344308 171.41 0.862165C172.381 1.38002 173.134 2.09612 173.668 3.01046C174.21 3.9248 174.541 4.97266 174.663 6.15402H171.628C171.548 5.39341 171.37 4.74205 171.094 4.19992C170.827 3.65778 170.431 3.24512 169.905 2.96191C169.379 2.67062 168.691 2.52497 167.842 2.52497C167.146 2.52497 166.539 2.65444 166.021 2.91336C165.503 3.17229 165.07 3.55259 164.722 4.05427C164.374 4.55594 164.111 5.17494 163.933 5.91127C163.764 6.63951 163.679 7.47294 163.679 8.41155V9.90444C163.679 10.7945 163.755 11.6037 163.909 12.3319C164.071 13.052 164.314 13.671 164.637 14.1889C164.969 14.7068 165.39 15.1073 165.9 15.3905C166.409 15.6737 167.02 15.8153 167.732 15.8153C168.598 15.8153 169.298 15.6777 169.832 15.4026C170.374 15.1275 170.783 14.727 171.058 14.201C171.341 13.667 171.527 13.0156 171.616 12.2469ZM190.987 8.96987V15.7182C190.737 16.0499 190.344 16.4141 189.81 16.8105C189.284 17.1989 188.584 17.5347 187.71 17.8179C186.837 18.1011 185.748 18.2427 184.445 18.2427C183.337 18.2427 182.321 18.0566 181.399 17.6844C180.477 17.3041 179.68 16.7499 179.008 16.0216C178.344 15.2934 177.831 14.4074 177.467 13.3636C177.102 12.3117 176.92 11.1141 176.92 9.77093V8.54506C176.92 7.20996 177.086 6.02051 177.418 4.9767C177.758 3.9248 178.243 3.03474 178.874 2.3065C179.506 1.57826 180.266 1.02804 181.156 0.655831C182.054 0.27553 183.07 0.0853791 184.203 0.0853791C185.651 0.0853791 186.849 0.328125 187.795 0.813616C188.75 1.29102 189.486 1.95452 190.004 2.80413C190.522 3.65374 190.85 4.62472 190.987 5.71708H188.002C187.905 5.10212 187.714 4.5519 187.431 4.06641C187.156 3.58091 186.76 3.20061 186.242 2.9255C185.732 2.6423 185.069 2.5007 184.251 2.5007C183.547 2.5007 182.928 2.63421 182.394 2.90123C181.86 3.16825 181.415 3.56069 181.059 4.07854C180.711 4.5964 180.448 5.22754 180.27 5.97196C180.092 6.71638 180.003 7.56599 180.003 8.52079V9.77093C180.003 10.7419 180.104 11.6037 180.307 12.3562C180.517 13.1087 180.816 13.7439 181.205 14.2617C181.601 14.7796 182.083 15.172 182.649 15.439C183.216 15.698 183.855 15.8274 184.567 15.8274C185.263 15.8274 185.833 15.7708 186.278 15.6575C186.723 15.5361 187.075 15.3945 187.334 15.2327C187.601 15.0628 187.807 14.9009 187.953 14.7472V11.2395H184.276V8.96987H190.987ZM210.99 12.2469H214.024C213.927 13.404 213.603 14.4357 213.053 15.3419C212.503 16.2401 211.73 16.9481 210.735 17.466C209.74 17.9838 208.53 18.2427 207.106 18.2427C206.013 18.2427 205.03 18.0485 204.156 17.6602C203.283 17.2637 202.534 16.7054 201.911 15.9852C201.288 15.257 200.811 14.379 200.479 13.3514C200.155 12.3238 199.993 11.1748 199.993 9.90444V8.43583C199.993 7.16546 200.159 6.01646 200.491 4.98884C200.831 3.96122 201.316 3.08329 201.947 2.35505C202.579 1.61872 203.335 1.05636 204.217 0.667968C205.107 0.279576 206.106 0.0853791 207.215 0.0853791C208.623 0.0853791 209.812 0.344308 210.783 0.862165C211.754 1.38002 212.507 2.09612 213.041 3.01046C213.583 3.9248 213.915 4.97266 214.036 6.15402H211.002C210.921 5.39341 210.743 4.74205 210.468 4.19992C210.201 3.65778 209.804 3.24512 209.278 2.96191C208.752 2.67062 208.065 2.52497 207.215 2.52497C206.519 2.52497 205.912 2.65444 205.394 2.91336C204.877 3.17229 204.444 3.55259 204.096 4.05427C203.748 4.55594 203.485 5.17494 203.307 5.91127C203.137 6.63951 203.052 7.47294 203.052 8.41155V9.90444C203.052 10.7945 203.129 11.6037 203.283 12.3319C203.444 13.052 203.687 13.671 204.011 14.1889C204.343 14.7068 204.763 15.1073 205.273 15.3905C205.783 15.6737 206.394 15.8153 207.106 15.8153C207.972 15.8153 208.671 15.6777 209.206 15.4026C209.748 15.1275 210.156 14.727 210.431 14.201C210.715 13.667 210.901 13.0156 210.99 12.2469ZM230.883 8.67857V9.64955C230.883 10.9847 230.709 12.1822 230.361 13.2422C230.013 14.3022 229.515 15.2044 228.868 15.9488C228.229 16.6932 227.46 17.2637 226.562 17.6602C225.664 18.0485 224.668 18.2427 223.576 18.2427C222.492 18.2427 221.501 18.0485 220.602 17.6602C219.712 17.2637 218.94 16.6932 218.284 15.9488C217.629 15.2044 217.119 14.3022 216.755 13.2422C216.399 12.1822 216.221 10.9847 216.221 9.64955V8.67857C216.221 7.34347 216.399 6.14997 216.755 5.09807C217.111 4.03809 217.613 3.13588 218.26 2.39146C218.915 1.63895 219.688 1.0685 220.578 0.680106C221.476 0.283621 222.467 0.0853791 223.552 0.0853791C224.644 0.0853791 225.639 0.283621 226.538 0.680106C227.436 1.0685 228.208 1.63895 228.856 2.39146C229.503 3.13588 230.001 4.03809 230.349 5.09807C230.705 6.14997 230.883 7.34347 230.883 8.67857ZM227.836 9.64955V8.6543C227.836 7.66713 227.739 6.79729 227.545 6.04478C227.359 5.28418 227.08 4.649 226.707 4.13923C226.343 3.62137 225.894 3.23298 225.36 2.97405C224.826 2.70703 224.223 2.57352 223.552 2.57352C222.88 2.57352 222.281 2.70703 221.755 2.97405C221.229 3.23298 220.78 3.62137 220.408 4.13923C220.044 4.649 219.765 5.28418 219.571 6.04478C219.377 6.79729 219.279 7.66713 219.279 8.6543V9.64955C219.279 10.6367 219.377 11.5106 219.571 12.2712C219.765 13.0318 220.048 13.6751 220.42 14.201C220.801 14.7189 221.254 15.1113 221.78 15.3783C222.306 15.6373 222.904 15.7667 223.576 15.7667C224.256 15.7667 224.859 15.6373 225.384 15.3783C225.91 15.1113 226.355 14.7189 226.72 14.201C227.084 13.6751 227.359 13.0318 227.545 12.2712C227.739 11.5106 227.836 10.6367 227.836 9.64955ZM240.641 11.4095H236.041V8.99414H240.641C241.442 8.99414 242.089 8.86468 242.583 8.60575C243.077 8.34682 243.437 7.99079 243.663 7.53767C243.898 7.07645 244.015 6.5505 244.015 5.95982C244.015 5.40151 243.898 4.8796 243.663 4.39411C243.437 3.90053 243.077 3.50405 242.583 3.20466C242.089 2.90527 241.442 2.75558 240.641 2.75558H236.976V18H233.929V0.328125H240.641C242.009 0.328125 243.17 0.57087 244.124 1.05636C245.087 1.53376 245.82 2.19727 246.321 3.04687C246.823 3.88839 247.074 4.85128 247.074 5.93555C247.074 7.07645 246.823 8.05552 246.321 8.87277C245.82 9.69001 245.087 10.3171 244.124 10.754C243.17 11.191 242.009 11.4095 240.641 11.4095ZM263.896 8.67857V9.64955C263.896 10.9847 263.722 12.1822 263.374 13.2422C263.026 14.3022 262.529 15.2044 261.881 15.9488C261.242 16.6932 260.473 17.2637 259.575 17.6602C258.677 18.0485 257.682 18.2427 256.589 18.2427C255.505 18.2427 254.514 18.0485 253.616 17.6602C252.726 17.2637 251.953 16.6932 251.298 15.9488C250.642 15.2044 250.132 14.3022 249.768 13.2422C249.412 12.1822 249.234 10.9847 249.234 9.64955V8.67857C249.234 7.34347 249.412 6.14997 249.768 5.09807C250.124 4.03809 250.626 3.13588 251.273 2.39146C251.929 1.63895 252.701 1.0685 253.592 0.680106C254.49 0.283621 255.481 0.0853791 256.565 0.0853791C257.658 0.0853791 258.653 0.283621 259.551 0.680106C260.449 1.0685 261.222 1.63895 261.869 2.39146C262.516 3.13588 263.014 4.03809 263.362 5.09807C263.718 6.14997 263.896 7.34347 263.896 8.67857ZM260.85 9.64955V8.6543C260.85 7.66713 260.753 6.79729 260.558 6.04478C260.372 5.28418 260.093 4.649 259.721 4.13923C259.357 3.62137 258.908 3.23298 258.374 2.97405C257.84 2.70703 257.237 2.57352 256.565 2.57352C255.894 2.57352 255.295 2.70703 254.769 2.97405C254.243 3.23298 253.794 3.62137 253.422 4.13923C253.057 4.649 252.778 5.28418 252.584 6.04478C252.39 6.79729 252.293 7.66713 252.293 8.6543V9.64955C252.293 10.6367 252.39 11.5106 252.584 12.2712C252.778 13.0318 253.062 13.6751 253.434 14.201C253.814 14.7189 254.267 15.1113 254.793 15.3783C255.319 15.6373 255.918 15.7667 256.589 15.7667C257.269 15.7667 257.872 15.6373 258.398 15.3783C258.924 15.1113 259.369 14.7189 259.733 14.201C260.097 13.6751 260.372 13.0318 260.558 12.2712C260.753 11.5106 260.85 10.6367 260.85 9.64955ZM266.943 0.328125H273.193C274.536 0.328125 275.681 0.530413 276.628 0.934988C277.575 1.33956 278.299 1.93834 278.801 2.73131C279.31 3.51618 279.565 4.48716 279.565 5.64425C279.565 6.52623 279.403 7.30301 279.08 7.97461C278.756 8.64621 278.299 9.21261 277.708 9.67383C277.118 10.127 276.414 10.4789 275.596 10.7298L274.674 11.1789H269.054L269.03 8.76353H273.242C273.97 8.76353 274.577 8.63407 275.062 8.37514C275.548 8.11621 275.912 7.76423 276.155 7.3192C276.406 6.86607 276.531 6.35631 276.531 5.7899C276.531 5.17494 276.41 4.6409 276.167 4.18778C275.932 3.72656 275.568 3.37458 275.075 3.13184C274.581 2.881 273.954 2.75558 273.193 2.75558H269.989V18H266.943V0.328125ZM277.029 18L272.878 10.0622L276.07 10.0501L280.281 17.8422V18H277.029ZM289.481 2.68276L284.202 18H281.01L287.661 0.328125H289.7L289.481 2.68276ZM293.899 18L288.608 2.68276L288.377 0.328125H290.428L297.104 18H293.899ZM293.645 11.4459V13.8612H284.032V11.4459H293.645ZM304.823 0.328125V18H301.801V0.328125H304.823ZM310.37 0.328125V2.75558H296.303V0.328125H310.37ZM315.953 0.328125V18H312.906V0.328125H315.953ZM333.831 8.67857V9.64955C333.831 10.9847 333.657 12.1822 333.309 13.2422C332.961 14.3022 332.464 15.2044 331.816 15.9488C331.177 16.6932 330.408 17.2637 329.51 17.6602C328.612 18.0485 327.617 18.2427 326.524 18.2427C325.44 18.2427 324.449 18.0485 323.551 17.6602C322.661 17.2637 321.888 16.6932 321.233 15.9488C320.577 15.2044 320.067 14.3022 319.703 13.2422C319.347 12.1822 319.169 10.9847 319.169 9.64955V8.67857C319.169 7.34347 319.347 6.14997 319.703 5.09807C320.059 4.03809 320.561 3.13588 321.208 2.39146C321.864 1.63895 322.636 1.0685 323.527 0.680106C324.425 0.283621 325.416 0.0853791 326.5 0.0853791C327.592 0.0853791 328.588 0.283621 329.486 0.680106C330.384 1.0685 331.157 1.63895 331.804 2.39146C332.451 3.13588 332.949 4.03809 333.297 5.09807C333.653 6.14997 333.831 7.34347 333.831 8.67857ZM330.785 9.64955V8.6543C330.785 7.66713 330.688 6.79729 330.493 6.04478C330.307 5.28418 330.028 4.649 329.656 4.13923C329.292 3.62137 328.843 3.23298 328.309 2.97405C327.775 2.70703 327.172 2.57352 326.5 2.57352C325.829 2.57352 325.23 2.70703 324.704 2.97405C324.178 3.23298 323.729 3.62137 323.357 4.13923C322.992 4.649 322.713 5.28418 322.519 6.04478C322.325 6.79729 322.228 7.66713 322.228 8.6543V9.64955C322.228 10.6367 322.325 11.5106 322.519 12.2712C322.713 13.0318 322.997 13.6751 323.369 14.201C323.749 14.7189 324.202 15.1113 324.728 15.3783C325.254 15.6373 325.853 15.7667 326.524 15.7667C327.204 15.7667 327.807 15.6373 328.333 15.3783C328.859 15.1113 329.304 14.7189 329.668 14.201C330.032 13.6751 330.307 13.0318 330.493 12.2712C330.688 11.5106 330.785 10.6367 330.785 9.64955ZM350.896 0.328125V18H347.85L339.924 5.34082V18H336.878V0.328125H339.924L347.874 13.0116V0.328125H350.896Z" fill="black"/>
</svg>
