<svg width="160" height="160" viewBox="0 0 160 160" fill="none" xmlns="http://www.w3.org/2000/svg">
<g clip-path="url(#clip0_1_339)">
<path d="M160 0H0V160H160V0Z" fill="#97D700"/>
<path d="M80 38.4099C74.0666 38.4099 68.2664 40.1694 63.3329 43.4658C58.3994 46.7623 54.5543 51.4476 52.2836 56.9294C50.013 62.4112 49.4189 68.4432 50.5765 74.2626C51.734 80.0821 54.5912 85.4275 58.7868 89.6231C62.9824 93.8187 68.3279 96.6759 74.1473 97.8335C79.9667 98.991 85.9987 98.3969 91.4805 96.1263C96.9623 93.8557 101.648 90.0105 104.944 85.077C108.241 80.1436 110 74.3434 110 68.4099C110 60.4534 106.839 52.8228 101.213 47.1967C95.5871 41.5706 87.9565 38.4099 80 38.4099V38.4099ZM79.93 89.7199C75.7212 89.7199 71.607 88.4719 68.1075 86.1336C64.608 83.7953 61.8805 80.4718 60.2699 76.5834C58.6592 72.695 58.2378 68.4163 59.0589 64.2884C59.88 60.1605 61.9067 56.3687 64.8828 53.3927C67.8588 50.4166 71.6506 48.3899 75.7785 47.5688C79.9064 46.7477 84.1851 47.1691 88.0735 48.7798C91.9619 50.3904 95.2854 53.1179 97.6237 56.6174C99.962 60.1168 101.21 64.2311 101.21 68.4399C101.211 71.2348 100.662 74.0026 99.5928 76.585C98.5239 79.1674 96.9565 81.5138 94.9802 83.4901C93.0039 85.4664 90.6575 87.0338 88.0751 88.1028C85.4927 89.1717 82.7249 89.7212 79.93 89.7199Z" fill="white"/>
<path d="M90.01 32.7701C92.5871 30.1124 94.0227 26.5521 94.01 22.8501C92.1462 22.8524 90.3016 23.2269 88.5844 23.9516C86.8672 24.6762 85.312 25.7365 84.01 27.0701C81.4319 29.7272 79.9962 33.2879 80.01 36.9901C81.8738 36.9878 83.7184 36.6133 85.4356 35.8886C87.1528 35.164 88.708 34.1038 90.01 32.7701V32.7701Z" fill="white"/>
<path d="M71.22 120.15C70.1357 120.162 69.0722 119.851 68.1649 119.258C67.2575 118.664 66.547 117.814 66.1238 116.815C65.7006 115.817 65.5836 114.715 65.7879 113.65C65.9921 112.585 66.5083 111.605 67.2709 110.834C68.0334 110.063 69.0079 109.536 70.0706 109.32C71.1333 109.104 72.2362 109.209 73.2392 109.621C74.2422 110.033 75.1001 110.734 75.7038 111.635C76.3076 112.536 76.6299 113.596 76.63 114.68C76.634 115.394 76.4972 116.103 76.2274 116.764C75.9577 117.426 75.5603 118.028 75.0579 118.536C74.5555 119.043 73.958 119.447 73.2995 119.725C72.641 120.002 71.9344 120.146 71.22 120.15V120.15ZM71.22 107.6C69.8164 107.584 68.4398 107.986 67.265 108.754C66.0902 109.522 65.1703 110.623 64.6222 111.915C64.074 113.207 63.9223 114.633 64.1864 116.012C64.4505 117.39 65.1184 118.659 66.1053 119.657C67.0922 120.656 68.3536 121.338 69.7291 121.618C71.1046 121.897 72.5322 121.762 73.8306 121.228C75.129 120.695 76.2395 119.788 77.021 118.622C77.8026 117.456 78.2199 116.084 78.22 114.68C78.2306 113.754 78.0573 112.835 77.7103 111.977C77.3633 111.118 76.8493 110.337 76.1983 109.679C75.5472 109.02 74.7719 108.497 73.9174 108.14C73.0628 107.784 72.146 107.6 71.22 107.6Z" fill="white"/>
<path d="M27.72 107.96V121.24H35.7V119.61H29.54V107.96H27.72Z" fill="white"/>
<path d="M39.69 107.96H37.87V121.24H39.69V107.96Z" fill="white"/>
<path d="M49.88 107.96L47.53 119.84H47.46L45.1 107.96H41.86V121.24H43.7V108.99L46.17 121.24H48.82L51.29 108.99V121.24H53.13V107.96H49.88Z" fill="white"/>
<path d="M55 107.96V121.24H62.97V119.66H56.82V115.21H62.93V113.63H56.82V109.54H62.98V107.96H55Z" fill="white"/>
<path d="M81.51 113.67H84.66H85.14C85.3182 113.65 85.4951 113.62 85.67 113.58C85.8241 113.545 85.9724 113.488 86.11 113.41C86.1999 113.36 86.2838 113.299 86.36 113.23C86.477 113.141 86.5784 113.032 86.66 112.91C86.765 112.755 86.8491 112.587 86.91 112.41C86.979 112.18 87.0127 111.94 87.01 111.7C87.0345 111.271 86.9262 110.845 86.7 110.48C86.5152 110.21 86.2637 109.993 85.97 109.85C85.6998 109.721 85.4083 109.643 85.11 109.62C84.81 109.62 84.56 109.62 84.38 109.62H81.51V113.67ZM79.74 107.96H84.44H85.06C85.3211 107.962 85.5817 107.982 85.84 108.02C86.1246 108.056 86.4057 108.116 86.68 108.2C86.9551 108.288 87.2174 108.413 87.46 108.57C87.9275 108.855 88.3079 109.264 88.56 109.75C88.7996 110.224 88.923 110.749 88.92 111.28C88.925 111.726 88.84 112.168 88.67 112.58C88.5196 112.974 88.2879 113.332 87.99 113.63C87.7555 113.878 87.4776 114.082 87.17 114.23C86.89 114.34 86.65 114.43 86.45 114.49C86.7325 114.562 87.0047 114.669 87.26 114.81C87.4872 114.924 87.6881 115.084 87.85 115.28C88.0161 115.493 88.1445 115.733 88.23 115.99C88.3403 116.335 88.414 116.69 88.45 117.05C88.45 117.44 88.54 117.81 88.58 118.16C88.62 118.51 88.68 118.83 88.73 119.16L88.94 120.16C89.0267 120.52 89.137 120.874 89.27 121.22H87.3C87.2203 120.963 87.1535 120.703 87.1 120.44C87.04 120.14 86.99 119.83 86.93 119.51C86.87 119.19 86.84 118.87 86.81 118.51C86.78 118.15 86.74 117.91 86.7 117.66C86.654 117.255 86.5771 116.854 86.47 116.46C86.3888 116.167 86.2299 115.9 86.01 115.69C85.7691 115.486 85.4798 115.349 85.17 115.29C84.7291 115.201 84.2797 115.161 83.83 115.17H81.54V121.17H79.72L79.74 107.96Z" fill="white"/>
<path d="M95.2 109.57L97.31 116.65H93.1L95.2 109.57ZM94.2 108L90.03 121.29H91.72L92.72 118.12H97.81L98.75 121.29H100.63L96.35 108H94.2Z" fill="white"/>
<path d="M109.08 107.96V119.33H109.04L103.92 107.96H101.56V121.24H103.05V109.73H103.09L108.28 121.24H110.57V107.96H109.08Z" fill="white"/>
<path d="M120.79 111.27C120.719 110.686 120.43 110.15 119.98 109.77C119.44 109.358 118.768 109.155 118.09 109.2C117.565 109.194 117.044 109.282 116.55 109.46C116.096 109.643 115.697 109.939 115.39 110.32C115.128 110.621 114.909 110.958 114.74 111.32C114.579 111.678 114.449 112.05 114.35 112.43C114.259 112.795 114.196 113.166 114.16 113.54C114.16 113.91 114.11 114.25 114.11 114.54C114.11 114.83 114.11 115.14 114.16 115.54C114.21 115.94 114.25 116.27 114.33 116.66C114.42 117.036 114.53 117.406 114.66 117.77C114.791 118.127 114.973 118.464 115.2 118.77C115.39 119.013 115.616 119.225 115.87 119.4C116.106 119.57 116.365 119.705 116.64 119.8C116.915 119.902 117.2 119.972 117.49 120.01C117.788 120.058 118.089 120.082 118.39 120.08C118.952 120.091 119.512 120.034 120.06 119.91L120.99 119.66V115.72H118.3V114.19H122.69V120.74C122.52 120.81 122.29 120.88 122.02 120.97C121.708 121.076 121.391 121.167 121.07 121.24C120.7 121.33 120.3 121.39 119.86 121.46C119.389 121.522 118.915 121.552 118.44 121.55C117.52 121.583 116.604 121.423 115.75 121.08C115.118 120.806 114.553 120.4 114.09 119.89C113.492 119.228 113.054 118.438 112.81 117.58C112.55 116.69 112.418 115.767 112.42 114.84C112.42 114.51 112.42 114.08 112.5 113.56C112.565 112.997 112.682 112.441 112.85 111.9C113.041 111.298 113.303 110.721 113.63 110.18C113.984 109.601 114.446 109.095 114.99 108.69C115.277 108.476 115.594 108.304 115.93 108.18C116.235 108.059 116.55 107.962 116.87 107.89C117.146 107.823 117.427 107.783 117.71 107.77H118.32C118.56 107.77 118.81 107.77 119.11 107.77C119.416 107.798 119.717 107.858 120.01 107.95C120.339 108.061 120.654 108.209 120.95 108.39C121.283 108.597 121.584 108.853 121.84 109.15C122.007 109.335 122.152 109.54 122.27 109.76C122.371 109.94 122.452 110.132 122.51 110.33C122.553 110.498 122.583 110.668 122.6 110.84C122.6 111 122.6 111.14 122.65 111.26L120.79 111.27Z" fill="white"/>
<path d="M124.35 107.96V121.24H132.27V119.66H126.16V115.21H132.28V113.63H126.16V109.54H132.25V107.96H124.35Z" fill="white"/>
</g>
<defs>
<clipPath id="clip0_1_339">
<rect width="160" height="160" fill="white"/>
</clipPath>
</defs>
</svg>
