<svg width="156" height="68" viewBox="0 0 156 68" fill="none" xmlns="http://www.w3.org/2000/svg">
<path d="M25.844 29H29.3436L21.6505 7.69251H18.0771L10.3839 29H13.8244L15.7735 23.2412H23.8949L25.844 29ZM19.7899 11.2364H19.8785L23.0532 20.5833H16.6152L19.7899 11.2364ZM37.3911 15.7548C39.6208 15.7548 41.1269 17.4234 41.2008 19.8007H33.4338C33.5962 17.4529 35.1614 15.7548 37.3911 15.7548ZM41.186 24.4373C40.7578 25.7958 39.4141 26.7113 37.5978 26.7113C35.0433 26.7113 33.419 24.9246 33.419 22.2224V22.0304H44.3903V20.9377C44.3903 16.2273 41.7028 13.1855 37.3911 13.1855C33.0056 13.1855 30.2 16.434 30.2 21.3069C30.2 26.2092 32.9613 29.2953 37.524 29.2953C41.0826 29.2953 43.7701 27.2724 44.2131 24.4373H41.186ZM53.5452 29.2953C57.9898 29.2953 60.9135 26.2387 60.9135 21.233C60.9135 16.2421 57.9751 13.1855 53.5452 13.1855C49.1154 13.1855 46.177 16.2421 46.177 21.233C46.177 26.2387 49.1006 29.2953 53.5452 29.2953ZM53.5452 26.667C51.0498 26.667 49.4255 24.6883 49.4255 21.233C49.4255 17.7925 51.0498 15.8139 53.5452 15.8139C56.0407 15.8139 57.665 17.7925 57.665 21.233C57.665 24.6883 56.0555 26.667 53.5452 26.667ZM63.3795 29H66.5689V19.9484C66.5689 17.5415 68.016 15.9468 70.2605 15.9468C72.4754 15.9468 73.5681 17.2314 73.5681 19.5645V29H76.7723V18.9443C76.7723 15.3857 74.8084 13.2003 71.3827 13.2003C68.9906 13.2003 67.3368 14.293 66.4951 16.0649H66.4213V13.4661H63.3795V29ZM86.0011 29H89.1906V19.402C89.1906 17.4086 90.5343 15.932 92.4244 15.932C94.2259 15.932 95.3628 17.069 95.3628 18.8557V29H98.4933V19.2987C98.4933 17.3348 99.8074 15.932 101.697 15.932C103.588 15.932 104.665 17.0838 104.665 19.0919V29H107.87V18.3241C107.87 15.238 105.862 13.2003 102.79 13.2003C100.575 13.2003 98.7443 14.352 97.9469 16.2421H97.8731C97.2529 14.3077 95.6877 13.2003 93.5318 13.2003C91.4351 13.2003 89.8108 14.352 89.1168 16.0797H89.0429V13.4661H86.0011V29ZM116.39 26.7408C114.677 26.7408 113.555 25.8548 113.555 24.4963C113.555 23.1674 114.633 22.3257 116.537 22.1928L120.362 21.9566V23.1822C120.362 25.2051 118.619 26.7408 116.39 26.7408ZM115.504 29.2658C117.542 29.2658 119.505 28.1731 120.406 26.4455H120.48V29H123.537V18.2946C123.537 15.1789 121.13 13.1855 117.364 13.1855C113.525 13.1855 111.133 15.2528 110.956 18.0583H113.968C114.249 16.6703 115.4 15.7843 117.246 15.7843C119.195 15.7843 120.362 16.818 120.362 18.5456V19.7417L116.109 19.9927C112.418 20.1994 110.336 21.868 110.336 24.5849C110.336 27.3757 112.462 29.2658 115.504 29.2658ZM126.756 29H129.945V7.69251H126.756V29ZM133.341 29H136.531V7.69251H133.341V29Z" fill="#8C8C8C"/>
<path d="M16.018 60.242V62.2984H34.9488V60.242H16.018ZM16.018 53.8309V61.3912H18.5582V53.8309H16.018ZM31.7735 35.5956V55.4942H34.2835V35.5956H31.7735ZM26.8745 43.0651V45.1215H33.7997V43.0651H26.8745ZM12.2076 49.0226V51.079H13.4172C15.1712 51.079 17.1671 51.0488 19.6771 50.5044L19.4352 48.448C17.1066 48.9621 15.0502 49.0226 13.4172 49.0226H12.2076ZM12.2076 37.8335V49.6274H14.6874V39.8898H19.1328V37.8335H12.2076ZM20.6146 49.0226V51.079H21.9754C24.9693 51.079 26.9652 50.9883 29.4147 50.4742L29.1728 48.4178C26.8442 48.9621 24.8786 49.0226 21.9754 49.0226H20.6146ZM20.6146 37.8335V49.567H23.0641V39.8898H28.1446V37.8335H20.6146ZM41.6297 37.0774V39.1338H61.7097V37.0774H41.6297ZM41.7507 46.5731V48.6295H61.5888V46.5731H41.7507ZM45.7727 38.6802V47.692H48.2827V38.6802H45.7727ZM55.0869 38.6802V47.692H57.5667V38.6802H55.0869ZM39.3011 51.7745V53.8309H64.0685V51.7745H39.3011ZM50.3996 52.6818V62.9032H52.9096V52.6818H50.3996ZM81.7269 42.3998V44.4865H87.8053V42.3998H81.7269ZM87.1098 35.5654V51.5629H89.6198V35.5654H87.1098ZM71.8986 52.8935V62.5403H89.6198V52.8935H71.8986ZM87.1703 54.8894V60.5142H74.3481V54.8894H87.1703ZM74.1062 38.1661V40.3737C74.1062 44.2445 71.2937 47.8735 67.2112 49.325L68.5116 51.3209C73.078 49.6274 76.1625 45.3635 76.1625 40.3737V38.1661H74.1062ZM74.59 38.1661V40.3435C74.59 44.9401 77.5234 49.0831 81.9688 50.6859L83.2389 48.69C79.2774 47.2989 76.6162 43.8817 76.6162 40.3435V38.1661H74.59ZM67.9975 37.3194V39.3455H82.6039V37.3194H67.9975ZM115.598 43.0954V45.1518H122.493V43.0954H115.598ZM121.072 35.5956V55.6152H123.582V35.5956H121.072ZM106.133 60.242V62.2984H124.338V60.242H106.133ZM106.133 53.8612V61.3005H108.643V53.8612H106.133ZM108.068 38.9826V41.1902C108.068 45.0611 105.256 48.69 101.173 50.1415L102.474 52.1374C107.04 50.4439 110.125 46.1497 110.125 41.1902V38.9826H108.068ZM108.552 38.9826V41.16C108.552 45.7868 111.485 49.8996 115.931 51.5024L117.201 49.5367C113.239 48.1456 110.578 44.6982 110.578 41.16V38.9826H108.552ZM101.96 37.8032V39.8294H116.566V37.8032H101.96ZM141.996 40.5854V42.6418H149.315V40.5854H141.996ZM141.754 46.2707V48.3271H149.133V46.2707H141.754ZM148.891 35.5654V51.956H151.401V35.5654H148.891ZM140.333 37.6218V38.7104C140.333 43.8817 136.25 47.9037 129.265 49.9298L130.293 51.956C138.156 49.5972 143.024 44.6679 143.024 37.6218H140.333ZM130.686 37.6218V39.6782H142.057V37.6218H130.686ZM142.51 52.2584C136.976 52.2584 133.468 54.2241 133.468 57.5203C133.468 60.8166 136.976 62.7823 142.51 62.7823C148.044 62.7823 151.552 60.8166 151.552 57.5203C151.552 54.2241 148.044 52.2584 142.51 52.2584ZM142.51 54.2241C146.532 54.2241 149.103 55.4639 149.103 57.5203C149.103 59.5767 146.532 60.7864 142.51 60.7864C138.518 60.7864 135.948 59.5767 135.948 57.5203C135.948 55.4639 138.518 54.2241 142.51 54.2241Z" fill="#8C8C8C"/>
<rect y="2" width="2" height="66" fill="#8C8C8C"/>
</svg>
