<svg width="26" height="18" viewBox="0 0 26 18" fill="none" xmlns="http://www.w3.org/2000/svg">
<path d="M24.9372 3.2225C24.8036 2.68859 24.5314 2.19939 24.1482 1.80433C23.765 1.40927 23.2843 1.12233 22.7547 0.9725C20.8197 0.5 13.0797 0.5 13.0797 0.5C13.0797 0.5 5.33974 0.5 3.40474 1.0175C2.87515 1.16733 2.39447 1.45427 2.01126 1.84933C1.62805 2.24439 1.35588 2.73359 1.22224 3.2675C0.868111 5.23125 0.694885 7.22335 0.704745 9.21875C0.692121 11.2292 0.865358 13.2365 1.22224 15.215C1.36957 15.7323 1.64784 16.2029 2.03016 16.5813C2.41247 16.9597 2.88592 17.233 3.40474 17.375C5.33974 17.8925 13.0797 17.8925 13.0797 17.8925C13.0797 17.8925 20.8197 17.8925 22.7547 17.375C23.2843 17.2252 23.765 16.9382 24.1482 16.5432C24.5314 16.1481 24.8036 15.6589 24.9372 15.125C25.2886 13.176 25.4619 11.1991 25.4547 9.21875C25.4674 7.20833 25.2941 5.20104 24.9372 3.2225V3.2225Z" fill="black"/>
<path d="M10.5488 13.8975L17.0176 10.2188L10.5488 6.54004V13.8975Z" fill="white"/>
</svg>
